<svg xmlns="http://www.w3.org/2000/svg" xmlns:xlink="http://www.w3.org/1999/xlink" width="100" height="165" viewBox="0 0 100 165"><defs><clipPath id="a"><rect width="100" height="165" transform="translate(-0.109 -0.104)" fill="#fff"/></clipPath></defs><g transform="translate(0.109 -0.199)"><g transform="translate(0 0.302)" clip-path="url(#a)"><path d="M95.845,56.185a3.306,3.306,0,0,0,3.3-3.3V9.915A9.927,9.927,0,0,0,89.235,0H9.915A9.927,9.927,0,0,0,0,9.915V155.334a9.927,9.927,0,0,0,9.915,9.915h79.32a9.927,9.927,0,0,0,9.915-9.915V66.1a3.3,3.3,0,0,0-6.61,0v89.235a3.31,3.31,0,0,1-3.3,3.3H9.915a3.31,3.31,0,0,1-3.3-3.3V9.915a3.31,3.31,0,0,1,3.3-3.3h79.32a3.31,3.31,0,0,1,3.3,3.3V52.88a3.306,3.306,0,0,0,3.3,3.3" transform="translate(0 -0.457)" fill="#fff"/><path d="M73.4,4H60.185a3.3,3.3,0,0,0-2.337.968L52.207,10.61H28.5L22.862,4.968A3.3,3.3,0,0,0,20.525,4H7.3a3.3,3.3,0,1,0,0,6.61H19.157L24.8,16.252a3.3,3.3,0,0,0,2.337.968h26.44a3.3,3.3,0,0,0,2.337-.968l5.642-5.642H73.4A3.3,3.3,0,0,0,73.4,4" transform="translate(9.22 8.763)" fill="#fff"/><path d="M14.3,44a3.3,3.3,0,1,0,0,6.61h19.83a3.3,3.3,0,1,0,0-6.61Z" transform="translate(25.355 100.962)" fill="#fff"/><path d="M66.795,10H33.745a3.3,3.3,0,1,0,0,6.61h33.05a3.315,3.315,0,0,1,3.3,3.3v39.66a3.315,3.315,0,0,1-3.3,3.3H56.549a16.529,16.529,0,0,0-32.389,0H13.915a3.315,3.315,0,0,1-3.3-3.3V19.915a3.315,3.315,0,0,1,3.3-3.3h6.61a3.3,3.3,0,1,0,0-6.61h-6.61A9.944,9.944,0,0,0,4,19.915v39.66a9.944,9.944,0,0,0,9.915,9.915h52.88a9.944,9.944,0,0,0,9.915-9.915V19.915A9.944,9.944,0,0,0,66.795,10M31,62.88a9.922,9.922,0,0,1,18.706,0Z" transform="translate(9.22 22.593)" fill="#fff"/><path d="M31.83,23.915a9.915,9.915,0,1,0-9.915,9.915,9.927,9.927,0,0,0,9.915-9.915m-13.22,0a3.3,3.3,0,1,1,3.3,3.3,3.31,3.31,0,0,1-3.3-3.3" transform="translate(27.66 31.813)" fill="#fff"/><path d="M44.285,38.654a11.788,11.788,0,0,0-17.024-6.022A11.775,11.775,0,0,0,12.947,51.1L24.924,63.074a3.3,3.3,0,0,0,4.673,0L41.575,51.1a11.8,11.8,0,0,0,2.71-12.447M36.9,46.424l-9.641,9.641L17.62,46.424a5.222,5.222,0,0,1,3.652-8.814,5.161,5.161,0,0,1,3.652,1.51,3.307,3.307,0,0,0,4.673,0,5.172,5.172,0,0,1,7.3,0,5.231,5.231,0,0,1,0,7.3" transform="translate(21.907 71.005)" fill="#fff"/><path d="M35.22,38.3a3.306,3.306,0,0,0-3.3-3.3H25.3a3.3,3.3,0,1,0,0,6.61h6.61a3.306,3.306,0,0,0,3.3-3.3" transform="translate(50.71 80.217)" fill="#fff"/><path d="M24.751,39.19a3.3,3.3,0,0,0,1.13-.2l6.21-2.261a3.3,3.3,0,1,0-2.261-6.21l-6.21,2.261c-3.279,1.193-2.489,6.412,1.13,6.412" transform="translate(49.671 69.418)" fill="#fff"/><path d="M23.694,45.41,29.9,47.67a3.3,3.3,0,1,0,2.261-6.207L25.955,39.2a3.3,3.3,0,1,0-2.261,6.207" transform="translate(49.597 89.436)" fill="#fff"/><path d="M13.915,41.61a3.3,3.3,0,1,0,0-6.61H7.3a3.3,3.3,0,1,0,0,6.61Z" transform="translate(9.22 80.217)" fill="#fff"/><path d="M15.25,32.778,9.04,30.518a3.3,3.3,0,1,0-2.261,6.21l6.21,2.261a3.361,3.361,0,0,0,4.237-1.976,3.3,3.3,0,0,0-1.976-4.234" transform="translate(10.609 69.417)" fill="#fff"/><path d="M7.82,47.892a3.364,3.364,0,0,0,1.13-.218l6.21-2.261A3.3,3.3,0,1,0,12.9,39.2S6.7,41.46,6.69,41.463C3.177,42.742,4.6,47.935,7.82,47.892" transform="translate(10.698 89.436)" fill="#fff"/></g></g></svg>