<svg xmlns="http://www.w3.org/2000/svg" xmlns:xlink="http://www.w3.org/1999/xlink" width="134" height="159" viewBox="0 0 134 159"><defs><clipPath id="a"><rect width="134" height="159" transform="translate(-0.156 -0.055)" fill="#fff"/></clipPath></defs><g transform="translate(0.606 0.352)"><g transform="translate(-0.45 -0.297)" clip-path="url(#a)"><path d="M19.957,67.471a3.182,3.182,0,0,0,3.457-.688L36.1,54.1a3.168,3.168,0,0,0,0-4.484L23.413,36.929A3.17,3.17,0,0,0,18,39.171v25.37a3.172,3.172,0,0,0,1.957,2.93m4.386-20.645,5.03,5.03-5.03,5.03Z" transform="translate(39.576 78.493)" fill="#fff"/><path d="M123.681,0H9.514A9.526,9.526,0,0,0,0,9.514v95.139a9.526,9.526,0,0,0,9.514,9.514h25.37v34.884a9.526,9.526,0,0,0,9.514,9.514H88.8a9.526,9.526,0,0,0,9.514-9.514V114.167h25.37a9.526,9.526,0,0,0,9.514-9.514V57.083a3.171,3.171,0,1,0-6.343,0v47.569a3.175,3.175,0,0,1-3.171,3.171H97.727a9.5,9.5,0,0,0-8.93-6.343H44.4a9.5,9.5,0,0,0-8.93,6.343H9.514a3.174,3.174,0,0,1-3.171-3.171V19.028h9.514a3.171,3.171,0,0,0,0-6.343H6.343V9.514A3.174,3.174,0,0,1,9.514,6.343H123.681a3.175,3.175,0,0,1,3.171,3.171v3.171h-6.343a3.157,3.157,0,0,0-2.242.929l-5.413,5.413h-6.888l-5.413-5.413a3.157,3.157,0,0,0-2.242-.929H28.542a3.171,3.171,0,1,0,0,6.343H97l5.413,5.413a3.157,3.157,0,0,0,2.242.929h9.514a3.157,3.157,0,0,0,2.242-.929l5.413-5.413h5.03V44.4a3.171,3.171,0,1,0,6.343,0V9.514A9.526,9.526,0,0,0,123.681,0M44.4,107.824H88.8A3.174,3.174,0,0,1,91.968,111v38.056a3.174,3.174,0,0,1-3.171,3.171H44.4a3.174,3.174,0,0,1-3.171-3.171V111a3.174,3.174,0,0,1,3.171-3.171" transform="translate(0.493 0.326)" fill="#fff"/><path d="M74.426,17.514A9.526,9.526,0,0,0,64.912,8h-44.4A9.526,9.526,0,0,0,11,17.514v25.37A9.526,9.526,0,0,0,20.514,52.4h44.4a9.526,9.526,0,0,0,9.514-9.514ZM20.514,14.343h44.4a3.174,3.174,0,0,1,3.171,3.171V35.229l-7.272-7.272a3.168,3.168,0,0,0-4.484,0l-7.272,7.272L35.441,21.614a3.168,3.168,0,0,0-4.484,0L17.343,35.229V17.514a3.174,3.174,0,0,1,3.171-3.171M17.565,43.975,33.2,28.341,50.914,46.056h-30.4a3.149,3.149,0,0,1-2.949-2.08m47.347,2.08h-5.03L53.54,39.713l5.03-5.03,9.292,9.292a3.149,3.149,0,0,1-2.949,2.08" transform="translate(24.377 17.696)" fill="#fff"/><path d="M23.685,43.028a3.17,3.17,0,0,0,3.171-3.171V36.685h44.4a3.171,3.171,0,1,0,0-6.343h-44.4V27.171a3.171,3.171,0,1,0-6.343,0v3.171H14.171a3.171,3.171,0,1,0,0,6.343h6.343v3.171a3.17,3.17,0,0,0,3.171,3.171" transform="translate(24.377 52.437)" fill="#fff"/></g></g></svg>