<svg xmlns="http://www.w3.org/2000/svg" xmlns:xlink="http://www.w3.org/1999/xlink" width="159" height="144" viewBox="0 0 159 144"><defs><clipPath id="a"><rect width="159" height="144" transform="translate(0.443 -0.004)" fill="#fff"/></clipPath></defs><g transform="translate(-0.443 0.104)"><g transform="translate(0 -0.1)" clip-path="url(#a)"><path d="M95.6,43.841a9.654,9.654,0,0,0-7.834-4.061H76.35v-6.4A22.409,22.409,0,0,0,53.966,11a3.207,3.207,0,0,0-3.2,3.2v9.593A15.989,15.989,0,0,1,34.78,39.78H9.2a3.207,3.207,0,0,0-3.2,3.2V81.35a3.207,3.207,0,0,0,3.2,3.2H28l24.431,6.108a9.525,9.525,0,0,0,2.334.288H76.35A9.663,9.663,0,0,0,85.4,84.58L96.816,52.6A9.716,9.716,0,0,0,95.6,43.841M25.186,78.152H12.4V46.175H25.186ZM90.772,50.46,79.356,82.437a3.217,3.217,0,0,1-3.006,2.11H54.765a3.415,3.415,0,0,1-.8-.1l-22.384-5.6V46.175h3.2A22.384,22.384,0,0,0,57.164,23.791V17.715A16.016,16.016,0,0,1,69.955,33.384v9.593a3.207,3.207,0,0,0,3.2,3.2H87.766a3.157,3.157,0,0,1,2.622,1.343,3.213,3.213,0,0,1,.384,2.942" transform="translate(13.186 24.269)" fill="#fff"/><path d="M159.286,25.815a3.2,3.2,0,0,0-6.367.467,3.443,3.443,0,0,0,.064.652,24.3,24.3,0,0,1,.508,5.043A25.582,25.582,0,1,1,127.909,6.4,25.292,25.292,0,0,1,148.257,16.51a3.2,3.2,0,1,0,5.1-3.86A31.641,31.641,0,0,0,127.909,0a32.019,32.019,0,0,0-31.2,25.041,63.107,63.107,0,0,0-32.758-9.053A64.025,64.025,0,0,0,0,79.943a63.377,63.377,0,0,0,16.539,42.891l-15.6,15.6A3.2,3.2,0,0,0,3.2,143.9h28.78a3.2,3.2,0,1,0,0-6.4H10.92l12.353-12.356a3.2,3.2,0,0,0,0-4.525A57.039,57.039,0,0,1,6.4,79.943,57.627,57.627,0,0,1,63.955,22.384a56.706,56.706,0,0,1,31.99,9.791,32.017,32.017,0,0,0,22.867,30.442A57.47,57.47,0,0,1,63.955,137.5H44.768a3.2,3.2,0,1,0,0,6.4H63.955a63.983,63.983,0,0,0,61.9-80.049c.681.045,1.359.106,2.05.106a32.016,32.016,0,0,0,31.977-31.977,30.976,30.976,0,0,0-.6-6.162" transform="translate(0 0.093)" fill="#fff"/><path d="M48.023,22.627a15.96,15.96,0,0,0,10.6-4.036,3.2,3.2,0,0,0-4.247-4.784,9.778,9.778,0,0,1-12.7,0,3.2,3.2,0,0,0-4.247,4.784,15.96,15.96,0,0,0,10.6,4.036" transform="translate(79.886 28.663)" fill="#fff"/><path d="M42.4,15.593V9.2a3.2,3.2,0,0,0-6.4,0v6.4a3.2,3.2,0,0,0,6.4,0" transform="translate(79.118 13.28)" fill="#fff"/><path d="M48.4,15.593V9.2a3.2,3.2,0,0,0-6.4,0v6.4a3.2,3.2,0,0,0,6.4,0" transform="translate(92.305 13.28)" fill="#fff"/></g></g></svg>