<svg xmlns="http://www.w3.org/2000/svg" xmlns:xlink="http://www.w3.org/1999/xlink" width="144.033" height="144.871" viewBox="0 0 144.033 144.871"><defs><clipPath id="a"><rect width="144.033" height="144.871" fill="#fff"/></clipPath></defs><g transform="translate(0 0)"><g transform="translate(0 0.001)" clip-path="url(#a)"><path d="M37.542,123.817H6.862a2.426,2.426,0,0,1-2.427-2.427V17.186a2.426,2.426,0,0,1,2.427-2.427H37.542a2.426,2.426,0,0,1,2.427,2.427v104.2a2.426,2.426,0,0,1-2.427,2.427M9.288,118.963H35.116V19.612H9.288Z" transform="translate(6.327 21.055)" fill="#fff"/><path d="M73.38,95.116H42.7a2.426,2.426,0,0,1-2.427-2.427V37.3A2.426,2.426,0,0,1,42.7,34.876H73.38A2.424,2.424,0,0,1,75.806,37.3V92.689a2.424,2.424,0,0,1-2.427,2.427M45.128,90.263H70.956V39.729H45.128Z" transform="translate(57.46 49.756)" fill="#fff"/><path d="M55.462,107.2H24.782a2.426,2.426,0,0,1-2.427-2.427V28.832A2.426,2.426,0,0,1,24.782,26.4H55.462a2.426,2.426,0,0,1,2.427,2.427v75.943a2.426,2.426,0,0,1-2.427,2.427m-28.254-4.853H53.036V31.258H27.208Z" transform="translate(31.893 37.67)" fill="#fff"/><path d="M141.6,62.553H2.427a2.427,2.427,0,1,1,0-4.853H141.6a2.427,2.427,0,0,1,0,4.853" transform="translate(0 82.318)" fill="#fff"/><path d="M63.612,43.281a5.907,5.907,0,0,1-2.276-.461l-10.051-4.2a5.91,5.91,0,0,1-3.179-7.739l6.525-15.633a5.92,5.92,0,0,1,7.736-3.181l10.051,4.2A5.909,5.909,0,0,1,75.6,24.006L69.072,39.638a5.936,5.936,0,0,1-5.46,3.642M60.091,16.468a1.13,1.13,0,0,0-.405.08,1.053,1.053,0,0,0-.575.573L52.583,32.756a1.06,1.06,0,0,0,.57,1.388l10.051,4.2a1.061,1.061,0,0,0,1.388-.573l6.525-15.633a1.051,1.051,0,0,0,0-.813,1.039,1.039,0,0,0-.57-.575L60.5,16.551a1.042,1.042,0,0,0-.405-.083" transform="translate(67.975 16.567)" fill="#fff"/><path d="M65.6,29.442a2.42,2.42,0,0,1-1.716-.711L42.659,7.512A2.426,2.426,0,0,1,46.091,4.08L67.317,25.3A2.427,2.427,0,0,1,65.6,29.442" transform="translate(59.849 4.805)" fill="#fff"/><path d="M67.738,24.323h-.012L37.7,24.177a2.427,2.427,0,0,1,.01-4.853h.012l30.023.146a2.427,2.427,0,0,1-.012,4.853" transform="translate(50.345 27.568)" fill="#fff"/><path d="M54.494,45.671a6.917,6.917,0,0,1-6.855-7.913l2.155-14.88a2.425,2.425,0,0,1,3.337-1.89l10.185,4.252a2.426,2.426,0,0,1,1.4,2.9l-3.562,12.5a6.919,6.919,0,0,1-6.659,5.026m-.8-5.011a2.07,2.07,0,0,0,2.788-1.344l2.973-10.43L54.15,26.67,52.444,38.452A2.068,2.068,0,0,0,53.7,40.66" transform="translate(67.864 29.671)" fill="#fff"/><path d="M38.585,55.967a7.5,7.5,0,0,1-2.9-.58h0a7.559,7.559,0,0,1-4.055-9.872L48.7,4.645a7.547,7.547,0,0,1,13.929,5.814L45.562,51.327a7.563,7.563,0,0,1-6.977,4.64m-1.026-5.06a2.7,2.7,0,0,0,3.524-1.449L58.145,8.59a2.693,2.693,0,1,0-4.97-2.077L36.113,47.383a2.7,2.7,0,0,0,1.446,3.524" transform="translate(44.3 -0.001)" fill="#fff"/></g></g></svg>