<svg xmlns="http://www.w3.org/2000/svg" xmlns:xlink="http://www.w3.org/1999/xlink" width="154" height="149.686" viewBox="0 0 154 149.686"><defs><clipPath id="a"><rect width="154" height="149.686" fill="#fff"/></clipPath></defs><g transform="translate(0 0)"><g transform="translate(0 0)" clip-path="url(#a)"><path d="M144.1,55.857c-.462,0-3.128-.008-4.224-3.4-2.705-8.328-14.911-9.224-18.073.426A4.213,4.213,0,0,1,121,54.294V43.7a43.251,43.251,0,0,0-12.829-30.846c-27.5-27.5-74.575-7.938-74.575,30.846V54.877a4.469,4.469,0,0,1-1.535-2.415c-2.715-8.361-14.919-9.2-18.073.426A4.282,4.282,0,0,1,9.9,55.857c-9.77,0-13.538,11.585-5.626,17.318a4.283,4.283,0,0,1,1.56,4.8A9.431,9.431,0,0,0,20.206,88.946c5.125-3.726,5.957,3.3,13.386,1.566,0,7.461-.244,10.124.87,14.747a37.323,37.323,0,0,0-17.105,21.306c-1.763,5.636-4.363,11.148.344,17.552a13.531,13.531,0,0,0,11,5.569h97.177a13.527,13.527,0,0,0,11-5.567c4.732-6.439,2-12.26.346-17.557a37.29,37.29,0,0,0-17.056-21.273c1.042-4.466.821-7.073.821-14.636,6.839,1.127,7.81-5.346,12.806-1.707,7.112,5.166,17.485-1.335,14.369-10.969-.139-.426-.97-2.969,1.922-5.064a9.292,9.292,0,0,0,3.426-10.543c-1.232-3.791-4.484-6.514-9.416-6.514M38.725,43.7c0-34.144,41.489-51.541,65.816-27.214,12.93,12.881,11.323,26.539,11.323,39.477a9.426,9.426,0,0,0-4.127,16.951,4.338,4.338,0,0,1,1.922,5.061,9.3,9.3,0,0,0,2.2,10.05c0,10.584.131,11.362-.393,14.5l-4.417-2.6c1.422-9.208-8.315-17.69-17.328-12.252v-16.6c9.049-8.272,13.946-18.345,12.6-30.53A2.56,2.56,0,0,0,104.913,36c-12.937-.98-26.978-3.157-36.492-11.888a2.567,2.567,0,0,0-4.1.893c-2.587,6.129-9.937,11.015-15.447,13.333a2.565,2.565,0,0,0-.98,4c-.056.906-.154,1.835-.154,2.7,0,10.486,5.918,19.62,12.735,25.905V87.683c-9.041-5.461-18.922,3.087-17.3,12.457l-4.045,2.379c-.544-3.182-.4-3.783-.4-15.144a9.3,9.3,0,0,0,1.625-9.4c-.139-.426-.973-2.969,1.922-5.064a9.414,9.414,0,0,0-3.547-16.828ZM65.605,90.781V75.046C70.014,78.064,74.3,79.8,77.17,79.8c2.846,0,7.065-1.7,11.423-4.658V90.776L77.1,97.718ZM72.589,101l-8.839,8.931a6.735,6.735,0,0,1-10.6-1.34l-4.14-7.081c-1.36-2.33-1.311-4.961.742-7.894v0a5.89,5.89,0,0,1,7.851-1.663ZM52.871,45.037c0-.96.092-1.963.169-2.962,5.271-2.587,11.046-6.76,14.423-12.07C76.88,37.233,89.373,39.8,101.2,40.844a35.813,35.813,0,0,1,.275,4.194c0,16.3-18.347,29.634-24.3,29.634s-24.3-13.333-24.3-29.634M96.584,91.946a5.888,5.888,0,0,1,7.848,1.663v0c2.212,3.154,1.961,5.808.742,7.892l-4.14,7.083a6.727,6.727,0,0,1-10.594,1.34L81.6,101ZM28.634,84.529a9.432,9.432,0,0,0-11.449.264,4.294,4.294,0,0,1-6.609-4.8A9.43,9.43,0,0,0,7.286,69.02c-3.88-2.813-2.179-8.03,2.613-8.03a9.435,9.435,0,0,0,9.108-6.942,4.294,4.294,0,0,1,8.169,0v0a9.485,9.485,0,0,0,9.555,6.94,4.294,4.294,0,0,1,2.528,7.766,9.462,9.462,0,0,0-3.652,11.236c1.155,3.557-2.8,7.579-6.973,4.537m103.7,43.567,1.686,5.387a8.521,8.521,0,0,1-8.136,11.069H28.706a8.441,8.441,0,0,1-6.868-3.475c-3.075-4.186-1.222-7.735.418-12.981,4.26-13.622,14.036-17.957,22.836-23.128,3.616,6.185,5.877,12.088,13.9,12.088,6.231,0,8.713-3.832,15.919-11.115V133.9c0,3.4,5.133,3.4,5.133,0V106.723c5.785,5.844,9.3,11.164,16.664,10.237,6.983-.883,8.882-6,12.488-12.17,9.47,5.567,18.858,9.637,23.134,23.306m14.382-59.074a9.428,9.428,0,0,0-3.285,10.969c1.2,3.693-2.864,7.532-6.973,4.537a9.432,9.432,0,0,0-11.449.264c-3.167,2.3-8.038-.436-6.47-5.23a9.426,9.426,0,0,0-3.788-10.8c-3.136-2.276-2.117-7.769,2.974-7.769a9.427,9.427,0,0,0,9.106-6.942,4.294,4.294,0,0,1,8.169,0l0,0a9.463,9.463,0,0,0,9.552,6.94,4.188,4.188,0,0,1,4.086,2.967c.18.557.978,2.967-1.925,5.066" transform="translate(0 0.001)" fill="#fff"/></g></g></svg>