<svg xmlns="http://www.w3.org/2000/svg" xmlns:xlink="http://www.w3.org/1999/xlink" width="102.747" height="180.739" viewBox="0 0 102.747 180.739"><defs><clipPath id="a"><rect width="102.747" height="180.739" fill="#fff"/></clipPath></defs><g transform="translate(0 0)" clip-path="url(#a)"><path d="M93.28,104.495A21.392,21.392,0,0,0,74.126,92.743H54.391v-3.8c0-3.989-6.022-3.989-6.022,0v3.8H28.627A21.382,21.382,0,0,0,9.476,104.495C.209,122.733-.158,122.311,1.152,124.278l25.4,42.369a28.911,28.911,0,0,0,49.65,0l25.408-42.384c1.3-1.973.88-1.642-8.33-19.769M60.639,98.768,67.574,119.6H35.185l6.929-20.829ZM14.85,107.224a15.377,15.377,0,0,1,13.777-8.456h7.137L28.832,119.6H8.56Zm16.87,56.32L8.988,125.622H28.826l16.051,48.126a22.686,22.686,0,0,1-13.156-10.2m19.657,10.661L35.17,125.622H67.583Zm19.657-10.661a22.686,22.686,0,0,1-13.159,10.207L73.93,125.622H93.771ZM73.927,119.6,66.992,98.768h7.134a15.378,15.378,0,0,1,13.78,8.456L94.193,119.6ZM41.316,34.085a5.158,5.158,0,0,1-3.88,2.826,11.19,11.19,0,0,0-6.179,19.1,5.163,5.163,0,0,1,1.488,4.573A11.2,11.2,0,0,0,49,72.357a5.143,5.143,0,0,1,4.808-.006h0A11.2,11.2,0,0,0,70.032,60.529a5.137,5.137,0,0,1,1.482-4.573,11.2,11.2,0,0,0-6.233-19.082,5.161,5.161,0,0,1-3.892-2.82,11.192,11.192,0,0,0-20.073.03m5.408,2.654a5.164,5.164,0,0,1,9.267-.012,11.189,11.189,0,0,0,8.435,6.113,5.165,5.165,0,0,1,2.88,8.806,11.16,11.16,0,0,0-3.211,9.914A5.162,5.162,0,0,1,56.6,67.012a11.188,11.188,0,0,0-10.414.012,5.161,5.161,0,0,1-7.5-5.432,11.19,11.19,0,0,0-3.229-9.905,5.16,5.16,0,0,1,2.853-8.815,11.177,11.177,0,0,0,8.414-6.134m1.636-22.95V2.989c0-3.986,6.028-3.986,6.028,0v10.8c0,3.989-6.028,3.989-6.028,0M75.822,22.67l4.564-4.57c2.823-2.82,7.083,1.443,4.263,4.26-4.874,4.874-5.067,5.453-6.7,5.453a3.015,3.015,0,0,1-2.127-5.142M18.1,80.391l4.567-4.57c2.823-2.817,7.08,1.443,4.263,4.26-4.877,4.874-5.067,5.453-6.7,5.453a3.013,3.013,0,0,1-2.13-5.142m61.987-4.57,4.567,4.57a3.015,3.015,0,0,1-2.13,5.142c-1.744,0-2.335-1.091-6.7-5.453C73,77.264,77.259,73,80.082,75.821M18.1,22.36c-2.82-2.817,1.44-7.08,4.26-4.26l4.57,4.57c2.823,2.823-1.47,7.049-4.263,4.26ZM99.754,54.387H88.96c-3.986,0-3.986-6.025,0-6.025H99.754c3.989,0,3.989,6.025,0,6.025M2.99,48.361H13.784c3.986,0,3.986,6.025,0,6.025H2.99c-3.986,0-3.986-6.025,0-6.025" transform="translate(0.002 0)" fill="#fff"/></g></svg>