<svg xmlns="http://www.w3.org/2000/svg" xmlns:xlink="http://www.w3.org/1999/xlink" width="118.646" height="52.537" viewBox="0 0 118.646 52.537"><defs><clipPath id="a"><rect width="118.646" height="52.537" fill="#848484"/></clipPath></defs><g clip-path="url(#a)"><path d="M158.453,20.412h-4.635s-.155,6.106,0,6.227h4.635c.27,0,.717-.157.723-.843l.041-4.4a.993.993,0,0,0-.763-.984m2.325,12.527,2.615,5.153a2.975,2.975,0,0,1,3.557,3.344,2.786,2.786,0,0,1-2.59,2.723h-3.069a2.252,2.252,0,0,1-1.8-1.382l-4.461-9.141a1.815,1.815,0,0,0-1.355-.891l.147,8.385c.115.342-.3,3.015-2.157,3.03h-3.813c-4.5-.285-3.756-6.065.226-6.144l-.023-17.6c-4.681-.513-4.016-6.134-.344-6.077l12.63-.023c1.973.023,4.235,2.051,4.574,4.6a28.711,28.711,0,0,1-.074,9.308,6.477,6.477,0,0,1-4.06,4.713" transform="translate(-73.968 -7.318)" fill="#848484" fill-rule="evenodd"/><path d="M27.24,38.635l-9.5-21.979a3.946,3.946,0,0,0-7.421-.03L.251,39.824a3.023,3.023,0,0,0,2.406,4.269H7.65a3.384,3.384,0,0,0,2.4-1.081c1.512-1.742,1.041-4.935-2.4-5.083l.895-2.574h6.147c3.083-.719,3.164-4.618.082-5.929H11.166l2.868-7.1L20.6,37.836c-4.886.321-4.536,6.617,0,6.259h4.257c2.642-.5,3.428-2.472,2.383-5.46" transform="translate(0 -7.174)" fill="#848484" fill-rule="evenodd"/><path d="M77.023,38.375c.094,3.527-2.006,5.588-5.348,5.8l-11.428,0c-3.574-.247-3.595-6.019,0-6.287l9.122-.007c1.215.129,1.748-.719,1.706-1.149V21.545a1.117,1.117,0,0,0-1.018-1.239H65.776l-.013,13.759c-.267,3.942-5.927,3.714-5.927,0V20.306c-4.862-.1-4.618-5.7-.657-6.075H71.611c2.326-.189,5.361,1.771,5.413,5.731Z" transform="translate(-28.717 -7.266)" fill="#848484" fill-rule="evenodd"/><path d="M118.48,20.319h-7.316l.051,5.666,6.764.1c3.548.054,3.754,5.866,0,6.162h-6.815v5.8l6.8.049c3.438.26,3.858,5.9.071,6.067h-12.88c-4.214-.285-3.606-6.065-.039-6.145l-.024-17.595c-4.342-.739-3.639-6.209-.081-6.077l13.368-.023a3.1,3.1,0,0,1,.1,6" transform="translate(-52.166 -7.318)" fill="#848484" fill-rule="evenodd"/><path d="M210.788,20.319h-7.312l.045,5.666,6.766.1c3.55.054,3.756,5.866,0,6.162h-6.813v5.8l6.8.049c3.438.26,3.856,5.9.069,6.067H197.46c-4.213-.285-3.6-6.065-.039-6.145L197.4,20.421c-4.34-.739-3.637-6.209-.079-6.077l13.37-.023a3.1,3.1,0,0,1,.1,6" transform="translate(-99.338 -7.318)" fill="#848484" fill-rule="evenodd"/><path d="M230.767,3.165a2.732,2.732,0,0,0,.25,1.13,2.229,2.229,0,0,0,.755.911,2.059,2.059,0,0,0,1.222.356,2.169,2.169,0,0,0,1.1-.3,2.214,2.214,0,0,0,.824-.851,2.547,2.547,0,0,0,.308-1.269,2.5,2.5,0,0,0-.3-1.241,2.237,2.237,0,0,0-.817-.852,2.069,2.069,0,0,0-1.1-.306,2.092,2.092,0,0,0-1.265.364,2.133,2.133,0,0,0-.736.922,3.074,3.074,0,0,0-.243,1.131m-.905,0a3.343,3.343,0,0,1,.2-1.13,3.207,3.207,0,0,1,.591-1.024,2.932,2.932,0,0,1,.982-.734A3.084,3.084,0,0,1,232.961,0a3.352,3.352,0,0,1,1.152.2,3.108,3.108,0,0,1,1.015.6,2.893,2.893,0,0,1,.717.995,3.275,3.275,0,0,1,.265,1.35,3.584,3.584,0,0,1-.262,1.327,2.89,2.89,0,0,1-.682,1,2.957,2.957,0,0,1-.994.616,3.436,3.436,0,0,1-1.178.2,3.274,3.274,0,0,1-1.038-.178,3.332,3.332,0,0,1-1.02-.557,2.859,2.859,0,0,1-.778-.981,3.155,3.155,0,0,1-.3-1.415m2.623-1.136V2.84h.621a.6.6,0,0,0,.4-.1.433.433,0,0,0,.114-.338.313.313,0,0,0-.149-.289,1.012,1.012,0,0,0-.476-.084Zm-.724-.582h1.268a1.535,1.535,0,0,1,1.068.277,1.053,1.053,0,0,1,.294.761.935.935,0,0,1-.2.608.831.831,0,0,1-.625.265l.873,1.479h-.854l-.765-1.43h-.336v1.43h-.724Z" transform="translate(-117.463 0)" fill="#848484" fill-rule="evenodd"/><path d="M100.978,85.914a.668.668,0,0,0-.488.3,4.006,4.006,0,0,0-.5.966,7.214,7.214,0,0,0-.363,1.093,3.978,3.978,0,0,0-.134.883.426.426,0,0,0,.074.256.228.228,0,0,0,.191.1.693.693,0,0,0,.5-.3,3.949,3.949,0,0,0,.527-.93,7.31,7.31,0,0,0,.358-1.06,4.128,4.128,0,0,0,.128-.915.474.474,0,0,0-.071-.294.255.255,0,0,0-.221-.1m3.6-3.415-.129,1.147c-.088.731-.185,1.543-.3,2.444s-.177,1.427-.2,1.6l-.131,1.2a.761.761,0,0,0-.015.127c0,.041,0,.1,0,.177a.549.549,0,0,0,.057.284.19.19,0,0,0,.173.088c.032,0,.081,0,.145-.01a1.088,1.088,0,0,1,.147-.014.246.246,0,0,1,.216.12.626.626,0,0,1,.077.324.974.974,0,0,1-.2.6,2.577,2.577,0,0,1-.746.571,7.2,7.2,0,0,1-1.182.543,3.02,3.02,0,0,1-.935.2.579.579,0,0,1-.417-.135,1.058,1.058,0,0,1-.246-.488,2.671,2.671,0,0,1-.087-.422c-.035-.226-.086-.339-.156-.339s-.175.069-.318.211c-.085.088-.157.154-.214.2a4.852,4.852,0,0,1-1.1.729,2.6,2.6,0,0,1-1.057.242,1.374,1.374,0,0,1-1.194-.611,3.051,3.051,0,0,1-.425-1.731,6.18,6.18,0,0,1,.336-2.039,5.584,5.584,0,0,1,.976-1.744,3.9,3.9,0,0,1,1.163-.989,2.651,2.651,0,0,1,1.272-.344,1.685,1.685,0,0,1,.738.192,2.486,2.486,0,0,0,.432.195c.071,0,.137-.107.2-.318a2.472,2.472,0,0,0,.1-.722.232.232,0,0,0-.056-.182.323.323,0,0,0-.213-.049l-.088.01c-.053,0-.108,0-.165,0a.433.433,0,0,1-.319-.132.455.455,0,0,1-.13-.324.811.811,0,0,1,.211-.573,2.27,2.27,0,0,1,.783-.447,5.584,5.584,0,0,1,1.111-.308,6.38,6.38,0,0,1,1.183-.111.933.933,0,0,1,.564.12.547.547,0,0,1,.149.442v.152a1.052,1.052,0,0,1-.014.111M92.575,86.107a.671.671,0,0,0-.456.271,4.447,4.447,0,0,0-.559.827,5.334,5.334,0,0,0-.445,1.065,3.276,3.276,0,0,0-.164.926.632.632,0,0,0,.074.319.219.219,0,0,0,.192.123.616.616,0,0,0,.416-.231,3.406,3.406,0,0,0,.488-.686,6,6,0,0,0,.527-1.19,3.561,3.561,0,0,0,.194-1.04.457.457,0,0,0-.079-.28.222.222,0,0,0-.187-.106m3.045-.922-.16,1.345c-.071.569-.132,1.073-.189,1.509s-.083.7-.091.8l-.041.63v.027c0,.138.132.221.4.248.027,0,.045.009.059.009a.234.234,0,0,1,.169.1.4.4,0,0,1,.066.242.985.985,0,0,1-.218.577,2.326,2.326,0,0,1-.634.564,4.185,4.185,0,0,1-1,.493,2.917,2.917,0,0,1-.946.186.87.87,0,0,1-.53-.145.7.7,0,0,1-.248-.447c-.013-.074-.025-.174-.039-.3-.029-.257-.081-.383-.164-.383-.063,0-.157.059-.28.182-.063.066-.116.115-.154.152a3.985,3.985,0,0,1-1.016.7,2.485,2.485,0,0,1-1.036.228,1.558,1.558,0,0,1-1.305-.6,2.677,2.677,0,0,1-.469-1.687,5.022,5.022,0,0,1,.3-1.695,6.058,6.058,0,0,1,.876-1.607,5.667,5.667,0,0,1,1.377-1.334,2.587,2.587,0,0,1,1.376-.486,2.153,2.153,0,0,1,1.126.333c.368.224.555.333.562.333.023,0,.227-.1.616-.3a2.423,2.423,0,0,1,1.1-.3.58.58,0,0,1,.388.1.44.44,0,0,1,.116.341,1.1,1.1,0,0,1,0,.111.3.3,0,0,1-.01.071m-12.456,5.29.162-1.048c.019-.123.081-.537.193-1.241s.211-1.353.3-1.948l.265-1.784c.017-.093.032-.208.054-.346.027-.172.041-.272.041-.3a.278.278,0,0,0-.052-.2.2.2,0,0,0-.166-.061,1.035,1.035,0,0,0-.156.027.7.7,0,0,1-.159.025.346.346,0,0,1-.273-.108.45.45,0,0,1-.1-.3.844.844,0,0,1,.172-.555,1.779,1.779,0,0,1,.636-.431,5.981,5.981,0,0,1,1.222-.4,6.128,6.128,0,0,1,1.295-.139.915.915,0,0,1,.557.13.512.512,0,0,1,.169.432c0,.041,0,.1-.007.19s-.022.191-.032.309l-.142,1.373c-.056.49-.123,1.02-.206,1.589s-.172,1.175-.275,1.818l-.216,1.333c-.012.088-.021.165-.028.231a1.663,1.663,0,0,0-.009.171.46.46,0,0,0,.059.27.234.234,0,0,0,.206.076.633.633,0,0,0,.149-.027.672.672,0,0,1,.145-.024.311.311,0,0,1,.253.109.489.489,0,0,1,.09.309,1.151,1.151,0,0,1-.182.621,2.033,2.033,0,0,1-.555.547,4.034,4.034,0,0,1-1.048.539,3.356,3.356,0,0,1-1.1.185,1.493,1.493,0,0,1-.972-.27.978.978,0,0,1-.321-.8c0-.028,0-.069.006-.113s.011-.11.021-.195m-4.19-4.547a.509.509,0,0,0-.329.135.827.827,0,0,0-.244.351,8.433,8.433,0,0,0-.357,1.5l-.014.083c-.064.355-.113.672-.152.954a6.1,6.1,0,0,0-.049.682.87.87,0,0,0,.113.475.366.366,0,0,0,.322.167.515.515,0,0,0,.375-.14,1.146,1.146,0,0,0,.253-.462,10.026,10.026,0,0,0,.363-1.532,9.161,9.161,0,0,0,.138-1.468,1.165,1.165,0,0,0-.1-.56.342.342,0,0,0-.317-.18m-4.351,3.116a4.4,4.4,0,0,1,.413-1.855,4.626,4.626,0,0,1,1.146-1.555,4.463,4.463,0,0,1,1.47-.885,5.066,5.066,0,0,1,1.762-.3,3.274,3.274,0,0,1,2.3.782,2.681,2.681,0,0,1,.859,2.091,4.617,4.617,0,0,1-.293,1.62,4.763,4.763,0,0,1-.836,1.428,4.234,4.234,0,0,1-1.519,1.146,4.76,4.76,0,0,1-1.943.39,3.659,3.659,0,0,1-2.455-.777,2.611,2.611,0,0,1-.91-2.091m-.9,1a.752.752,0,0,1-.133.4,1.677,1.677,0,0,1-.383.4,5.17,5.17,0,0,1-1.452.78,4.863,4.863,0,0,1-1.609.284A3.031,3.031,0,0,1,68,91.2a2.54,2.54,0,0,1-.769-1.961,4.512,4.512,0,0,1,.372-1.757,5.25,5.25,0,0,1,1.04-1.589,4.467,4.467,0,0,1,1.531-1.072,4.69,4.69,0,0,1,1.859-.364,2.272,2.272,0,0,1,1.58.532A1.821,1.821,0,0,1,74.2,86.4a1.737,1.737,0,0,1-.449,1.218,1.431,1.431,0,0,1-1.1.488.987.987,0,0,1-.712-.27.866.866,0,0,1-.279-.668,1.708,1.708,0,0,1,.1-.54,1.642,1.642,0,0,0,.11-.39.245.245,0,0,0-.243-.25c-.236,0-.468.284-.692.854a5.288,5.288,0,0,0-.332,1.953,2.015,2.015,0,0,0,.152.906.5.5,0,0,0,.471.287,1.385,1.385,0,0,0,.446-.084,4.1,4.1,0,0,0,.635-.309c.041-.022.1-.058.18-.1a1.616,1.616,0,0,1,.668-.282.478.478,0,0,1,.386.252.991.991,0,0,1,.173.581M59.934,83.688c-.087.02-.169.037-.25.05a1.446,1.446,0,0,1-.2.019.437.437,0,0,1-.38-.2.9.9,0,0,1-.142-.529.3.3,0,0,1,.123-.248,2.068,2.068,0,0,1,.542-.252l2.227-.8a.525.525,0,0,0,.05-.021,1.44,1.44,0,0,1,.4-.084c.126,0,.248.113.368.344a1.6,1.6,0,0,1,.178.741.285.285,0,0,1-.091.241,1.034,1.034,0,0,1-.368.147Zm-.684,2.419a.673.673,0,0,0-.456.271,4.364,4.364,0,0,0-.555.827,5.237,5.237,0,0,0-.449,1.065,3.326,3.326,0,0,0-.16.926.617.617,0,0,0,.074.319.216.216,0,0,0,.191.123.622.622,0,0,0,.416-.231,3.468,3.468,0,0,0,.486-.686,5.942,5.942,0,0,0,.527-1.19,3.569,3.569,0,0,0,.193-1.04.469.469,0,0,0-.076-.28.223.223,0,0,0-.189-.106m3.045-.922-.16,1.345c-.069.569-.131,1.073-.186,1.509s-.085.7-.095.8l-.039.63v.027c0,.138.134.221.4.248.025,0,.045.009.057.009a.233.233,0,0,1,.169.1.415.415,0,0,1,.066.242.987.987,0,0,1-.219.577,2.3,2.3,0,0,1-.63.564,4.265,4.265,0,0,1-1,.493,2.908,2.908,0,0,1-.945.186.876.876,0,0,1-.53-.145.692.692,0,0,1-.246-.447,2.871,2.871,0,0,1-.041-.3c-.027-.257-.079-.383-.162-.383-.065,0-.159.059-.281.182-.061.066-.116.115-.152.152a3.9,3.9,0,0,1-1.021.7,2.472,2.472,0,0,1-1.033.228,1.56,1.56,0,0,1-1.307-.6,2.686,2.686,0,0,1-.469-1.687,4.943,4.943,0,0,1,.3-1.695,5.9,5.9,0,0,1,.874-1.607,5.667,5.667,0,0,1,1.377-1.334,2.573,2.573,0,0,1,1.376-.486,2.147,2.147,0,0,1,1.123.333c.37.224.559.333.567.333s.226-.1.615-.3a2.431,2.431,0,0,1,1.1-.3.577.577,0,0,1,.387.1.436.436,0,0,1,.12.341.946.946,0,0,1,0,.111c0,.025-.01.053-.014.071M49.528,87.509l.21-1.148v-.052a.139.139,0,0,0-.085-.136.9.9,0,0,0-.322-.038h-.368a.234.234,0,0,1-.2-.12.643.643,0,0,1-.076-.343,1.22,1.22,0,0,1,.091-.5.755.755,0,0,1,.26-.333,1.491,1.491,0,0,1,.523-.2,1.172,1.172,0,0,0,.419-.144,2.634,2.634,0,0,0,.263-.657,1.973,1.973,0,0,1,.421-.807,1.565,1.565,0,0,1,.732-.333,5.052,5.052,0,0,1,1.194-.125.926.926,0,0,1,.474.081.331.331,0,0,1,.127.3,1.043,1.043,0,0,1-.014.146c-.01.075-.02.156-.034.245L53,84.248c-.01.045-.015.086-.022.123s0,.067,0,.094a.17.17,0,0,0,.089.157.623.623,0,0,0,.292.049c.027,0,.071,0,.135-.008s.111,0,.143,0l.4-.029h.052a.18.18,0,0,1,.14.042.231.231,0,0,1,.035.154,1.19,1.19,0,0,1-.008.13c-.007.052-.017.1-.025.16l-.064.564a1.121,1.121,0,0,1-.089.363.191.191,0,0,1-.164.105H53.9l-.4-.027c-.04,0-.1,0-.167-.006a1.345,1.345,0,0,0-.134-.007.727.727,0,0,0-.215.023.181.181,0,0,0-.111.074,2.113,2.113,0,0,0-.2.584,9.743,9.743,0,0,0-.193,1.042l-.1.893c-.013.091-.022.157-.025.2s0,.076,0,.108a.712.712,0,0,0,.083.386.273.273,0,0,0,.248.125,1.139,1.139,0,0,0,.442-.145,1.126,1.126,0,0,1,.461-.147.334.334,0,0,1,.283.174.731.731,0,0,1,.118.429.7.7,0,0,1-.137.4,2.329,2.329,0,0,1-.466.442,6.312,6.312,0,0,1-1.492.86,3.734,3.734,0,0,1-1.391.316,1.441,1.441,0,0,1-1.057-.34A1.394,1.394,0,0,1,49.1,90.5a19.994,19.994,0,0,1,.4-2.864ZM40.21,93.255l.31-.287a2.655,2.655,0,0,0,.5-.635,1.327,1.327,0,0,0,.166-.614c0-.078-.059-.155-.176-.233l-.14-.1a1.566,1.566,0,0,1-.444-.55,1.512,1.512,0,0,1-.155-.677A1.582,1.582,0,0,1,40.725,89a1.562,1.562,0,0,1,1.154-.459,1.386,1.386,0,0,1,1.093.5,1.9,1.9,0,0,1,.432,1.285,3.629,3.629,0,0,1-.331,1.454,6.59,6.59,0,0,1-.98,1.531,5.528,5.528,0,0,1-.692.706.875.875,0,0,1-.5.233A.761.761,0,0,1,40.378,94a.7.7,0,0,1-.259-.494.541.541,0,0,1,.03-.154.208.208,0,0,1,.062-.1m-8.6-4.448.209-1.2a2.51,2.51,0,0,0,.05-.321,3,3,0,0,0,.019-.307.305.305,0,0,0-.052-.2.7.7,0,0,0-.293-.122.771.771,0,0,1-.366-.174.444.444,0,0,1-.1-.312.827.827,0,0,1,.269-.544,2.788,2.788,0,0,1,.756-.545,5.286,5.286,0,0,1,1.109-.444,4.466,4.466,0,0,1,1.111-.149.967.967,0,0,1,.645.176.741.741,0,0,1,.193.58,13.505,13.505,0,0,1-.214,1.558l-.015.066L34.722,88.1c-.042.234-.07.418-.089.558a2.3,2.3,0,0,0-.03.316.546.546,0,0,0,.09.342.323.323,0,0,0,.268.116c.32,0,.586-.255.8-.768a12.852,12.852,0,0,0,.6-2.714,2.369,2.369,0,0,1,.164-.652.7.7,0,0,1,.253-.288,2.738,2.738,0,0,1,.805-.333,3.937,3.937,0,0,1,.987-.125,1.3,1.3,0,0,1,.725.162.566.566,0,0,1,.236.5,3.069,3.069,0,0,1-.045.417c-.03.192-.078.461-.143.8l-.225,1.2c-.08.41-.14.749-.18,1.02a4.188,4.188,0,0,0-.061.6.746.746,0,0,0,.033.268.125.125,0,0,0,.115.078,1.593,1.593,0,0,0,.221-.02c.09-.012.153-.02.189-.02a.375.375,0,0,1,.3.12.494.494,0,0,1,.1.326.9.9,0,0,1-.235.574,2.486,2.486,0,0,1-.682.554,4.812,4.812,0,0,1-1.139.5,3.938,3.938,0,0,1-1.128.18.834.834,0,0,1-.468-.1.8.8,0,0,1-.232-.407,4.01,4.01,0,0,1-.1-.425c-.05-.255-.122-.381-.222-.381a1.021,1.021,0,0,0-.468.267c-.113.1-.206.172-.28.226a4.647,4.647,0,0,1-1.079.619,2.983,2.983,0,0,1-1.062.2,1.272,1.272,0,0,1-.977-.377,1.484,1.484,0,0,1-.355-1.06,5,5,0,0,1,.047-.608c.029-.243.082-.56.157-.96m-4.419-2.88a.515.515,0,0,0-.33.135.847.847,0,0,0-.242.351,8.35,8.35,0,0,0-.359,1.5l-.011.083c-.065.355-.116.672-.15.954a5.764,5.764,0,0,0-.052.682.861.861,0,0,0,.113.475.368.368,0,0,0,.321.167.523.523,0,0,0,.377-.14,1.164,1.164,0,0,0,.251-.462,10.261,10.261,0,0,0,.363-1.532,9.452,9.452,0,0,0,.138-1.468,1.176,1.176,0,0,0-.1-.56.342.342,0,0,0-.316-.18M22.84,89.044a4.4,4.4,0,0,1,.412-1.855A4.652,4.652,0,0,1,24.4,85.634a4.455,4.455,0,0,1,1.472-.885,5.07,5.07,0,0,1,1.76-.3,3.279,3.279,0,0,1,2.307.782,2.685,2.685,0,0,1,.858,2.091,4.625,4.625,0,0,1-.29,1.62,4.837,4.837,0,0,1-.84,1.428,4.219,4.219,0,0,1-1.515,1.146,4.8,4.8,0,0,1-1.945.39,3.664,3.664,0,0,1-2.456-.777,2.616,2.616,0,0,1-.91-2.091m-4.577,1.431.161-1.048q.028-.185.19-1.241t.3-1.948l.266-1.784c.014-.093.029-.208.051-.346a2.812,2.812,0,0,0,.038-.3.3.3,0,0,0-.047-.2.208.208,0,0,0-.164-.061,1.031,1.031,0,0,0-.161.027.678.678,0,0,1-.158.025.353.353,0,0,1-.275-.108.46.46,0,0,1-.095-.3.85.85,0,0,1,.173-.555,1.741,1.741,0,0,1,.638-.431,5.9,5.9,0,0,1,1.222-.4,6.082,6.082,0,0,1,1.289-.139.916.916,0,0,1,.559.13.515.515,0,0,1,.17.432c0,.041,0,.1-.009.19s-.015.191-.03.309l-.142,1.373q-.082.735-.2,1.589c-.079.571-.174,1.175-.276,1.818l-.216,1.333c-.009.088-.022.165-.028.231s-.01.123-.01.171a.477.477,0,0,0,.058.27.242.242,0,0,0,.208.076.684.684,0,0,0,.15-.027.629.629,0,0,1,.143-.024.309.309,0,0,1,.253.109.475.475,0,0,1,.089.309,1.152,1.152,0,0,1-.183.621,2,2,0,0,1-.557.547,3.932,3.932,0,0,1-1.045.539,3.374,3.374,0,0,1-1.1.185,1.482,1.482,0,0,1-.97-.27.968.968,0,0,1-.321-.8.836.836,0,0,1,.006-.113c0-.047.01-.11.02-.195m-4.19-4.547a.511.511,0,0,0-.329.135.841.841,0,0,0-.244.351,8.589,8.589,0,0,0-.358,1.5l-.012.083c-.063.355-.114.672-.149.954a5.531,5.531,0,0,0-.051.682.866.866,0,0,0,.112.475.368.368,0,0,0,.321.167.526.526,0,0,0,.379-.14,1.164,1.164,0,0,0,.252-.462,10.706,10.706,0,0,0,.362-1.532,9.34,9.34,0,0,0,.139-1.468,1.156,1.156,0,0,0-.105-.56.343.343,0,0,0-.316-.18M9.72,89.044a4.4,4.4,0,0,1,.414-1.855,4.643,4.643,0,0,1,1.145-1.555,4.519,4.519,0,0,1,1.473-.885,5.072,5.072,0,0,1,1.76-.3,3.285,3.285,0,0,1,2.308.782,2.692,2.692,0,0,1,.858,2.091,4.629,4.629,0,0,1-.294,1.62,4.769,4.769,0,0,1-.838,1.428,4.216,4.216,0,0,1-1.518,1.146,4.772,4.772,0,0,1-1.944.39,3.661,3.661,0,0,1-2.455-.777,2.616,2.616,0,0,1-.91-2.091M.6,88.08a6.5,6.5,0,0,1,.391-2.221,6.9,6.9,0,0,1,1.14-2.009,5.961,5.961,0,0,1,1.817-1.534,4.358,4.358,0,0,1,2.07-.537,4.52,4.52,0,0,1,1.728.344,1.084,1.084,0,0,0,.148.049.489.489,0,0,0,.152-.088A.417.417,0,0,1,8.272,82c.3,0,.608.233.922.693a2.553,2.553,0,0,1,.477,1.47,1.636,1.636,0,0,1-.331,1.055,1.052,1.052,0,0,1-.852.405.973.973,0,0,1-.583-.186,1.884,1.884,0,0,1-.5-.595c-.034-.062-.085-.152-.148-.268-.287-.541-.6-.812-.929-.812-.53,0-.991.37-1.388,1.114a5.725,5.725,0,0,0-.593,2.72A2.534,2.534,0,0,0,4.7,89.051a1.138,1.138,0,0,0,1.006.505,1.606,1.606,0,0,0,.751-.2,3.371,3.371,0,0,0,.792-.613c.09-.086.21-.218.358-.392q.523-.61.91-.611a.6.6,0,0,1,.5.292,1.348,1.348,0,0,1,.2.758,2.394,2.394,0,0,1-.1.658,3.017,3.017,0,0,1-.3.668,2.612,2.612,0,0,1-.461.589c-.173.162-.3.243-.39.243a.776.776,0,0,1-.137-.014,1.108,1.108,0,0,0-.118-.015.9.9,0,0,0-.345.184,4.956,4.956,0,0,1-.451.277,4.856,4.856,0,0,1-1.152.439,5.1,5.1,0,0,1-1.259.152A3.839,3.839,0,0,1,1.668,90.9,3.818,3.818,0,0,1,.6,88.08" transform="translate(-0.305 -41.709)" fill="#848484" fill-rule="evenodd"/><path d="M222.65,93.273a1.563,1.563,0,0,1,.464-1.145,1.525,1.525,0,0,1,1.132-.471,1.5,1.5,0,0,1,1.121.471,1.574,1.574,0,0,1,.459,1.145,1.539,1.539,0,0,1-.458,1.134,1.5,1.5,0,0,1-1.123.466,1.585,1.585,0,0,1-1.6-1.6m-4.087-4.384a.513.513,0,0,0-.329.135.811.811,0,0,0-.242.351,8.437,8.437,0,0,0-.359,1.5l-.013.083c-.064.354-.115.672-.151.954a6.4,6.4,0,0,0-.051.682.873.873,0,0,0,.113.475.369.369,0,0,0,.322.167.523.523,0,0,0,.377-.14,1.143,1.143,0,0,0,.251-.463,10.547,10.547,0,0,0,.362-1.531,9.293,9.293,0,0,0,.14-1.468,1.19,1.19,0,0,0-.1-.561.345.345,0,0,0-.317-.18m-4.353,3.116a4.375,4.375,0,0,1,.416-1.855,4.605,4.605,0,0,1,1.146-1.555,4.456,4.456,0,0,1,1.472-.884,5.045,5.045,0,0,1,1.761-.3,3.28,3.28,0,0,1,2.306.782,2.686,2.686,0,0,1,.857,2.091,4.62,4.62,0,0,1-.293,1.62,4.732,4.732,0,0,1-.837,1.428,4.217,4.217,0,0,1-1.514,1.146,4.773,4.773,0,0,1-1.945.39,3.664,3.664,0,0,1-2.456-.777,2.619,2.619,0,0,1-.911-2.091" transform="translate(-109.465 -44.671)" fill="#848484" fill-rule="evenodd"/></g></svg>