<svg xmlns="http://www.w3.org/2000/svg" xmlns:xlink="http://www.w3.org/1999/xlink" width="140.04" height="47.006" viewBox="0 0 140.04 47.006"><defs><clipPath id="a"><rect width="140.04" height="47.006" fill="#848484"/></clipPath></defs><g clip-path="url(#a)"><path d="M196.306,137.246a2.125,2.125,0,0,0-.506.072,2.638,2.638,0,0,0-1.734,1.156,5.067,5.067,0,0,0-.867,3,2.8,2.8,0,0,0,.542,1.843,1.791,1.791,0,0,0,1.517.687,2.793,2.793,0,0,0,.542-.072,2.586,2.586,0,0,0,1.7-1.192,5.272,5.272,0,0,0,.9-3.107,2.493,2.493,0,0,0-.578-1.77,1.958,1.958,0,0,0-1.517-.614" transform="translate(-149.662 -106.318)" fill="#848484" fill-rule="evenodd"/><path d="M264.088,55.456v-.144a.394.394,0,0,0,.036-.181,2.376,2.376,0,0,0-.47-1.517,1.664,1.664,0,0,0-1.3-.542h-.361a2.208,2.208,0,0,0-1.265.614,3.02,3.02,0,0,0-.831,1.771h4.191Z" transform="translate(-201.33 -41.112)" fill="#848484" fill-rule="evenodd"/><path d="M126.016,147.941a1.625,1.625,0,0,0-1.012-.4c-.108,0-.253-.036-.4-.036h-2.6l-.795,3.758h1.77a7.886,7.886,0,0,0,2.023-.181,4.365,4.365,0,0,0,.687-.289,1.834,1.834,0,0,0,.795-1.662,1.407,1.407,0,0,0-.47-1.192" transform="translate(-93.897 -114.267)" fill="#848484" fill-rule="evenodd"/><path d="M357.049,153.91c-1.265.253-1.915.759-1.915,1.554a1.232,1.232,0,0,0,.4.9,1.351,1.351,0,0,0,.939.325,2.909,2.909,0,0,0,.578-.036,1.751,1.751,0,0,0,1.048-.65,5.364,5.364,0,0,0,.867-2.565,11.453,11.453,0,0,1-1.77.434c-.036,0-.072.036-.144.036" transform="translate(-275.106 -118.863)" fill="#848484" fill-rule="evenodd"/><path d="M131.8,121.822a2.5,2.5,0,0,0-1.373-.289h-2.312l-.65,3.071H129.2c.253,0,.434-.036.65-.036a3.819,3.819,0,0,0,1.734-.4,1.466,1.466,0,0,0,.65-1.373,1.141,1.141,0,0,0-.434-.976" transform="translate(-98.741 -94.146)" fill="#848484" fill-rule="evenodd"/><path d="M43.665,0,27.417,10.573v2.708L47.771,0Z" transform="translate(-21.239)" fill="#848484" fill-rule="evenodd"/><path d="M37.408,0l-9.99,6.486V8.548L40.51,0Z" transform="translate(-21.239)" fill="#848484" fill-rule="evenodd"/><path d="M50.928,0,27.417,15.341v2.674L55.068,0Z" transform="translate(-21.239)" fill="#848484" fill-rule="evenodd"/><path d="M387.5,71.018h-.144c-1.265.253-1.915.795-1.915,1.553a1.175,1.175,0,0,0,.4.9,1.225,1.225,0,0,0,.939.361,2.783,2.783,0,0,0,.578-.072,1.688,1.688,0,0,0,1.048-.65,5.071,5.071,0,0,0,.867-2.565,8.035,8.035,0,0,1-1.77.47" transform="translate(-298.58 -54.65)" fill="#848484" fill-rule="evenodd"/><path d="M551.853,153.91c-1.265.253-1.915.759-1.915,1.554a1.352,1.352,0,0,0,.361.9,1.446,1.446,0,0,0,.976.325,2.909,2.909,0,0,0,.578-.036,1.864,1.864,0,0,0,1.048-.65,6.284,6.284,0,0,0,.867-2.565,12.671,12.671,0,0,1-1.771.434c-.036,0-.108.036-.144.036" transform="translate(-426.012 -118.863)" fill="#848484" fill-rule="evenodd"/><path d="M474.712,62.207a1.4,1.4,0,0,0,.542-.072,2.58,2.58,0,0,0,1.445-1.084,5.081,5.081,0,0,0,.831-2.927,2.6,2.6,0,0,0-.47-1.59,1.77,1.77,0,0,0-1.337-.578,1.844,1.844,0,0,0-.47.072,2.424,2.424,0,0,0-1.481,1.12,5.109,5.109,0,0,0-.795,2.963,2.414,2.414,0,0,0,.434,1.554,1.566,1.566,0,0,0,1.3.542" transform="translate(-366.394 -43.347)" fill="#848484" fill-rule="evenodd"/><path d="M535.745,73.113a5.075,5.075,0,0,0,.867-2.565,8.634,8.634,0,0,1-1.77.47H534.7c-1.264.253-1.915.795-1.915,1.554a1.3,1.3,0,0,0,1.337,1.265,2.8,2.8,0,0,0,.578-.072,1.693,1.693,0,0,0,1.048-.65" transform="translate(-412.722 -54.65)" fill="#848484" fill-rule="evenodd"/><path d="M133.862,0H44.249L6.178,24.808v2.65a9.863,9.863,0,0,1-2.6,4.048C1.807,33.493,0,35.517,0,38.949a8.277,8.277,0,0,0,2.168,5.637,7.262,7.262,0,0,0,5.311,2.421A7.176,7.176,0,0,0,12.4,44.983H133.862a6.109,6.109,0,0,0,6.178-5.962V5.962A6.086,6.086,0,0,0,133.862,0M79.595,9.9l-.542,2.71A5.5,5.5,0,0,1,80.679,10.3a4.2,4.2,0,0,1,2.457-.722.327.327,0,0,1,.181.036H83.5l-.181.795L82.7,13.368a2.073,2.073,0,0,0-.506-.145,2.792,2.792,0,0,0-.542-.072,2.611,2.611,0,0,0-2.132.9A9.659,9.659,0,0,0,78.258,17.6l-.795,3.794H73.705L76.162,9.9ZM70.562,5.709H74.32l-.614,2.927H69.948ZM69.695,9.9h3.721L71,21.389H67.238ZM7.479,45.127a6.124,6.124,0,0,1-5.853-6.4c0-5.383,5.853-6.865,5.853-11.742,0,4.661,5.853,6.865,5.853,11.742a6.124,6.124,0,0,1-5.853,6.4m29.157-14.38a3.918,3.918,0,0,1-2.059,1.409,3.08,3.08,0,0,1,1.373,1.156,3.377,3.377,0,0,1,.506,1.915,4.73,4.73,0,0,1-.434,2.023,3.936,3.936,0,0,1-1.265,1.59,4.627,4.627,0,0,1-1.987.939A9.324,9.324,0,0,1,31.108,40c-.506.036-1.084.036-1.734.036H22.958L26.194,24.5h6.25a5.9,5.9,0,0,1,3.685.976A3.477,3.477,0,0,1,37.359,28.4a3.71,3.71,0,0,1-.722,2.348m13.91,7.8a6.609,6.609,0,0,1-4.408,1.915h-.614a5.8,5.8,0,0,1-4.191-1.445,5.012,5.012,0,0,1-1.554-3.9,6.924,6.924,0,0,1,1.915-5.058,6.624,6.624,0,0,1,4.444-1.915c.181,0,.361-.036.542-.036a5.845,5.845,0,0,1,4.227,1.481,5.12,5.12,0,0,1,1.554,3.974,6.726,6.726,0,0,1-1.915,4.986M53.8,9H47.692l-.65,3.143h5.636l-.65,3.18H46.319l-1.265,6.07H40.938L44.4,5.817h10.08Zm9.9,23.051a2.091,2.091,0,0,0-.506-.181,2.723,2.723,0,0,0-.542-.036,2.573,2.573,0,0,0-2.1.867,9.3,9.3,0,0,0-1.337,3.577l-.8,3.758H54.7l2.421-11.49H60.59l-.542,2.71a5.14,5.14,0,0,1,1.626-2.276,3.956,3.956,0,0,1,2.457-.723h.181a.324.324,0,0,1,.181.036Zm.036-11.381a5.868,5.868,0,0,1-3.071,1.012,3.114,3.114,0,0,1-.578.036,5.429,5.429,0,0,1-4.01-1.481,5.41,5.41,0,0,1-1.445-4.01,6.841,6.841,0,0,1,1.806-4.805A6.536,6.536,0,0,1,60.851,9.5c.108,0,.064,0,.173,0A5.268,5.268,0,0,1,65,10.948a5.425,5.425,0,0,1,1.409,4.011c0,.217-.036.506-.036.759-.036.289-.072.614-.144.976H58.314v.4a2.158,2.158,0,0,0,.434,1.445,1.668,1.668,0,0,0,1.337.506A2.926,2.926,0,0,0,60.662,19a2.5,2.5,0,0,0,.542-.253,1.938,1.938,0,0,0,.722-.795h3.9a4.713,4.713,0,0,1-2.1,2.71m10.8,11.381a3.186,3.186,0,0,0-.542-.181,2.724,2.724,0,0,0-.542-.036,2.573,2.573,0,0,0-2.1.867,8.822,8.822,0,0,0-1.3,3.577l-.795,3.758H65.5l2.457-11.49h3.432l-.542,2.71a4.926,4.926,0,0,1,1.662-2.276,3.888,3.888,0,0,1,2.457-.723h.144a.325.325,0,0,1,.181.036Zm13.44.289c-.036.181-.072.361-.108.506l-1.048,5.275c-.036.108-.036.217-.072.325v.4a1.071,1.071,0,0,0,.072.506.852.852,0,0,0,.217.325v.361H83.388V38.84a4.979,4.979,0,0,1-1.445,1.012.514.514,0,0,1-.217.072,4.906,4.906,0,0,1-1.915.4,3.437,3.437,0,0,1-2.493-.939,3.379,3.379,0,0,1-.939-2.493,3.254,3.254,0,0,1,1.084-2.637,5.644,5.644,0,0,1,3.252-1.229c.325-.036.722-.072,1.228-.108h.072c1.554-.144,2.348-.578,2.348-1.264a1,1,0,0,0-.4-.759,1.682,1.682,0,0,0-1.012-.289,2.812,2.812,0,0,0-1.012.181c-.036.036-.072.072-.108.072a1.588,1.588,0,0,0-.614.867h-3.5a4.464,4.464,0,0,1,1.734-2.71,5.817,5.817,0,0,1,2.493-.831c.361-.036.759-.072,1.156-.072a5.957,5.957,0,0,1,3.613.976,3.173,3.173,0,0,1,1.264,2.637Zm.8-11.164-.217.108a4.884,4.884,0,0,1-1.915.361,3.379,3.379,0,0,1-2.529-.939,3.417,3.417,0,0,1-.795-1.3,4.149,4.149,0,0,1-.145-1.192,4.149,4.149,0,0,1,.145-1.192,3.178,3.178,0,0,1,.9-1.445,6.3,6.3,0,0,1,3.324-1.192c.325-.036.723-.072,1.229-.144h.072c1.554-.145,2.349-.542,2.349-1.229a.9.9,0,0,0-.4-.759,1.469,1.469,0,0,0-1.012-.289,2.2,2.2,0,0,0-1.012.181c-.036,0-.072.036-.108.072a1.631,1.631,0,0,0-.614.831H84.508a4.18,4.18,0,0,1,1.77-2.674,5.817,5.817,0,0,1,2.493-.831c.361-.036.759-.072,1.156-.072a6.218,6.218,0,0,1,3.613.939,3.241,3.241,0,0,1,1.264,2.674v.614c-.036.181-.072.325-.108.47l-1.084,5.275c0,.108-.036.253-.036.361v.4a.92.92,0,0,0,.072.47.749.749,0,0,0,.217.361v.361H90.217V20.2a5.646,5.646,0,0,1-1.445.976M95.275,37a1.538,1.538,0,0,0,1.264.542,1.607,1.607,0,0,0,1.192-.47,2.308,2.308,0,0,0,.723-1.265h3.793a4.932,4.932,0,0,1-1.915,3.324,6.184,6.184,0,0,1-3.974,1.3,5.108,5.108,0,0,1-3.9-1.409,5.689,5.689,0,0,1-1.373-4.083,6.942,6.942,0,0,1,1.77-4.841,5.993,5.993,0,0,1,4.588-1.879,5.415,5.415,0,0,1,3.758,1.228,4.3,4.3,0,0,1,1.373,3.36H98.852a2.349,2.349,0,0,0-.434-1.337,1.449,1.449,0,0,0-1.156-.506c-.687,0-1.228.434-1.7,1.265a6.419,6.419,0,0,0-.723,3.143A2.638,2.638,0,0,0,95.275,37m8.563-16.475a5.215,5.215,0,0,1-1.084-3.5,8.614,8.614,0,0,1,1.662-5.384A5.122,5.122,0,0,1,108.571,9.5h.289a3.656,3.656,0,0,1,1.7.578,4.078,4.078,0,0,1,1.3,1.734l1.264-6h3.758l-.253,1.192-3.071,14.38h-3.541l.325-1.481a5.139,5.139,0,0,1-1.481,1.337c-.036,0-.072.036-.108.072a4.6,4.6,0,0,1-1.987.47,3.594,3.594,0,0,1-2.927-1.265m13.765,12a7.184,7.184,0,0,1-.217,1.156l-1.337,6.359h-3.721l1.265-6.07c.072-.325.108-.614.144-.867.036-.289.072-.47.072-.578a1.419,1.419,0,0,0-.325-1.012,1.235,1.235,0,0,0-.939-.325,2.274,2.274,0,0,0-1.734.759,4.206,4.206,0,0,0-1.012,2.132l-1.265,5.962h-3.757L108.1,24.5h3.721l-1.264,5.672a5.484,5.484,0,0,1,1.77-1.445,4.163,4.163,0,0,1,1.987-.506,3.49,3.49,0,0,1,2.493.867,3.222,3.222,0,0,1,.867,2.385,5.47,5.47,0,0,1-.072,1.048M117.314,20.7a2.937,2.937,0,0,1-.687-1.048,3.567,3.567,0,0,1-.253-1.445,3.684,3.684,0,0,1,.253-1.445,3.014,3.014,0,0,1,.795-1.192,6.3,6.3,0,0,1,3.324-1.192c.325-.036.723-.072,1.228-.144h.036c1.59-.145,2.348-.542,2.348-1.229a.865.865,0,0,0-.361-.759,1.529,1.529,0,0,0-1.012-.289,2.207,2.207,0,0,0-1.012.181c-.036,0-.072.036-.144.072a1.808,1.808,0,0,0-.578.831h-3.541a4.18,4.18,0,0,1,1.771-2.674,5.818,5.818,0,0,1,2.493-.831c.361-.036.759-.072,1.156-.072a6.018,6.018,0,0,1,3.577.939,3.176,3.176,0,0,1,1.3,2.674,3.293,3.293,0,0,1-.036.614,1.833,1.833,0,0,1-.072.47l-1.084,5.275c0,.108-.036.253-.036.361v.4a1.769,1.769,0,0,0,.036.47,1.289,1.289,0,0,0,.253.361v.361H123.42V20.2a6.349,6.349,0,0,1-1.445.976l-.217.108a5.008,5.008,0,0,1-1.915.361,3.379,3.379,0,0,1-2.529-.939m14.524,11.634a2.126,2.126,0,0,1-.072.506l-1.084,5.275c0,.108-.036.217-.036.325,0,.144-.036.289-.036.4a1.886,1.886,0,0,0,.072.506,1.99,1.99,0,0,0,.253.325v.361H127.25V38.84a5.346,5.346,0,0,1-1.409,1.012.515.515,0,0,1-.217.072,5.086,5.086,0,0,1-1.951.4,3.437,3.437,0,0,1-2.493-.939,3.242,3.242,0,0,1-.939-2.493,3.232,3.232,0,0,1,1.048-2.637,6.006,6.006,0,0,1,3.324-1.229c.289-.036.722-.072,1.228-.108h.036c1.59-.144,2.349-.578,2.349-1.264a.955.955,0,0,0-.361-.759,1.849,1.849,0,0,0-1.012-.289,2.667,2.667,0,0,0-1.012.181.274.274,0,0,1-.145.072,1.544,1.544,0,0,0-.578.867h-3.541a4.216,4.216,0,0,1,1.77-2.71,5.5,5.5,0,0,1,2.493-.831,10.9,10.9,0,0,1,1.12-.072,5.884,5.884,0,0,1,3.613.976,3.531,3.531,0,0,1,1.265,3.252" fill="#848484" fill-rule="evenodd"/><path d="M40.532.939,40.568,0,27.417,8.563l.867.361Z" transform="translate(-21.239 0)" fill="#848484" fill-rule="evenodd"/><path d="M47.831.939V0L27.417,13.3l.867.361Z" transform="translate(-21.239 0)" fill="#848484" fill-rule="evenodd"/><path d="M55.092.939V0L27.417,18.029l.867.361Z" transform="translate(-21.239 0)" fill="#848484" fill-rule="evenodd"/><path d="M28.284,23.124,62.355.94,62.391,0,39.967,14.594,62.331,0H58.226L27.417,20.075v2.709l.021-.013Z" transform="translate(-21.239 0)" fill="#848484" fill-rule="evenodd"/><path d="M13.284,173.082a4.828,4.828,0,0,1,0-.723h-.939v.4a4.827,4.827,0,0,0,3.5,4.733,5.131,5.131,0,0,1-2.565-4.408" transform="translate(-9.563 -133.519)" fill="#848484" fill-rule="evenodd"/></g></svg>