<svg xmlns="http://www.w3.org/2000/svg" xmlns:xlink="http://www.w3.org/1999/xlink" width="135.896" height="62.773" viewBox="0 0 135.896 62.773"><defs><clipPath id="a"><rect width="135.896" height="62.773" fill="#848484"/></clipPath></defs><g clip-path="url(#a)"><path d="M32.669,31.386l.013.231.015.226.02.223.024.22.03.216.032.212.039.208.042.2.048.2.05.2.055.193.058.191.063.186.068.182.071.179.076.177.084.173.084.169.09.166.092.161.1.159.1.156.107.151.109.149.115.147.12.141.124.14.127.137.135.133.136.131.14.127.145.122.149.118.152.115.154.11.16.109.162.1.168.1.17.1.174.09.174.088.184.084.185.077.188.077.193.07.195.068.2.063.2.059.207.055.213.052.215.046.218.043.224.039.227.035.23.031.235.027.24.022.243.019.247.015.249.011.254.007H41.5l.252-.007L42,38.8l.245-.015.24-.019.235-.022.234-.028.228-.031.226-.035.22-.039.217-.042.215-.048.209-.051.206-.056.2-.059.2-.064.2-.068.191-.072.188-.075.182-.08.181-.084.176-.087.174-.091.17-.1.164-.1.163-.1.159-.108.154-.111.152-.116.148-.119.146-.123.141-.129.14-.131.132-.134.128-.138.127-.14.118-.145.115-.147.112-.151.107-.152.1-.157.1-.159.094-.163.091-.167.084-.169.08-.173.079-.177.071-.179.068-.184.063-.186.06-.19.055-.195.05-.2.046-.2.043-.2.037-.207.032-.212.029-.216.024-.219.021-.222.016-.228.01-.229.008-.233,0-.239V20.862H46.112V31.028l0,.139L46.1,31.3l-.008.135-.01.133-.013.131-.015.129-.016.127-.02.127L46,32.208l-.023.121-.026.121-.029.118-.03.116-.035.115-.034.113-.038.111-.041.109-.042.108-.047.1-.047.1-.052.1-.05.1-.057.1-.057.1-.059.095-.063.091-.065.09-.068.086-.068.085-.073.082-.076.082-.078.079-.079.076-.081.074-.084.071-.085.067-.09.066-.089.063-.093.06-.094.059-.1.055-.1.053-.1.051-.1.048-.1.045-.107.042-.105.041-.111.037-.112.035-.112.032-.115.03-.115.028-.116.026-.12.021-.121.021-.121.018-.126.015-.126.013-.126.01-.129.009-.132.005-.133,0h-.272l-.137,0-.135-.005-.135-.009-.132-.012-.129-.014-.128-.017-.126-.018-.124-.021-.124-.025-.12-.027-.118-.027-.116-.035-.115-.034-.114-.037-.112-.041-.109-.043-.107-.046-.105-.049-.1-.052-.1-.054-.1-.058-.1-.06-.1-.063-.092-.065-.089-.069-.088-.07-.084-.075L38.23,34.6l-.078-.08-.079-.082L38,34.355l-.071-.085-.071-.089-.068-.091L37.72,34l-.063-.1-.059-.1-.06-.1-.055-.1-.053-.106-.05-.109-.049-.11-.046-.112-.042-.115-.042-.117-.039-.119-.038-.122-.032-.123-.032-.126-.031-.128L37,32.178l-.026-.132-.021-.135-.021-.137-.018-.138L36.9,31.5l-.015-.143-.013-.146-.008-.146-.009-.15,0-.151,0-.154,0-.154v-9.59H32.661v10.29Zm103.225,1.723,0-.1-.009-.095-.008-.1-.012-.093-.011-.093-.015-.09-.016-.091-.02-.09-.019-.089-.023-.087-.022-.087-.026-.085-.027-.085-.031-.084-.031-.084-.034-.082-.034-.081-.037-.08-.041-.079-.04-.08-.042-.077-.044-.078-.047-.076-.051-.077-.049-.076-.053-.074-.056-.073-.057-.073-.058-.073-.06-.07-.063-.071-.066-.073-.071-.072-.075-.074-.081-.076-.084-.075-.087-.077-.093-.076-.1-.079-.1-.079-.106-.079-.11-.08-.112-.081-.119-.081-.122-.082-.126-.082-.13-.084-.135-.084L133,29.127l-.143-.085-.147-.087-.151-.086-.156-.086-.159-.088-.164-.088-.168-.088-.173-.088-.176-.089-.179-.091-.185-.089-.189-.091-.193-.092-2.513-1.184-.095-.044-.095-.046-.093-.046-.092-.051-.088-.049-.084-.05-.083-.053L127.6,26.4l-.077-.054-.073-.054-.074-.057-.068-.057-.066-.058-.065-.06L127.114,26l-.064-.066-.107-.128-.093-.137-.084-.143-.069-.147-.055-.152-.04-.156-.024-.16-.008-.156,0-.116.009-.108.017-.108.023-.106.03-.1.037-.1.043-.1.049-.094.058-.091.062-.088.07-.085.074-.079.079-.075.085-.071.088-.066.095-.064.1-.059.1-.055.106-.049.107-.047.11-.041.114-.038.116-.034.12-.03.123-.026.126-.023.127-.019.133-.015.134-.013.138-.008.14-.005.144,0,.134,0,.14.007.142.009.144.014.146.016.151.021.151.024.154.028.157.032.161.034.163.04.168.042.166.045.174.049.175.054.177.057.093.03.088.03.09.03.091.033.091.032.093.032.091.034.092.036.09.036.092.036.095.037.092.037.092.038.095.04.093.04.095.04.095.042.093.043.1.042.1.045.093.043.1.046.1.046.1.046.1.047.04.021V21.067l-.081-.023-.1-.027-.1-.027-.1-.026-.1-.026-.1-.026-.092-.024-.1-.024-.094-.023-.092-.024-.092-.023-.091-.023-.093-.021-.091-.023-.09-.02-.088-.02-.088-.02-.089-.021-.087-.018-.087-.018-.087-.018-.085-.018-.086-.018-.084-.015-.084-.017-.084-.015-.081-.015-.083-.015-.08-.013-.162-.028-.162-.024-.159-.024-.157-.021-.157-.02-.153-.018-.149-.017-.154-.015-.148-.013-.148-.01-.146-.01-.144-.009-.141-.006-.141,0-.139,0h-.324l-.182,0-.18.007-.18.009-.177.012-.174.015-.171.016-.169.021-.168.023-.164.024-.162.027-.16.03-.157.033-.156.034-.152.039-.151.04-.15.043-.146.045-.142.048-.14.049-.14.054-.136.055-.135.058-.133.06-.131.064-.126.066-.127.067-.123.072-.121.073-.118.076-.116.079-.115.082-.112.082-.109.085-.106.085-.1.086-.1.087-.093.088-.089.09-.086.09-.081.092-.076.094-.075.093-.071.1-.065.1-.064.1-.06.1-.057.1-.052.1-.048.1-.045.1-.044.106-.039.106-.034.109-.034.109-.027.11-.026.112-.022.116-.018.115-.016.116-.013.119-.008.12,0,.124v.216l0,.093,0,.091.006.089.009.09.009.089.012.088.015.088.015.086.016.087.02.086.021.084.022.084.023.083.027.082.027.083.029.081.032.08.034.081.034.08.038.079.038.08.039.077.045.078.043.076.045.077.051.077.048.075.052.075.054.075.057.075.057.073.06.073.061.073.065.073.066.074.068.071.07.072.073.071.074.072.076.071.078.07.082.07.084.071.085.07.088.069.09.068.091.07.094.068.1.067.1.068.1.066.1.066.105.066.107.066.11.065.111.066.114.063.117.065.118.063.121.063.121.063.126.062.127.062,1.453.694.07.037.07.036.077.037.085.043.192.093.1.052.114.055.18.088.176.088.169.088.163.088.159.09.155.086.147.088.145.086.137.087.133.088.126.086.124.086.116.086.113.086.105.087.1.088.1.086.091.087.087.088.082.088.074.09.071.091.063.091.06.093.054.1.048.1.041.1.036.1.027.1.019.1.014.1,0,.1,0,.127-.014.124-.019.124-.03.12-.039.117-.046.116-.055.112-.062.105-.07.1-.079.1-.084.095-.091.09-.1.087-.1.082-.11.077-.115.073-.12.07-.122.065-.127.06-.132.057-.137.051-.139.046-.142.04-.145.038-.151.031-.153.027-.157.024-.161.02-.163.015-.168.01-.174.005-.172,0-.174,0-.175-.006-.176-.007-.174-.013-.175-.015-.176-.018-.177-.023-.175-.025-.179-.029-.177-.032-.176-.036-.179-.039-.179-.042-.18-.047-.18-.049-.178-.052-.091-.027-.091-.029-.092-.03-.095-.03-.1-.034-.1-.034-.1-.035-.1-.036-.1-.038-.1-.038-.1-.04-.1-.039-.1-.043-.1-.043-.107-.045-.107-.045-.107-.049-.11-.047-.11-.05-.112-.049-.112-.052-.113-.054-.116-.052-.115-.057-.118-.055-.116-.059-.024-.012.334,3.775.013,0,.1.027.1.026.1.024.1.026.1.024.1.024.1.023.1.023.1.023.1.022.1.022.1.021.1.021.1.02.094.021.094.019.094.019.093.018.093.018.09.018.091.018.088.016.09.016.089.015.09.015.087.015.088.015.086.013.086.013.171.026.172.023.169.023.165.02.165.019.164.016.162.016.16.015.157.012.155.012.154.008.154.009.151,0,.149,0,.147,0h.36l.211-.005.207-.007.2-.01.2-.013.2-.018.2-.02.191-.023.19-.026.188-.03.184-.032.182-.035.179-.038.175-.041.175-.044.17-.048.165-.049.163-.054.165-.056.157-.059.157-.062.152-.065.151-.069.147-.07.145-.074.143-.077.14-.079.135-.082.135-.087.133-.088.128-.091.127-.095.122-.1.118-.1.115-.1.11-.1.107-.1.1-.1.1-.107.094-.107.09-.11.086-.112.082-.113.078-.113.074-.118.07-.118.066-.121.061-.121.06-.123.055-.126.051-.127.048-.13.044-.131.038-.133.038-.135.032-.137.029-.139.025-.141.021-.145.018-.144.013-.148.01-.149.007-.153v-.252ZM100.5,20.862H96.653V31.389L82.807,20.337l0,17.89h3.842V27.806l13.852,11Zm5.337,17.354,5.975-10.329,5.975,10.329h4.391L111.809,20.294,101.442,38.216Zm-43.217.731,6.633-9.734,2.077,9.015H75L70.8,20.44l-8.187,12.07L54.432,20.44,50.24,38.227h3.668l2.077-9.015Zm-45.084-.731L23.51,27.886l5.973,10.329h4.391L23.51,20.294,13.142,38.216ZM80.874,20.862H76.63V38.227h4.244ZM10.008,37.719l.184-.052.18-.054.175-.057.171-.057.166-.063.162-.062.156-.065.154-.068.148-.071.144-.072.139-.075.135-.076.131-.078.125-.082L12.3,36.7l.116-.085.114-.088.107-.088.106-.091.1-.094.1-.093.09-.1.087-.1.081-.1.078-.1.075-.1.069-.107.065-.109.062-.111.058-.114.054-.116.05-.118.045-.121.042-.123.037-.126.036-.129.029-.131.027-.134.021-.137.02-.138.013-.143.011-.145.007-.148v-.247l0-.1-.006-.094-.007-.094-.008-.091-.012-.091-.013-.09-.015-.089-.015-.087-.018-.087-.021-.084-.021-.084-.024-.084-.027-.082-.026-.08-.03-.08-.03-.08-.034-.078-.035-.077-.037-.076-.039-.076-.042-.074-.042-.074-.046-.071-.048-.073-.049-.073-.052-.07-.052-.068-.056-.07-.057-.068-.062-.066L13,30.788l-.063-.066-.065-.065-.066-.063-.068-.061-.07-.06-.07-.059-.073-.057-.073-.056-.076-.055-.078-.053-.078-.052-.08-.049-.083-.05-.082-.049-.084-.046L11.8,29.9l-.089-.043a11.374,11.374,0,0,0-3.206-.823,10.913,10.913,0,0,0,3.218-1.223l.141-.091L12,27.624l.126-.1.118-.1.114-.1.106-.1.1-.106.092-.109.087-.112.079-.113.075-.117.068-.119.063-.122.055-.124.05-.126.046-.131.039-.133.032-.138.026-.14.023-.145.015-.146.01-.152,0-.157,0-.128-.005-.128-.008-.126-.012-.122-.014-.121-.02-.118-.023-.113-.024-.114-.028-.11-.03-.108-.035-.106-.038-.1-.042-.1-.043-.1-.048-.1-.051-.1-.054-.092-.057-.093-.062-.089-.063-.088L12.6,22.8l-.071-.084-.075-.084-.077-.08L12.3,22.47l-.084-.078-.09-.076-.092-.074-.1-.073-.1-.07-.1-.07-.109-.066-.11-.067-.115-.063-.12-.062-.123-.059-.126-.059L10.9,21.6l-.134-.054-.138-.052-.141-.049-.145-.049-.149-.048-.152-.043-.157-.043-.16-.04-.165-.038-.168-.037-.171-.033-.177-.032-.18-.029-.183-.029L8.489,21,8.3,20.972l-.193-.02-.2-.02-.2-.016L7.5,20.9l-.209-.013-.214-.01-.218-.008-.22,0-.226,0-.227,0H0V38.227H5.373l.276,0,.27,0,.264-.006.261-.009.257-.012.252-.015.246-.017.243-.018.24-.021.234-.025.23-.027.223-.029.223-.032.215-.035.212-.037.208-.038.2-.042.2-.044.193-.047ZM4.153,23.078H5.938l.19,0,.188.006.181.009.178.013.17.018.165.02.159.026.154.029.15.033.142.039.137.043.132.045.126.051.121.057.118.062.109.066.108.074.1.08.093.085.091.092.081.1.076.1.068.107.062.115.055.119.045.124.039.126.032.131.024.134.015.137.012.14,0,.143,0,.143-.01.141-.018.138-.024.136-.034.134-.041.129-.046.127-.055.122-.065.118L8.9,26.7l-.077.109-.084.1-.09.1-.1.093-.1.087-.109.084-.113.076-.118.07-.12.066-.126.06L7.73,27.6l-.133.049-.135.046-.145.039-.146.034-.149.03-.152.024-.157.02-.162.016-.165.012-.169.006-.172,0H4.153ZM9.719,33.233l-.01.151-.018.149-.026.146-.032.143-.042.14-.048.135-.056.132-.063.128-.07.122-.077.119-.086.112-.093.109-.1.1-.1.1-.112.095-.116.087-.121.08-.126.074-.129.068-.134.063-.138.057-.141.051-.147.045-.151.04-.152.034-.159.029-.16.024-.168.017-.17.013L6.6,35.8l-.176,0H4.153V30.456H6.424l.18,0,.176.007.174.013.169.016.163.021.16.027.154.032.152.037.146.042.143.048.137.053.133.059.13.065.125.07.12.076L8.8,31.1l.109.088.1.092.1.1.09.1.085.108.076.115.07.118.063.124.056.129.045.132.041.137.032.139.026.143.018.145.01.149,0,.151Zm22.772,1.112,0-.011,0-.01-.063-.187,0-.01,0-.01-.058-.191,0-.005,0-.006-.055-.193,0-.011,0-.011-.052-.207-.048-.2,0-.011,0-.011-.042-.2v-.012l-.039-.208,0-.012,0-.012-.033-.221-.03-.216v-.019l-.024-.22v-.016l-.019-.223V31.89l-.015-.234-.013-.231v-.017l-.007-.234V25.415q-1.626,1.257-3.186,2.547l3.791,6.556ZM37.556,30.6c2.494-2.019,5.126-3.976,7.846-5.848v-4.6h5.115V21.4c14.2-8.884,29.828-15.165,40.235-15.528,10.872-.379,12.945,5.764,6.7,14.966h.645C107.014,8.727,104.861.043,91.147,0,77.185-.042,55.459,8.886,37.553,21.311v9.13l0,.149ZM53.491,54.129c-.348-.044-.707-.083-1.073-.116-8.425,3.642-16.394,5.912-22.523,6.125-13.324.465-13.3-8.863-1.053-21.611l-4.094-7.08C5.83,48.705,4.59,62.718,22.018,62.773c8.491.025,19.848-3.269,31.473-8.644" transform="translate(0 0)" fill="#848484"/></g></svg>