<svg xmlns="http://www.w3.org/2000/svg" xmlns:xlink="http://www.w3.org/1999/xlink" width="102.3" height="88.373" viewBox="0 0 102.3 88.373"><defs><clipPath id="a"><rect width="102.3" height="88.373" fill="#848484"/></clipPath></defs><g clip-path="url(#a)"><path d="M154.24,297.542c-.822.5-2.529-.228-1.531-.727,12.26-6.141,28.613,1.594,39.765-2.825a12.191,12.191,0,0,0,4.125-2.482c.433-.381.319,2.041-1.15,3.453-8.552,8.214-30.648-3.8-41.209,2.581" transform="translate(-124.903 -238.873)" fill="#848484"/><path d="M34.129,2.934C28.807,7.617,23.452,30.687,21.919,37.7,27.511,30.045,33.343,15.424,34.967,5.86c.088-.517.549-4.146-.838-2.925m8.26,14.908c-2.317,5.447-8.481,21.774-7.677,30.225a3.077,3.077,0,0,0,3.537,2.894c2.519-.2-1.317,2.311-3.55,1.106C28.451,48.7,33.1,33.027,38.1,20.726c1.547-3.811,2.184-4.25,2.986-4.484a3.317,3.317,0,0,1,2.028-.033c-.24.531-.484,1.074-.722,1.633m3.965,20.5c-2,.333-3.517,2.394-4.355,4.377.287,1.522,4.846-.133,5.736-.484.259-1.874.2-4.156-1.381-3.892m17.4,9.953A18.276,18.276,0,0,0,69.2,38.141a6.361,6.361,0,0,1-4.784-.912,1.96,1.96,0,0,1-1.036-1.985,2.838,2.838,0,0,1,2.365-1.809,5.282,5.282,0,0,1,5.344,2.353c5.874-1.352,19.7-4.325,26.2-3.418,6.724.939,6.476,6.425.518,7.728-.481.105-.524.028-.57-.332-.076-.588.465-.732.914-.96,3.826-1.945.9-3.393-2.309-3.871-6.7-1-17.273,1.1-24.039,2.659.647,4.282-3.849,12.232-7.825,13.551-1.985.658-4.716-.181-4.874-2.547-.851,1.217-1.584,2.422-3.306,2.162-2.147-.324-3.332-4.9-3.859-8.077-.5.174-1.016.34-1.543.5-.248,3.057-2.24,7.161-5.457,7.995a5.3,5.3,0,0,1-6.068-3.621c-1.321-4.2,2.14-12.13,7.206-10.943A5.43,5.43,0,0,1,50.3,41.044c.476-.252.966-.5,1.43-.8.612-.4,2.432.592,2.536,1.275.149.98.216,4.831,1.26,7.156.727,1.619,1.722-.791,2.05-1.518a31.358,31.358,0,0,0,1.157-3.672c.168-.547,2.657.5,2.475,1.174-.783,2.888-1.231,7.1,2.542,3.641m5.494-12.064c-.422-1.293-1.531-2.118-2.876-1.348-.738.422-.835,1.431-.373,1.644a7.51,7.51,0,0,0,3.25-.3M41.6,43.814c-.822,2.7-1.15,8.436,3.1,4.609a9.715,9.715,0,0,0,2.66-4.374c-1.414.386-4.879,1.242-5.764-.235m-20.948,2c.437,4.471,4.082,7.426,6.541,5.615.968-.713,3.813.752,3.216,1.271-2.97,2.582-5.592,2.224-8.249-.48,2.2,9.971,2.142,23-3.167,32.007-1.368,2.319-4.409,6.1-7.579,2.949-4.642-4.616,3.277-33.3,4.593-39.276C12.965,50,9.575,51.709,5.8,51.824c-6.02.182-6.856-5.418-4.775-6.833.328-.223.813-.15.86.3.029.282-.1.327-.243.551-.941,1.463.739,2.9,3.561,2.628A20.741,20.741,0,0,0,17.06,43.106C18.853,34.96,25.122,4.731,32.154.588c1.75-1.031,3.474-.782,4.3,1.343,1.05,2.712.342,8.182-1.228,13.917-2.273,8.3-6.63,19.146-13.363,26.773-1.19,1.348-1.387,1.331-1.206,3.187m-1.066,3.419L14.039,74.2c-1.15,5.175-1.412,8.707-1.115,10.837.2,1.461.774,1.447,1.394.944,5.474-4.444,7.291-16.906,7.168-23.524a53.456,53.456,0,0,0-1.9-13.231" transform="translate(0 0)" fill="#848484"/><path d="M258.4,342.708v3.63h1V342.9c0-.177,0-.365-.009-.568a3.668,3.668,0,0,0-.073-.6,1.7,1.7,0,0,0-.213-.539,1.087,1.087,0,0,0-.423-.39,1.519,1.519,0,0,0-.708-.15,1.971,1.971,0,0,0-.678.119,2.088,2.088,0,0,0-.588.327,2.639,2.639,0,0,0-.484.493,1.343,1.343,0,0,0-.317-.568,1.135,1.135,0,0,0-.463-.29,1.664,1.664,0,0,0-.533-.08,1.945,1.945,0,0,0-.628.1,2.125,2.125,0,0,0-.553.276,2.658,2.658,0,0,0-.467.422v-.671h-1v5.561h1v-3.959a2.349,2.349,0,0,1,.329-.5,1.509,1.509,0,0,1,.435-.35,1.156,1.156,0,0,1,.537-.131.831.831,0,0,1,.325.059.638.638,0,0,1,.262.2.9.9,0,0,1,.14.306,1.821,1.821,0,0,1,.053.358c.005.126.009.254.007.385v3.63h.986V342.9c0-.087,0-.173,0-.261s0-.173-.005-.257a2.275,2.275,0,0,1,.327-.5,1.479,1.479,0,0,1,.434-.35,1.15,1.15,0,0,1,.537-.131.77.77,0,0,1,.448.119.66.66,0,0,1,.231.309,1.525,1.525,0,0,1,.086.423c.01.154.014.306.012.46m6.149.85q0,.318-.026.635a2.553,2.553,0,0,1-.135.605,1.51,1.51,0,0,1-.322.523,1.2,1.2,0,0,1-.434.3,1.39,1.39,0,0,1-1.042,0,1.2,1.2,0,0,1-.434-.3,1.511,1.511,0,0,1-.322-.523,2.474,2.474,0,0,1-.133-.605,7.269,7.269,0,0,1,0-1.27,2.476,2.476,0,0,1,.133-.605,1.51,1.51,0,0,1,.322-.523,1.2,1.2,0,0,1,.434-.3,1.389,1.389,0,0,1,1.042,0,1.2,1.2,0,0,1,.434.3,1.509,1.509,0,0,1,.322.523,2.555,2.555,0,0,1,.135.605q.029.318.026.635m-1.437-2.906a2.608,2.608,0,0,0-1.046.206,2.241,2.241,0,0,0-.8.588,2.673,2.673,0,0,0-.512.917,4.054,4.054,0,0,0,0,2.4,2.678,2.678,0,0,0,.516.917,2.252,2.252,0,0,0,.8.584,2.579,2.579,0,0,0,1.039.206,2.607,2.607,0,0,0,1.046-.206,2.258,2.258,0,0,0,.8-.587,2.673,2.673,0,0,0,.512-.916,4.054,4.054,0,0,0,0-2.4,2.647,2.647,0,0,0-.516-.916,2.278,2.278,0,0,0-.8-.586,2.607,2.607,0,0,0-1.039-.2m4.931,3.872v-3h1.385v-.745h-1.385v-1.259h-1v1.259H266.3v.745h.745v2.812q0,.4.016.729a2.853,2.853,0,0,0,.089.591,1.123,1.123,0,0,0,.227.441.955.955,0,0,0,.427.274,2.118,2.118,0,0,0,.689.095c.142,0,.292-.007.451-.023s.318-.035.483-.061v-.745c-.075.014-.154.028-.238.04s-.17.023-.252.032a2.115,2.115,0,0,1-.224.012.693.693,0,0,1-.381-.094.518.518,0,0,1-.2-.257,1.393,1.393,0,0,1-.077-.379c-.01-.143-.014-.3-.012-.465m3.053-1.595a2.542,2.542,0,0,1,.294-.871,1.385,1.385,0,0,1,.483-.5,1.155,1.155,0,0,1,.6-.161,1.043,1.043,0,0,1,.593.171,1.223,1.223,0,0,1,.427.511,2.477,2.477,0,0,1,.208.85Zm-.052.745h3.662c.009-.129.014-.254.014-.373a3.706,3.706,0,0,0-.131-1.018,2.441,2.441,0,0,0-.352-.75,2.052,2.052,0,0,0-.518-.505,2.183,2.183,0,0,0-.626-.287,2.62,2.62,0,0,0-1.355,0,2.4,2.4,0,0,0-.668.294,2.2,2.2,0,0,0-.574.535,2.553,2.553,0,0,0-.4.815,3.88,3.88,0,0,0-.152,1.131,4.064,4.064,0,0,0,.11.977,2.7,2.7,0,0,0,.289.734,2.277,2.277,0,0,0,.409.523,2.319,2.319,0,0,0,.909.549,3.6,3.6,0,0,0,1.137.164,5.7,5.7,0,0,0,.881-.07,6.971,6.971,0,0,0,.913-.2v-.745a7.018,7.018,0,0,1-.908.2,5.432,5.432,0,0,1-.844.07,2.584,2.584,0,0,1-.733-.093,1.352,1.352,0,0,1-.565-.325,1.507,1.507,0,0,1-.364-.63,3.392,3.392,0,0,1-.133-1m5.9-5.414h-1v8.079h1Z" transform="translate(-206.742 -277.221)" fill="#848484"/></g></svg>