<svg xmlns="http://www.w3.org/2000/svg" xmlns:xlink="http://www.w3.org/1999/xlink" width="110.278" height="49.403" viewBox="0 0 110.278 49.403"><defs><clipPath id="a"><rect width="110.278" height="49.403" fill="#848484"/></clipPath></defs><g transform="translate(0 0.001)"><path d="M14.886,0,10.618,3.316,6.351,0H0V31.123H6.351V8.253l4.267,3.317,4.267-3.317v22.87h6.351V0Z" transform="translate(0 0)" fill="#848484"/><rect width="6.351" height="31.124" transform="translate(26.199 -0.001)" fill="#848484"/><path d="M87.774,5.013h33.616V9.95H87.774ZM81.522,0V30.968h6.351V14.886h33.517V31.123h6.451V14.886l-3.176-2.468,3.176-2.546V0Z" transform="translate(-44.01)" fill="#848484"/><path d="M199.316,4.936h8.534V21.2h-8.534ZM192.965,0V31.123h6.351V26.186h8.534v4.937H214.2V0Z" transform="translate(-104.172)" fill="#848484"/><g transform="translate(0 -0.001)"><g clip-path="url(#a)"><path d="M0,73.882H4.119v4.186h.033A4.446,4.446,0,0,1,7.727,76.8a6.6,6.6,0,0,1,1.928.28,4.581,4.581,0,0,1,1.631.873,4.35,4.35,0,0,1,1.137,1.5,5.652,5.652,0,0,1,0,4.317,4.345,4.345,0,0,1-1.137,1.5,4.58,4.58,0,0,1-1.631.873,6.6,6.6,0,0,1-1.928.28,6.4,6.4,0,0,1-2.273-.338A3.567,3.567,0,0,1,4.02,85.1H3.987v.956H0ZM4.119,81.61a2.035,2.035,0,0,0,.535,1.516,2.387,2.387,0,0,0,1.722.527,2.25,2.25,0,0,0,1.73-.577,2.09,2.09,0,0,0,.527-1.467,2.035,2.035,0,0,0-.552-1.467,2.24,2.24,0,0,0-1.689-.577,2.365,2.365,0,0,0-1.739.543,2.047,2.047,0,0,0-.535,1.5" transform="translate(0 -39.885)" fill="#848484"/><path d="M29.361,84.831a4.289,4.289,0,0,1,1.59-3.666q1.589-1.195,5.083-1.195a8.6,8.6,0,0,1,5.075,1.186,4.275,4.275,0,0,1,1.6,3.674A5.532,5.532,0,0,1,42.32,87a3.6,3.6,0,0,1-1.2,1.516,5.633,5.633,0,0,1-2.076.9,13.269,13.269,0,0,1-3.007.3,13.275,13.275,0,0,1-3.007-.3,5.637,5.637,0,0,1-2.076-.9A3.6,3.6,0,0,1,29.748,87a5.541,5.541,0,0,1-.387-2.166m4.317,0a2.233,2.233,0,0,0,.56,1.648,2.462,2.462,0,0,0,1.8.56,2.459,2.459,0,0,0,1.8-.56,2.256,2.256,0,0,0,.552-1.648,2.226,2.226,0,0,0-.552-1.64,2.481,2.481,0,0,0-1.8-.552,2.484,2.484,0,0,0-1.8.552,2.2,2.2,0,0,0-.56,1.64" transform="translate(-15.85 -43.172)" fill="#848484"/><path d="M59.8,84.831a4.288,4.288,0,0,1,1.59-3.666q1.59-1.195,5.083-1.195a8.6,8.6,0,0,1,5.075,1.186,4.275,4.275,0,0,1,1.6,3.674A5.532,5.532,0,0,1,72.756,87a3.6,3.6,0,0,1-1.2,1.516,5.634,5.634,0,0,1-2.076.9,15.382,15.382,0,0,1-6.014,0,5.64,5.64,0,0,1-2.076-.9A3.6,3.6,0,0,1,60.184,87a5.532,5.532,0,0,1-.387-2.166m4.317,0a2.233,2.233,0,0,0,.56,1.648,3.173,3.173,0,0,0,3.6,0,2.254,2.254,0,0,0,.552-1.648,2.224,2.224,0,0,0-.552-1.64,3.21,3.21,0,0,0-3.6,0,2.2,2.2,0,0,0-.56,1.64" transform="translate(-32.281 -43.172)" fill="#848484"/><path d="M89.48,77.355h1.911v-2.9h4.119v2.9h2.224v2.57H95.511v3.18a1.5,1.5,0,0,0,.066.495.474.474,0,0,0,.214.264,1.018,1.018,0,0,0,.387.107,5.586,5.586,0,0,0,.568.025q.247,0,.527-.008t.577-.024v2.405q-.544.082-1.277.14t-1.722.057a9.451,9.451,0,0,1-1.6-.115,2.375,2.375,0,0,1-1.071-.437,1.819,1.819,0,0,1-.6-.889,4.823,4.823,0,0,1-.19-1.491V79.925H89.48Z" transform="translate(-48.306 -40.194)" fill="#848484"/><path d="M117.807,83.957a1.3,1.3,0,0,0-.231-.692,1.581,1.581,0,0,0-.543-.445,2.235,2.235,0,0,0-.684-.214,4.985,4.985,0,0,0-.8-.066,3.318,3.318,0,0,0-1.17.181,2.015,2.015,0,0,0-.766.486,1.85,1.85,0,0,0-.42.709,2.7,2.7,0,0,0-.132.849,2.254,2.254,0,0,0,.61,1.656,2.488,2.488,0,0,0,1.845.618,3.311,3.311,0,0,0,1.467-.3,1.614,1.614,0,0,0,.824-1.195h4.317a4.3,4.3,0,0,1-.824,2.224,4.416,4.416,0,0,1-1.59,1.26,6.442,6.442,0,0,1-2.035.56,19.438,19.438,0,0,1-2.175.124,13.971,13.971,0,0,1-2.652-.239,6.291,6.291,0,0,1-2.15-.808,4.056,4.056,0,0,1-1.433-1.507,4.787,4.787,0,0,1-.52-2.34,4.7,4.7,0,0,1,.52-2.315,4.017,4.017,0,0,1,1.433-1.491,6.41,6.41,0,0,1,2.15-.8,13.972,13.972,0,0,1,2.652-.239,15.476,15.476,0,0,1,2.6.2,6.2,6.2,0,0,1,1.994.667,3.849,3.849,0,0,1,1.351,1.236,4.556,4.556,0,0,1,.675,1.887Z" transform="translate(-58.705 -43.172)" fill="#848484"/><path d="M139.586,83.067a4,4,0,0,1,.585-1.524,2.842,2.842,0,0,1,1.194-.947,6.517,6.517,0,0,1,1.895-.486,23.306,23.306,0,0,1,2.784-.14,16.375,16.375,0,0,1,2.694.189,5.131,5.131,0,0,1,1.813.618,2.623,2.623,0,0,1,1.029,1.12,3.924,3.924,0,0,1,.329,1.7v4.35a2.57,2.57,0,0,0,.116.849,2.739,2.739,0,0,0,.264.552h-4.218a3.108,3.108,0,0,1-.148-.889,4.258,4.258,0,0,1-1.78.947,10.342,10.342,0,0,1-2.735.3,10.712,10.712,0,0,1-1.871-.149,4.076,4.076,0,0,1-1.425-.511,2.471,2.471,0,0,1-.906-.939,3.018,3.018,0,0,1-.313-1.45,2.64,2.64,0,0,1,.231-1.113,2.256,2.256,0,0,1,.733-.873,3.865,3.865,0,0,1,1.31-.585,9.235,9.235,0,0,1,1.944-.263l3.476-.165a1.788,1.788,0,0,0,.865-.2.614.614,0,0,0,.239-.544.7.7,0,0,0-.511-.659,3.714,3.714,0,0,0-1.4-.214q-.346,0-.692.033a2.2,2.2,0,0,0-.626.148,1.543,1.543,0,0,0-.485.313.969.969,0,0,0-.272.527Zm8.205,2.175a12.287,12.287,0,0,1-1.376.2q-.849.083-1.953.181a1.653,1.653,0,0,0-.848.255.746.746,0,0,0-.272.635.877.877,0,0,0,.371.75,1.978,1.978,0,0,0,1.161.272,7.482,7.482,0,0,0,1.038-.075,2.893,2.893,0,0,0,.939-.288,1.888,1.888,0,0,0,.675-.585,1.6,1.6,0,0,0,.264-.947Z" transform="translate(-74.982 -43.172)" fill="#848484"/><path d="M170.691,80.467h3.987V81.7h.033a3.883,3.883,0,0,1,1.277-1.055,4.4,4.4,0,0,1,2.084-.428,5.386,5.386,0,0,1,1.145.107,2.957,2.957,0,0,1,.832.3,2.18,2.18,0,0,1,.585.478,3.686,3.686,0,0,1,.421.61,3.426,3.426,0,0,1,1.244-1.062,4.357,4.357,0,0,1,2.068-.437,5.671,5.671,0,0,1,1.392.165,3.027,3.027,0,0,1,1.129.536,2.641,2.641,0,0,1,.758.947,3.188,3.188,0,0,1,.28,1.4V89.48h-4.119V84.389a1.258,1.258,0,0,0-.28-.947,1.181,1.181,0,0,0-.824-.256,1.478,1.478,0,0,0-1.022.338A1.522,1.522,0,0,0,181.3,84.7V89.48h-3.987V84.389a1.258,1.258,0,0,0-.28-.947,1.182,1.182,0,0,0-.824-.256,1.478,1.478,0,0,0-1.022.338,1.522,1.522,0,0,0-.379,1.178V89.48h-4.119Z" transform="translate(-92.147 -43.307)" fill="#848484"/><path d="M211.727,80.467h3.987v1.071h.033a3.569,3.569,0,0,1,1.434-.981,6.4,6.4,0,0,1,2.273-.338,6.6,6.6,0,0,1,1.928.28,4.58,4.58,0,0,1,1.631.873,4.35,4.35,0,0,1,1.137,1.5,5.652,5.652,0,0,1,0,4.317,4.345,4.345,0,0,1-1.137,1.5,4.58,4.58,0,0,1-1.631.873,6.6,6.6,0,0,1-1.928.28,4.447,4.447,0,0,1-3.575-1.269h-.033v4.135h-4.119Zm4.119,4.564a2.048,2.048,0,0,0,.535,1.5,2.365,2.365,0,0,0,1.739.544,2.24,2.24,0,0,0,1.689-.577,2.035,2.035,0,0,0,.552-1.466,2.088,2.088,0,0,0-.528-1.467,2.248,2.248,0,0,0-1.729-.577,2.387,2.387,0,0,0-1.723.527,2.036,2.036,0,0,0-.535,1.516" transform="translate(-114.3 -43.307)" fill="#848484"/></g></g></g></svg>