<svg xmlns="http://www.w3.org/2000/svg" xmlns:xlink="http://www.w3.org/1999/xlink" width="143.205" height="34.719" viewBox="0 0 143.205 34.719"><defs><clipPath id="a"><rect width="143.205" height="34.719" fill="#848484"/></clipPath></defs><g transform="translate(-81 -3099)"><g transform="translate(81 3099)"><g clip-path="url(#a)"><path d="M137.658,17.066a2.427,2.427,0,0,1,2.363,1.178,4.177,4.177,0,0,1,.379,1.627l1.042,19.661h-1.415a3.607,3.607,0,0,1-1.591-.252,2.442,2.442,0,0,1-1.413-2.3l-.264-3.364h-7.476l-2.818,5.916h-4.7l11.023-22.479Zm-1.783,2.9-5.547,11H139.1a2.568,2.568,0,0,1-2.193-1.528,4.785,4.785,0,0,1-.422-1.823c-.082-.8-.468-7.911-.468-7.911Z" transform="translate(-93.465 -13.09)" fill="#848484"/><path d="M227.6,58.213H215.572a1.854,1.854,0,0,1-1.676-.645,1.55,1.55,0,0,1-.193-.673,3.657,3.657,0,0,1,.113-1.066l4.03-14.44h4.285c-2.369,8.687-3.05,11.614-3.1,11.856a3.769,3.769,0,0,0-.1.869l0,.056a1.39,1.39,0,0,0,1.165,1.262,2.826,2.826,0,0,0,.822.112h4.99a1.731,1.731,0,0,1-1.623-1.4l-.007-.084a4,4,0,0,1,.224-1.43l3.107-11.239h4.168Z" transform="translate(-164.036 -31.771)" fill="#848484"/><path d="M291.511,17.257h1.834l-1.407,5.054h3.091l-.4,1.9h-5.486a1.778,1.778,0,0,1,1.841,1.514,5.684,5.684,0,0,1-.376,2.019l-2.8,11.944h-2.087a1.875,1.875,0,0,1-1.709-.7,1.552,1.552,0,0,1-.189-.617l-.009-.112a5.892,5.892,0,0,1,.38-1.963l4.167-16.739a5.582,5.582,0,0,1,.535-1.066,2.975,2.975,0,0,1,2.623-1.234" transform="translate(-217.849 -13.247)" fill="#848484"/><path d="M325.193,41.389h8.776q1.289,0,1.68.673a1.409,1.409,0,0,1,.185.588l.009.113a5.274,5.274,0,0,1-.338,1.766l-2.711,11.356a4.6,4.6,0,0,1-.426,1.009,2.868,2.868,0,0,1-2.588,1.318h-8.86q-1.74,0-1.838-1.261l0-.056a4.677,4.677,0,0,1,.316-1.71l2.637-11.215a6.267,6.267,0,0,1,.5-1.178,2.567,2.567,0,0,1,1.448-1.205,3.575,3.575,0,0,1,1.218-.2m-.8,2.664a1.869,1.869,0,0,1,1.492,2.5l-2.229,8.9h2.112a3.123,3.123,0,0,0,3.089-1.739,12.063,12.063,0,0,0,.488-1.636l1.263-5.138a4.808,4.808,0,0,0,.249-1.486q-.089-1.121-1.48-1.346a4.754,4.754,0,0,0-.846-.056Z" transform="translate(-244.923 -31.771)" fill="#848484"/><path d="M390.666,58.213c2.2-8.64,2.846-11.617,2.908-11.859.519-2.028-1.1-2.282-1.89-2.3l-2.916,0s2.255.151,1.431,2.916l-2.884,11.239h-4.446l3.582-14.552a4.6,4.6,0,0,1,.378-.9,2.867,2.867,0,0,1,2.669-1.374h14.951q1.288,0,1.676.646a1.316,1.316,0,0,1,.218.645,3.509,3.509,0,0,1-.139,1.094L402.67,58.213h-4.5c2.393-8.6,3.056-11.644,3.112-11.887a3.409,3.409,0,0,0,.1-.841l-.007-.085a1.39,1.39,0,0,0-1.164-1.262,3.738,3.738,0,0,0-.818-.083h-2.8a1.849,1.849,0,0,1,1.359,2.358l-2.972,11.8Z" transform="translate(-293.894 -31.771)" fill="#848484"/><path d="M483.417,41.389h8.3c1.526,0,2.219.15,2.6.449a1.411,1.411,0,0,1,.532,1.066l0,.028a4.994,4.994,0,0,1-.227,1.4l-1.146,4.935a3.1,3.1,0,0,1-2.031,2.278,3.874,3.874,0,0,1-.766.225,8.818,8.818,0,0,1-1.674.112h-5.581l-.933,3.65h1.7a5.236,5.236,0,0,0,1.365-.112,4.09,4.09,0,0,0,.791-.281,2.953,2.953,0,0,0,1.434-1.738c.15-.413.112-.323.112-.323h4.488l-.711,2.748a5.384,5.384,0,0,1-.333.757,3.06,3.06,0,0,1-1.5,1.319,5.846,5.846,0,0,1-2.162.308H479.8a2.2,2.2,0,0,1-1.547-.42,1.237,1.237,0,0,1-.4-.841l-.007-.084a4.708,4.708,0,0,1,.294-1.626l2.667-11.188a3.194,3.194,0,0,1,2.611-2.664m-.146,2.712a1.933,1.933,0,0,1,1.451,2.5l-.625,2.573h2.41a3.221,3.221,0,0,0,2.527-1.038,2.564,2.564,0,0,0,.52-.869,10.636,10.636,0,0,0,.313-1.092c.415-1.648-.9-2.074-2.039-2.074Z" transform="translate(-366.794 -31.771)" fill="#848484"/><path d="M552.045,41.389h7.55a3.036,3.036,0,0,1,2.233.589,1.417,1.417,0,0,1,.381.925A5.454,5.454,0,0,1,562,44.53c-.364,1.328-.646,2.471-.665,2.471H556.98c.285-1.14.243-.854.255-.948a2.181,2.181,0,0,0,.038-.589l0-.028a1.4,1.4,0,0,0-1.223-1.289,4.353,4.353,0,0,0-.988-.085l-3.8.012s2.126.356,1.391,3.168l-1.955,8.25H552.3a3.16,3.16,0,0,0,3.107-1.851,5.962,5.962,0,0,0,.347-.861h4.354l-.985,3.189a3.23,3.23,0,0,1-1.811,1.936,5.28,5.28,0,0,1-1.995.308h-7.634a1.792,1.792,0,0,1-1.651-.673,1.5,1.5,0,0,1-.155-.533l-.013-.168a5.044,5.044,0,0,1,.341-1.738l2.764-11.384a4.355,4.355,0,0,1,.506-1.066,2.849,2.849,0,0,1,2.564-1.262" transform="translate(-419.011 -31.771)" fill="#848484"/><path d="M249.057,130.632h-.969l-.389,1.952h-.933l1.011-5.035h1.789a1.25,1.25,0,0,1,1.351,1.33,1.741,1.741,0,0,1-1.86,1.754m.353-2.256h-.863l-.29,1.428h.835a.843.843,0,0,0,.884-.849.517.517,0,0,0-.566-.58" transform="translate(-189.42 -97.907)" fill="#848484"/><path d="M272.43,129.926a3.563,3.563,0,0,1-.771,1.987,2.047,2.047,0,0,1-1.407.573,1.409,1.409,0,0,1-1.514-1.429,7.027,7.027,0,0,1,.156-1.132,3.563,3.563,0,0,1,.771-1.987,2.03,2.03,0,0,1,1.4-.573,1.415,1.415,0,0,1,1.52,1.429,7.014,7.014,0,0,1-.155,1.132M271,128.186a.926.926,0,0,0-.686.3c-.191.2-.3.5-.488,1.435a6.432,6.432,0,0,0-.148,1.061.629.629,0,0,0,.643.679.926.926,0,0,0,.686-.3c.191-.2.3-.5.488-1.436a6.277,6.277,0,0,0,.141-1.061.624.624,0,0,0-.637-.679" transform="translate(-206.286 -97.767)" fill="#848484"/><path d="M292.6,130.441l.693,2.143h-1.026l-.587-2.037h-.707l-.417,2.037h-.934l1.011-5.035H292.4a1.238,1.238,0,0,1,1.372,1.351,1.636,1.636,0,0,1-1.174,1.542m-.346-2.065H291.4l-.283,1.393h.849a.819.819,0,0,0,.87-.82.526.526,0,0,0-.587-.573" transform="translate(-222.313 -97.907)" fill="#848484"/><path d="M316.825,128.376h-1.238l-.841,4.208h-.934l.842-4.208h-1.266l.163-.828h3.437Z" transform="translate(-240.559 -97.907)" fill="#848484"/><path d="M330.275,132.584l-.106-.92h-1.7l-.474.92h-1l2.744-5.036h.742l.742,5.036Zm-.417-3.621-1.011,1.938H330.1Z" transform="translate(-251.003 -97.907)" fill="#848484"/><path d="M353.294,128.547a1.057,1.057,0,0,0-.891-.368.852.852,0,0,0-.934.764c0,.318.255.424.538.5l.417.1c.835.2,1.138.594,1.138,1.308,0,1.132-.955,1.641-2.016,1.641a1.962,1.962,0,0,1-1.7-.693l.679-.594a1.336,1.336,0,0,0,1.1.46c.559,0,1-.318,1-.729,0-.361-.212-.481-.531-.559l-.417-.106c-.828-.2-1.146-.679-1.146-1.2a1.759,1.759,0,0,1,1.973-1.7,1.8,1.8,0,0,1,1.443.608Z" transform="translate(-268.548 -97.767)" fill="#848484"/><path d="M381.74,132.584l-.106-.92h-1.7l-.474.92h-1l2.744-5.036h.742l.743,5.036Zm-.417-3.621-1.011,1.938h1.252Z" transform="translate(-290.508 -97.907)" fill="#848484"/><path d="M406.387,130.858a1.983,1.983,0,0,1-2.016,1.768,1.423,1.423,0,0,1-1.535-1.435,2.6,2.6,0,0,1,.049-.432l.644-3.211h.934l-.658,3.267a1.985,1.985,0,0,0-.035.311.62.62,0,0,0,.665.672c.538,0,.905-.368,1.039-1.033l.644-3.218h.933Z" transform="translate(-309.221 -97.907)" fill="#848484"/><path d="M429.678,128.376h-1.237l-.842,4.208h-.934l.841-4.208h-1.266l.163-.828h3.437Z" transform="translate(-327.187 -97.907)" fill="#848484"/><path d="M447.829,129.926a3.563,3.563,0,0,1-.771,1.987,2.046,2.046,0,0,1-1.407.573,1.409,1.409,0,0,1-1.513-1.429,7.027,7.027,0,0,1,.156-1.132,3.565,3.565,0,0,1,.771-1.987,2.031,2.031,0,0,1,1.4-.573,1.414,1.414,0,0,1,1.52,1.429,7.009,7.009,0,0,1-.155,1.132m-1.429-1.74a.925.925,0,0,0-.686.3c-.191.2-.3.5-.488,1.435a6.405,6.405,0,0,0-.148,1.061.629.629,0,0,0,.643.679.926.926,0,0,0,.686-.3c.191-.2.3-.5.488-1.436a6.277,6.277,0,0,0,.141-1.061.624.624,0,0,0-.636-.679" transform="translate(-340.923 -97.767)" fill="#848484"/><path d="M469.343,132.584h-.933l.6-2.977-1.266,1.86h-.629l-.566-1.874-.6,2.992h-.934l1.011-5.035h.877l.714,2.687,1.825-2.687h.912Z" transform="translate(-356.95 -97.907)" fill="#848484"/><path d="M492.524,127.141l-.106-.919h-1.7l-.474.919h-1l2.744-5.036h.743l.742,5.036Zm-.417-3.621-1.011,1.938h1.252Zm.4-1.881h-.594l.65-1.181h.927Z" transform="translate(-375.547 -92.465)" fill="#848484"/><path d="M516.692,128.376h-1.237l-.842,4.208h-.934l.841-4.208h-1.266l.163-.828h3.437Z" transform="translate(-393.979 -97.907)" fill="#848484"/><path d="M531.72,132.584h-.934l1.011-5.035h.934Z" transform="translate(-407.436 -97.907)" fill="#848484"/><path d="M546.338,128.922c-.007-.41-.2-.736-.651-.736a.892.892,0,0,0-.679.29,2.9,2.9,0,0,0-.5,1.45,6.33,6.33,0,0,0-.148,1.061.636.636,0,0,0,.672.679,1.021,1.021,0,0,0,.941-.736h.962a2.027,2.027,0,0,1-1.966,1.556,1.424,1.424,0,0,1-1.549-1.429,6.637,6.637,0,0,1,.156-1.132,3.535,3.535,0,0,1,.764-1.987,1.967,1.967,0,0,1,1.4-.573,1.431,1.431,0,0,1,1.535,1.556Z" transform="translate(-417.132 -97.767)" fill="#848484"/><path d="M564.747,132.584l-.106-.92h-1.7l-.474.92h-1l2.744-5.036h.742l.743,5.036Zm-.417-3.621-1.011,1.938h1.252Z" transform="translate(-430.986 -97.907)" fill="#848484"/><path d="M587.767,128.547a1.058,1.058,0,0,0-.891-.368.852.852,0,0,0-.933.764c0,.318.254.424.537.5l.417.1c.835.2,1.139.594,1.139,1.308,0,1.132-.955,1.641-2.016,1.641a1.961,1.961,0,0,1-1.7-.693L585,131.2a1.337,1.337,0,0,0,1.1.46c.559,0,1-.318,1-.729,0-.361-.212-.481-.531-.559l-.417-.106c-.828-.2-1.146-.679-1.146-1.2a1.759,1.759,0,0,1,1.973-1.7,1.8,1.8,0,0,1,1.443.608Z" transform="translate(-448.531 -97.767)" fill="#848484"/><path d="M26.244,0H5.791A2.5,2.5,0,0,0,3.346,2.258L.007,24.352a2.049,2.049,0,0,0,2.072,2.259H22.532a2.5,2.5,0,0,0,2.446-2.259L28.317,2.258A1.89,1.89,0,0,0,26.244,0M18.662,23.068a2.094,2.094,0,0,1-1.246-.284,1.767,1.767,0,0,1-.533-1.087l-.026-.127L14.869,9.412,9.193,21.57l-.064.127a2.71,2.71,0,0,1-.851,1.087,2.482,2.482,0,0,1-1.319.284H5.092L13.735,6.284h3.239L20.5,23.068Z" transform="translate(0 0.001)" fill="#848484"/></g></g></g></svg>