<svg xmlns="http://www.w3.org/2000/svg" xmlns:xlink="http://www.w3.org/1999/xlink" width="152.885" height="37.2" viewBox="0 0 152.885 37.2"><defs><clipPath id="a"><rect width="152.885" height="37.2" fill="#848484"/></clipPath></defs><g transform="translate(0 0)"><g transform="translate(0 0)" clip-path="url(#a)"><path d="M20.594.163V34.491H28.1l5.713-5.715c.064-.062.1-.148.1-.411V5.973a.354.354,0,0,0-.1-.258L28.1,0H20.594ZM31.265,28.075,27.5,31.841H23.243V24.178h5.905V21.6H23.243V13.659h5.919V11.085H23.243V2.652H27.5l3.766,3.763Z" transform="translate(-5.169 0)" fill="#848484"/><path d="M54.747,9.1a5.209,5.209,0,0,0-4.028-1.436H47.692L45.436,9.924V30.493h3.588V21.918h1.694a5.209,5.209,0,0,0,4.028-1.435,6.013,6.013,0,0,0,1.319-4.206V13.309A6.007,6.007,0,0,0,54.747,9.1M52.48,16.5a2.415,2.415,0,0,1-.455,1.7,1.767,1.767,0,0,1-1.306.455H49.024V10.93h1.694a1.768,1.768,0,0,1,1.306.456,2.411,2.411,0,0,1,.455,1.694Z" transform="translate(-11.405 -1.925)" fill="#848484"/><path d="M68.488,7.669h-5.25L59.585,30.493h3.294l.621-4.141h4.4l.62,4.141h3.62ZM63.955,23.255l1.729-11.542,1.726,11.542Z" transform="translate(-14.956 -1.925)" fill="#848484"/><path d="M86.274,7.669V21.331L82.588,7.669h-4.5V30.493h3.23V13.963l4.465,16.53h3.686V7.669Z" transform="translate(-19.6 -1.925)" fill="#848484"/><path d="M105.382,8.8a6.249,6.249,0,0,0-8.085,0,5.956,5.956,0,0,0-1.4,4.254V24.928a5.946,5.946,0,0,0,1.4,4.255,6.249,6.249,0,0,0,8.085,0,5.953,5.953,0,0,0,1.4-4.255V13.057a5.962,5.962,0,0,0-1.4-4.254M103.2,25.155a2.419,2.419,0,0,1-.5,1.745,2.065,2.065,0,0,1-2.705,0,2.419,2.419,0,0,1-.5-1.745V12.831a2.427,2.427,0,0,1,.5-1.746,2.067,2.067,0,0,1,2.705,0,2.427,2.427,0,0,1,.5,1.746Z" transform="translate(-24.07 -1.837)" fill="#848484"/><path d="M123.573,20.141A3.586,3.586,0,0,0,121.5,18.33a3.519,3.519,0,0,0,1.762-1.694,6.637,6.637,0,0,0,.554-2.9v-.814a5.5,5.5,0,0,0-1.255-3.947,5.44,5.44,0,0,0-4.06-1.3h-3.144L113.089,9.94V30.492h5.641a5.5,5.5,0,0,0,4.077-1.383,5.5,5.5,0,0,0,1.368-4.028V23.222a7.084,7.084,0,0,0-.6-3.081m-6.9-9.211H118.4a1.665,1.665,0,0,1,1.387.553,2.9,2.9,0,0,1,.44,1.795v1.27a2.512,2.512,0,0,1-.569,1.891,2.266,2.266,0,0,1-1.584.524h-1.4Zm3.912,14.053a2.537,2.537,0,0,1-.472,1.759,1.843,1.843,0,0,1-1.387.491h-2.053V20.221h1.6a2.319,2.319,0,0,1,1.778.589,3.311,3.311,0,0,1,.537,2.183Z" transform="translate(-28.386 -1.925)" fill="#848484"/><rect width="3.588" height="22.824" transform="translate(97.615 5.744)" fill="#848484"/><path d="M145.805,7.669h-5.25L136.9,30.493H140.2l.617-4.141h4.4l.62,4.141h3.618Zm-4.532,15.586L143,11.713l1.729,11.542Z" transform="translate(-34.363 -1.925)" fill="#848484"/><path d="M183.9,16.066V13.058A6.108,6.108,0,0,0,182.553,8.8a6.122,6.122,0,0,0-7.991,0,6.108,6.108,0,0,0-1.352,4.255V24.929a6.1,6.1,0,0,0,1.352,4.254,6.122,6.122,0,0,0,7.991,0,6.1,6.1,0,0,0,1.352-4.254V20.944h-3.391v4.211a2.362,2.362,0,0,1-.5,1.729,2.119,2.119,0,0,1-2.706,0,2.361,2.361,0,0,1-.508-1.729V12.831a2.427,2.427,0,0,1,.508-1.745,2.066,2.066,0,0,1,2.706,0,2.427,2.427,0,0,1,.5,1.745v3.235Z" transform="translate(-43.476 -1.837)" fill="#848484"/><path d="M199.067,8.8a6.249,6.249,0,0,0-8.085,0,5.956,5.956,0,0,0-1.4,4.254V24.928a5.946,5.946,0,0,0,1.4,4.255,6.249,6.249,0,0,0,8.085,0,5.963,5.963,0,0,0,1.4-4.255V13.057a5.973,5.973,0,0,0-1.4-4.254m-2.186,16.352a2.419,2.419,0,0,1-.5,1.745,2.065,2.065,0,0,1-2.705,0,2.419,2.419,0,0,1-.5-1.745V12.831a2.427,2.427,0,0,1,.5-1.746,2.067,2.067,0,0,1,2.705,0,2.427,2.427,0,0,1,.5,1.746Z" transform="translate(-47.585 -1.837)" fill="#848484"/><path d="M163.591,7.669V21.331L159.905,7.669h-4.5V30.493h3.23V13.963l4.465,16.53h3.686V7.669Z" transform="translate(-39.007 -1.925)" fill="#848484"/><path d="M13.321,0H5.812L.1,5.715a.352.352,0,0,0-.1.258V28.365c0,.264.035.348.1.411l5.713,5.715h7.509V0ZM2.65,6.415,6.416,2.652h4.256v8.432H4.753v2.574h5.919V21.6H4.767v2.576h5.905v7.663H6.416L2.65,28.075Z" transform="translate(0 0)" fill="#848484"/><path d="M132.036,46.692l-.431,1.065h-1.276l2.381-5.482h1.276l2.341,5.482H135l-.431-1.065Zm1.276-3.125-.869,2.13h1.73Z" transform="translate(-32.713 -10.611)" fill="#848484"/><path d="M145.555,43.131l-.721.877a1.985,1.985,0,0,0-1.425-.713,1.688,1.688,0,0,0,0,3.376,2.112,2.112,0,0,0,1.425-.643l.729.792a3.213,3.213,0,0,1-2.216.978,2.79,2.79,0,1,1,.047-5.576,3.12,3.12,0,0,1,2.161.909" transform="translate(-35.259 -10.598)" fill="#848484"/><path d="M151.142,46.692l-.431,1.065h-1.276l2.381-5.482h1.276l2.341,5.482h-1.323l-.431-1.065Zm1.276-3.125-.869,2.13h1.73Z" transform="translate(-37.508 -10.611)" fill="#848484"/><path d="M162.625,42.275a2.746,2.746,0,1,1-.046,5.482H160.3V42.275Zm-1.088,4.44h1.12a1.58,1.58,0,0,0,1.59-1.691,1.618,1.618,0,0,0-1.645-1.708h-1.065Z" transform="translate(-40.236 -10.611)" fill="#848484"/><path d="M171.67,43.3v1.19h2.646v1.026H171.67v1.214h3.022v1.025h-4.26V42.275h4.173V43.3Z" transform="translate(-42.779 -10.611)" fill="#848484"/><path d="M184.349,47.756v-3.7L182.892,47.2h-.807l-1.457-3.141v3.7H179.51V42.274H180.9l1.6,3.352,1.589-3.352h1.379v5.482Z" transform="translate(-45.057 -10.611)" fill="#848484"/><rect width="1.237" height="5.482" transform="translate(143.185 31.664)" fill="#848484"/><path d="M197.4,46.692l-.431,1.065H195.7l2.381-5.482h1.276l2.341,5.482h-1.323l-.431-1.065Zm1.276-3.125-.869,2.13h1.73Z" transform="translate(-49.121 -10.611)" fill="#848484"/></g></g></svg>