<svg xmlns="http://www.w3.org/2000/svg" xmlns:xlink="http://www.w3.org/1999/xlink" width="152.8" height="33.241" viewBox="0 0 152.8 33.241"><defs><clipPath id="a"><rect width="152.8" height="33.241" fill="#848484"/></clipPath></defs><path d="M79.3,37.981v3.575h2.187v-.422h-1.8V39.918h1.622V39.5H79.684V38.4h1.731v-.422Z" transform="translate(-17.489 -8.377)" fill="#848484"/><g transform="translate(0 0)"><g clip-path="url(#a)"><path d="M84.063,41.557V41.23a.727.727,0,0,1-.251.287.6.6,0,0,1-.331.1.808.808,0,0,1-.652-.355,1.609,1.609,0,0,1-.274-1,2.046,2.046,0,0,1,.122-.749A1,1,0,0,1,83,39.057a.749.749,0,0,1,.451-.148.618.618,0,0,1,.33.094.768.768,0,0,1,.253.262V37.982H84.4v3.575Zm-1.139-1.292a1.29,1.29,0,0,0,.174.746.5.5,0,0,0,.407.244.485.485,0,0,0,.4-.235,1.205,1.205,0,0,0,.168-.707,1.45,1.45,0,0,0-.168-.794.5.5,0,0,0-.424-.25.472.472,0,0,0-.391.241,1.374,1.374,0,0,0-.163.755" transform="translate(-18.208 -8.377)" fill="#848484"/><path d="M85.649,37.982h.358v.505h-.358Zm0,.985h.358v2.59h-.358Z" transform="translate(-18.89 -8.377)" fill="#848484"/><path d="M87.564,41.187l.048.388a1.051,1.051,0,0,1-.269.039.536.536,0,0,1-.3-.075.373.373,0,0,1-.157-.2,1.952,1.952,0,0,1-.043-.514v-1.49h-.263V38.99h.263v-.642l.359-.263v.9h.364v.341H87.2v1.515a.7.7,0,0,0,.032.27.176.176,0,0,0,.173.087.948.948,0,0,0,.159-.017" transform="translate(-19.095 -8.4)" fill="#848484"/><path d="M88.1,40.524a1.556,1.556,0,0,1,.282-1.012.912.912,0,0,1,1.423,0,1.494,1.494,0,0,1,.287.985,1.61,1.61,0,0,1-.281,1.039.914.914,0,0,1-1.426,0,1.556,1.556,0,0,1-.284-1.012m.369,0a1.251,1.251,0,0,0,.183.749.547.547,0,0,0,.454.245.528.528,0,0,0,.435-.248,1.261,1.261,0,0,0,.182-.746,1.247,1.247,0,0,0-.183-.746.548.548,0,0,0-.454-.246.53.53,0,0,0-.436.248,1.265,1.265,0,0,0-.18.744" transform="translate(-19.431 -8.639)" fill="#848484"/><path d="M91.2,41.82v-2.59h.324v.392a1.1,1.1,0,0,1,.228-.362.35.35,0,0,1,.233-.088.614.614,0,0,1,.368.14l-.122.408a.452.452,0,0,0-.261-.1.318.318,0,0,0-.21.081.435.435,0,0,0-.134.224,2.008,2.008,0,0,0-.069.534V41.82Z" transform="translate(-20.114 -8.639)" fill="#848484"/><path d="M94.3,41.5a1.341,1.341,0,0,1-.376.283.92.92,0,0,1-.405.1.71.71,0,0,1-.529-.2.737.737,0,0,1-.2-.539.834.834,0,0,1,.093-.4.689.689,0,0,1,.253-.27,1.33,1.33,0,0,1,.488-.143,2.764,2.764,0,0,0,.644-.154l0-.113a.564.564,0,0,0-.1-.373.513.513,0,0,0-.412-.156.578.578,0,0,0-.375.1.679.679,0,0,0-.183.391l-.354-.058a.979.979,0,0,1,.306-.607,1.015,1.015,0,0,1,.661-.19.938.938,0,0,1,.524.126.534.534,0,0,1,.24.31,2.166,2.166,0,0,1,.05.542v.585a7.62,7.62,0,0,0,.023.774,1.181,1.181,0,0,0,.092.312H94.37a1.078,1.078,0,0,1-.072-.32m-.03-.981a2.269,2.269,0,0,1-.588.165,1.12,1.12,0,0,0-.316.09.349.349,0,0,0-.14.141.44.44,0,0,0-.05.211.392.392,0,0,0,.115.3.441.441,0,0,0,.316.111.635.635,0,0,0,.351-.1.628.628,0,0,0,.235-.267,1.188,1.188,0,0,0,.078-.487Z" transform="translate(-20.465 -8.639)" fill="#848484"/><path d="M98.751,40.985l.37.057a1.126,1.126,0,0,1-.335.625.883.883,0,0,1-.6.211.9.9,0,0,1-.731-.343,1.532,1.532,0,0,1-.279-.989,1.609,1.609,0,0,1,.281-1.023.878.878,0,0,1,.714-.352.847.847,0,0,1,.688.346,1.58,1.58,0,0,1,.274,1l0,.117H97.546a1.122,1.122,0,0,0,.2.659.547.547,0,0,0,.44.221c.269,0,.458-.176.564-.532m-1.184-.709h1.186a.984.984,0,0,0-.143-.5.523.523,0,0,0-.854-.041.885.885,0,0,0-.189.543" transform="translate(-21.432 -8.639)" fill="#848484"/><path d="M101.615,40.388l.366-.038a1.073,1.073,0,0,0,.133.459.755.755,0,0,0,.3.265.935.935,0,0,0,.434.1.786.786,0,0,0,.539-.17.557.557,0,0,0,.19-.44.5.5,0,0,0-.279-.47,3.841,3.841,0,0,0-.606-.213,2.179,2.179,0,0,1-.59-.247.869.869,0,0,1-.273-.316,1.028,1.028,0,0,1,.183-1.143,1.032,1.032,0,0,1,.756-.276,1.214,1.214,0,0,1,.572.129.912.912,0,0,1,.38.37,1.22,1.22,0,0,1,.146.569l-.374.034a.768.768,0,0,0-.208-.517.7.7,0,0,0-.5-.168.757.757,0,0,0-.5.147.477.477,0,0,0-.173.381.438.438,0,0,0,.127.337,1.5,1.5,0,0,0,.57.242,3.835,3.835,0,0,1,.61.209,1,1,0,0,1,.406.36,1.006,1.006,0,0,1,.136.533,1.11,1.11,0,0,1-.144.559.977.977,0,0,1-.391.383,1.265,1.265,0,0,1-.6.132,1.161,1.161,0,0,1-.867-.327,1.244,1.244,0,0,1-.336-.885" transform="translate(-22.411 -8.359)" fill="#848484"/><path d="M105.223,37.982h.358v.505h-.358Zm0,.985h.358v2.59h-.358Z" transform="translate(-23.207 -8.377)" fill="#848484"/><path d="M106.212,41.044l.359-.068a.634.634,0,0,0,.172.408.525.525,0,0,0,.375.133.517.517,0,0,0,.362-.116.379.379,0,0,0,.128-.294.288.288,0,0,0-.11-.239,1.411,1.411,0,0,0-.366-.146,2.726,2.726,0,0,1-.56-.219.611.611,0,0,1-.22-.242.737.737,0,0,1-.079-.344.727.727,0,0,1,.212-.539.8.8,0,0,1,.588-.207.965.965,0,0,1,.417.085.651.651,0,0,1,.274.229,1,1,0,0,1,.133.412l-.352.058a.422.422,0,0,0-.461-.425.549.549,0,0,0-.348.094.3.3,0,0,0-.115.24.268.268,0,0,0,.111.226,1.92,1.92,0,0,0,.391.155,3,3,0,0,1,.578.226.579.579,0,0,1,.2.23.757.757,0,0,1,.072.345.8.8,0,0,1-.235.6.878.878,0,0,1-.642.23.836.836,0,0,1-.885-.834" transform="translate(-23.425 -8.639)" fill="#848484"/><path d="M109.768,41.187l.048.388a1.051,1.051,0,0,1-.269.039.536.536,0,0,1-.3-.075.373.373,0,0,1-.157-.2,1.952,1.952,0,0,1-.043-.514v-1.49h-.263V38.99h.263v-.642l.359-.263v.9h.364v.341H109.4v1.515a.7.7,0,0,0,.032.27.176.176,0,0,0,.173.087.948.948,0,0,0,.159-.017" transform="translate(-23.992 -8.4)" fill="#848484"/><path d="M111.9,40.985l.37.057a1.126,1.126,0,0,1-.335.625.883.883,0,0,1-.6.211.9.9,0,0,1-.731-.343,1.532,1.532,0,0,1-.279-.989,1.609,1.609,0,0,1,.281-1.023.878.878,0,0,1,.714-.352.847.847,0,0,1,.688.346,1.58,1.58,0,0,1,.274,1l0,.117h-1.585a1.122,1.122,0,0,0,.2.659.547.547,0,0,0,.44.221c.269,0,.458-.176.564-.532m-1.184-.709H111.9a.984.984,0,0,0-.143-.5.523.523,0,0,0-.853-.041.885.885,0,0,0-.189.543" transform="translate(-24.332 -8.639)" fill="#848484"/><path d="M113.407,41.82v-2.59h.322v.36a.816.816,0,0,1,.274-.31.667.667,0,0,1,.368-.108.62.62,0,0,1,.38.115.627.627,0,0,1,.221.336.964.964,0,0,1,.292-.337.634.634,0,0,1,.366-.113.6.6,0,0,1,.482.207,1.013,1.013,0,0,1,.177.664V41.82h-.359V40.187a1.321,1.321,0,0,0-.04-.394.353.353,0,0,0-.132-.18.343.343,0,0,0-.2-.064.463.463,0,0,0-.38.186.927.927,0,0,0-.147.579V41.82h-.359V40.135a.784.784,0,0,0-.1-.455.322.322,0,0,0-.271-.132.458.458,0,0,0-.391.2,1.334,1.334,0,0,0-.143.727V41.82Z" transform="translate(-25.012 -8.639)" fill="#848484"/><path d="M119.129,41.5a1.341,1.341,0,0,1-.376.283.92.92,0,0,1-.405.1.71.71,0,0,1-.529-.2.737.737,0,0,1-.2-.539.834.834,0,0,1,.093-.4.689.689,0,0,1,.253-.27,1.33,1.33,0,0,1,.488-.143,2.765,2.765,0,0,0,.644-.154l0-.113a.564.564,0,0,0-.1-.373.513.513,0,0,0-.412-.156.578.578,0,0,0-.375.1.679.679,0,0,0-.183.391l-.354-.058a.979.979,0,0,1,.306-.607,1.015,1.015,0,0,1,.661-.19.938.938,0,0,1,.524.126.534.534,0,0,1,.24.31,2.166,2.166,0,0,1,.05.542v.585a7.62,7.62,0,0,0,.023.774,1.182,1.182,0,0,0,.092.312H119.2a1.078,1.078,0,0,1-.072-.32m-.03-.981a2.269,2.269,0,0,1-.588.165,1.1,1.1,0,0,0-.316.09.346.346,0,0,0-.141.141.44.44,0,0,0-.05.211.392.392,0,0,0,.115.3.441.441,0,0,0,.316.111.635.635,0,0,0,.351-.1.628.628,0,0,0,.235-.267,1.188,1.188,0,0,0,.078-.487Z" transform="translate(-25.942 -8.639)" fill="#848484"/><path d="M120.526,41.044l.359-.068a.634.634,0,0,0,.172.408.525.525,0,0,0,.375.133.517.517,0,0,0,.362-.116.379.379,0,0,0,.128-.294.288.288,0,0,0-.11-.239,1.411,1.411,0,0,0-.366-.146,2.726,2.726,0,0,1-.56-.219.61.61,0,0,1-.22-.242.737.737,0,0,1-.079-.344.724.724,0,0,1,.212-.539.8.8,0,0,1,.588-.207.965.965,0,0,1,.417.085.651.651,0,0,1,.274.229,1,1,0,0,1,.133.412l-.352.058a.422.422,0,0,0-.461-.425.549.549,0,0,0-.348.094.3.3,0,0,0-.115.24.268.268,0,0,0,.111.226,1.92,1.92,0,0,0,.391.155,3,3,0,0,1,.578.226.579.579,0,0,1,.2.23.757.757,0,0,1,.072.345.8.8,0,0,1-.235.6.878.878,0,0,1-.642.23.836.836,0,0,1-.885-.834" transform="translate(-26.582 -8.639)" fill="#848484"/><path d="M124.871,41.558V37.982h2.119V38.4h-1.731V39.5h1.621v.422h-1.621v1.218h1.8v.422Z" transform="translate(-27.54 -8.377)" fill="#848484"/><path d="M129.638,41.557V41.23a.727.727,0,0,1-.251.287.6.6,0,0,1-.331.1.808.808,0,0,1-.652-.355,1.609,1.609,0,0,1-.274-1,2.046,2.046,0,0,1,.122-.749,1.006,1.006,0,0,1,.325-.456.749.749,0,0,1,.451-.148.618.618,0,0,1,.33.094.768.768,0,0,1,.253.262V37.982h.363v3.575ZM128.5,40.265a1.29,1.29,0,0,0,.174.746.5.5,0,0,0,.407.244.485.485,0,0,0,.4-.235,1.205,1.205,0,0,0,.168-.707,1.45,1.45,0,0,0-.168-.794.5.5,0,0,0-.424-.25.472.472,0,0,0-.391.241,1.374,1.374,0,0,0-.163.755" transform="translate(-28.259 -8.377)" fill="#848484"/><path d="M132.611,41.836v-.38a.937.937,0,0,1-.293.329.673.673,0,0,1-.38.11.686.686,0,0,1-.429-.135.653.653,0,0,1-.239-.344,2.159,2.159,0,0,1-.059-.565v-1.6h.359v1.437a2.29,2.29,0,0,0,.041.535.408.408,0,0,0,.148.217.4.4,0,0,0,.249.082.515.515,0,0,0,.424-.212,1.151,1.151,0,0,0,.141-.671V39.246h.362v2.59Z" transform="translate(-28.938 -8.656)" fill="#848484"/><path d="M135.507,40.87l.354.056a1.187,1.187,0,0,1-.307.708.8.8,0,0,1-.589.244.833.833,0,0,1-.686-.343,1.613,1.613,0,0,1-.27-1.013,1.591,1.591,0,0,1,.272-1.013.853.853,0,0,1,.7-.338.8.8,0,0,1,.556.2,1.015,1.015,0,0,1,.288.615l-.348.063a.763.763,0,0,0-.178-.392.414.414,0,0,0-.306-.13.529.529,0,0,0-.44.235,1.272,1.272,0,0,0-.174.747,1.363,1.363,0,0,0,.166.766.506.506,0,0,0,.429.237.459.459,0,0,0,.351-.158.859.859,0,0,0,.184-.489" transform="translate(-29.556 -8.639)" fill="#848484"/><path d="M138.123,41.5a1.341,1.341,0,0,1-.376.283.92.92,0,0,1-.405.1.71.71,0,0,1-.529-.2.737.737,0,0,1-.2-.539.834.834,0,0,1,.093-.4.689.689,0,0,1,.253-.27,1.33,1.33,0,0,1,.488-.143,2.765,2.765,0,0,0,.644-.154l0-.113a.564.564,0,0,0-.1-.373.513.513,0,0,0-.412-.156.578.578,0,0,0-.375.1.679.679,0,0,0-.183.391l-.354-.058a.979.979,0,0,1,.306-.607,1.015,1.015,0,0,1,.661-.19.938.938,0,0,1,.524.126.534.534,0,0,1,.24.31,2.166,2.166,0,0,1,.05.542v.585a7.623,7.623,0,0,0,.023.774,1.182,1.182,0,0,0,.092.312H138.2a1.078,1.078,0,0,1-.072-.32m-.03-.981a2.269,2.269,0,0,1-.588.165,1.12,1.12,0,0,0-.316.09.349.349,0,0,0-.14.141.44.44,0,0,0-.05.211.392.392,0,0,0,.115.3.441.441,0,0,0,.316.111.635.635,0,0,0,.351-.1.628.628,0,0,0,.235-.267,1.188,1.188,0,0,0,.078-.487Z" transform="translate(-30.131 -8.639)" fill="#848484"/><path d="M141.058,40.87l.354.056a1.187,1.187,0,0,1-.307.708.8.8,0,0,1-.589.244.833.833,0,0,1-.686-.343,1.613,1.613,0,0,1-.27-1.013,1.591,1.591,0,0,1,.272-1.013.853.853,0,0,1,.7-.338.8.8,0,0,1,.556.2,1.015,1.015,0,0,1,.288.615l-.348.063a.763.763,0,0,0-.178-.392.414.414,0,0,0-.306-.13.529.529,0,0,0-.44.235,1.272,1.272,0,0,0-.174.747,1.364,1.364,0,0,0,.166.766.506.506,0,0,0,.429.237.459.459,0,0,0,.351-.158.859.859,0,0,0,.184-.489" transform="translate(-30.78 -8.639)" fill="#848484"/><path d="M142.328,37.982h.358v.505h-.358Zm0,.985h.358v2.59h-.358Z" transform="translate(-31.39 -8.377)" fill="#848484"/><path d="M143.319,40.524a1.556,1.556,0,0,1,.282-1.012.912.912,0,0,1,1.423,0,1.5,1.5,0,0,1,.286.985,1.606,1.606,0,0,1-.281,1.039.913.913,0,0,1-1.426,0,1.552,1.552,0,0,1-.285-1.012m.369,0a1.251,1.251,0,0,0,.183.749.548.548,0,0,0,.454.245.527.527,0,0,0,.435-.248,1.256,1.256,0,0,0,.182-.746,1.242,1.242,0,0,0-.183-.746.548.548,0,0,0-.454-.246.531.531,0,0,0-.436.248,1.265,1.265,0,0,0-.18.744" transform="translate(-31.609 -8.639)" fill="#848484"/><path d="M146.418,41.82v-2.59h.324V39.6a.826.826,0,0,1,.286-.319.719.719,0,0,1,.388-.105.743.743,0,0,1,.315.067.654.654,0,0,1,.235.175.72.72,0,0,1,.133.282,2.381,2.381,0,0,1,.044.532V41.82h-.359V40.242a1.318,1.318,0,0,0-.049-.418.414.414,0,0,0-.152-.2.409.409,0,0,0-.241-.072.5.5,0,0,0-.412.194,1.082,1.082,0,0,0-.154.661V41.82Z" transform="translate(-32.293 -8.639)" fill="#848484"/><path d="M150.687,41.5a1.341,1.341,0,0,1-.376.283.92.92,0,0,1-.405.1.71.71,0,0,1-.529-.2.737.737,0,0,1-.2-.539.834.834,0,0,1,.093-.4.689.689,0,0,1,.253-.27,1.33,1.33,0,0,1,.488-.143,2.765,2.765,0,0,0,.644-.154l0-.113a.564.564,0,0,0-.1-.373.513.513,0,0,0-.412-.156.578.578,0,0,0-.375.1.679.679,0,0,0-.183.391l-.354-.058a.979.979,0,0,1,.306-.607,1.015,1.015,0,0,1,.661-.19.938.938,0,0,1,.524.126.534.534,0,0,1,.24.31,2.167,2.167,0,0,1,.05.542v.585a7.616,7.616,0,0,0,.023.774,1.182,1.182,0,0,0,.092.312h-.376a1.078,1.078,0,0,1-.072-.32m-.03-.981a2.269,2.269,0,0,1-.588.165,1.12,1.12,0,0,0-.316.09.349.349,0,0,0-.14.141.44.44,0,0,0-.05.211.392.392,0,0,0,.115.3.441.441,0,0,0,.316.111.635.635,0,0,0,.351-.1.628.628,0,0,0,.235-.267,1.188,1.188,0,0,0,.078-.487Z" transform="translate(-32.902 -8.639)" fill="#848484"/><path d="M152.264,37.982h.358v.505h-.358Zm0,.985h.358v2.59h-.358Z" transform="translate(-33.582 -8.377)" fill="#848484"/><path d="M153.252,41.044l.359-.068a.634.634,0,0,0,.172.408.525.525,0,0,0,.375.133.517.517,0,0,0,.362-.116.379.379,0,0,0,.128-.294.288.288,0,0,0-.11-.239,1.411,1.411,0,0,0-.366-.146,2.725,2.725,0,0,1-.56-.219.611.611,0,0,1-.22-.242.737.737,0,0,1-.079-.344.724.724,0,0,1,.212-.539.8.8,0,0,1,.588-.207.965.965,0,0,1,.417.085.651.651,0,0,1,.274.229,1,1,0,0,1,.133.412l-.352.058a.422.422,0,0,0-.461-.425.549.549,0,0,0-.348.094.3.3,0,0,0-.115.24.268.268,0,0,0,.111.226,1.92,1.92,0,0,0,.391.155,3,3,0,0,1,.578.226.579.579,0,0,1,.2.23.757.757,0,0,1,.072.345.8.8,0,0,1-.235.6.878.878,0,0,1-.642.23.836.836,0,0,1-.885-.834" transform="translate(-33.8 -8.639)" fill="#848484"/><path d="M157.555,41.558V37.982h.388v3.154h1.444v.422Z" transform="translate(-34.749 -8.377)" fill="#848484"/><path d="M161.191,41.187l.048.388a1.051,1.051,0,0,1-.269.039.536.536,0,0,1-.3-.075.373.373,0,0,1-.157-.2,1.951,1.951,0,0,1-.043-.514v-1.49h-.263V38.99h.263v-.642l.359-.263v.9h.364v.341h-.364v1.515a.7.7,0,0,0,.032.27.176.176,0,0,0,.173.087.948.948,0,0,0,.159-.017" transform="translate(-35.333 -8.4)" fill="#848484"/><path d="M163.244,41.557V41.23a.727.727,0,0,1-.251.287.6.6,0,0,1-.331.1.808.808,0,0,1-.652-.355,1.609,1.609,0,0,1-.274-1,2.046,2.046,0,0,1,.122-.749,1,1,0,0,1,.325-.456.749.749,0,0,1,.451-.148.618.618,0,0,1,.33.094.768.768,0,0,1,.253.262V37.982h.363v3.575Zm-1.139-1.292a1.29,1.29,0,0,0,.174.746.5.5,0,0,0,.407.244.485.485,0,0,0,.4-.235,1.205,1.205,0,0,0,.168-.707,1.45,1.45,0,0,0-.168-.794.5.5,0,0,0-.424-.25.472.472,0,0,0-.391.241,1.374,1.374,0,0,0-.163.755" transform="translate(-35.671 -8.377)" fill="#848484"/><path d="M166.176,41.5a1.32,1.32,0,0,1-.376.283.918.918,0,0,1-.405.1.71.71,0,0,1-.529-.2.737.737,0,0,1-.2-.539.825.825,0,0,1,.093-.4.689.689,0,0,1,.253-.27,1.325,1.325,0,0,1,.487-.143,2.754,2.754,0,0,0,.644-.154l0-.113a.564.564,0,0,0-.1-.373.512.512,0,0,0-.412-.156.575.575,0,0,0-.375.1.679.679,0,0,0-.183.391l-.354-.058a.975.975,0,0,1,.306-.607,1.011,1.011,0,0,1,.66-.19.936.936,0,0,1,.524.126.531.531,0,0,1,.24.31,2.159,2.159,0,0,1,.051.542v.585a7.623,7.623,0,0,0,.023.774,1.151,1.151,0,0,0,.091.312h-.376a1.1,1.1,0,0,1-.072-.32m-.03-.981a2.26,2.26,0,0,1-.588.165,1.1,1.1,0,0,0-.316.09.351.351,0,0,0-.141.141.449.449,0,0,0-.049.211.389.389,0,0,0,.115.3.439.439,0,0,0,.316.111.638.638,0,0,0,.352-.1.631.631,0,0,0,.235-.267,1.188,1.188,0,0,0,.078-.487Z" transform="translate(-36.318 -8.639)" fill="#848484"/><path d="M46.749,28.248v-.9l1.847-.268a1.011,1.011,0,0,0,.4-.1.408.408,0,0,0,.213-.228,15.519,15.519,0,0,0,.268-2.865q.111-2.439.111-5.817V15.574q0-3.015-.032-4.444T49.432,8.5l-1.783-.3.016-.9q.711.015,1.547.024t2.478.008q1.642,0,2.455-.008T55.636,7.3q2.794,3.821,5.478,7.229t5.224,6.345q0-4.639-.118-7.923a30.634,30.634,0,0,0-.292-4.025.6.6,0,0,0-.2-.339,1.009,1.009,0,0,0-.449-.15L63.749,8.2l.016-.9q.6.015,1.278.024t1.972.008q1.294,0,1.9-.008t1.1-.024l.016.9-1.4.236a1.307,1.307,0,0,0-.4.134.429.429,0,0,0-.2.214,12.919,12.919,0,0,0-.268,2.786q-.1,2.377-.1,6.1,0,1.91.047,7.451.016,2.02.016,3.125H63.464q-1.831-2.778-5.114-6.937T50.758,12.2q.094,5.762.26,9.629a44.225,44.225,0,0,0,.356,4.815.527.527,0,0,0,.189.315.959.959,0,0,0,.441.158l1.832.237-.016.9q-1.23-.032-1.973-.047t-1.4-.016q-1.106,0-3.5.063Z" transform="translate(-10.311 -1.611)" fill="#848484"/><path d="M86.462,22.271a7.033,7.033,0,0,0,1.278,4.451,4.339,4.339,0,0,0,3.568,1.531,6.376,6.376,0,0,0,2.044-.355,9.87,9.87,0,0,0,2.154-1.066v1.2a15.433,15.433,0,0,1-3.7,1.483,16.475,16.475,0,0,1-4.08.489,8.737,8.737,0,0,1-6.353-2.274,8.2,8.2,0,0,1-2.344-6.171,7.474,7.474,0,0,1,2.723-6.172q2.723-2.195,7.647-2.194a8.732,8.732,0,0,1,5.288,1.349,4.67,4.67,0,0,1,1.8,3.985c0,.19-.021.511-.064.963v.1q-2.289.567-4.759,1.239t-5.2,1.444m4.451-2.557c0-.125.005-.316.016-.568s.016-.436.016-.553a7.709,7.709,0,0,0-.474-3.188,1.62,1.62,0,0,0-1.564-.947,2.127,2.127,0,0,0-2,1.042,7.658,7.658,0,0,0-.6,3.567c0,.274.007.587.023.939s.039.75.071,1.192Z" transform="translate(-17.43 -2.91)" fill="#848484"/><path d="M104.2,29.655v-.9l1.847-.537q.078-1.2.118-2.754t.039-3.8q0-3.032-.023-4.294t-.072-2.163l-1.909-.457v-.979a.464.464,0,0,1,.1.016q2.825.064,4.214.063.758,0,1.658-.019t2.509-.059q-.095.919-.15,1.925t-.071,2.147A8.7,8.7,0,0,1,114.9,14.7a5.254,5.254,0,0,1,4.018-.94,8.647,8.647,0,0,1,1.034.253q-.347,1.327-.647,2.739t-.553,2.88h-.931a2.269,2.269,0,0,0-.656-1.562,2.194,2.194,0,0,0-1.586-.569,2.552,2.552,0,0,0-2.367,1.082q-.664,1.081-.663,4.87v4.814l2.352.489v.9q-.962-.032-2.1-.047t-3.363-.016q-2.178,0-3.25.016t-1.989.047" transform="translate(-22.981 -3.017)" fill="#848484"/><path d="M125.51,27.663v-.9l1.847-.4V22.785q0-3.094-.032-5.445t-.1-4.23l-1.91-.316v-.978q.458,0,1.444.023t1.492.023q1.341,0,2.77-.03t2.928-.064q-.032.694-.047,1.429t-.016,1.792q0,3.913.055,6.842t.165,4.507l1.847.426v.9q-.915-.033-1.973-.048t-3.205-.016q-2.162,0-3.243.016t-2.028.048m2.068-20.2a2.667,2.667,0,0,1,.829-2.021,2.955,2.955,0,0,1,2.122-.789,2.907,2.907,0,0,1,2.084.813,2.653,2.653,0,0,1,.853,2,2.68,2.68,0,0,1-.821,2.029,3.252,3.252,0,0,1-4.239-.009,2.668,2.668,0,0,1-.829-2.02" transform="translate(-27.64 -1.025)" fill="#848484"/><path d="M152.85,29.548v-1.42a12,12,0,0,1-3.069,1.348,12.837,12.837,0,0,1-3.433.435,4.878,4.878,0,0,1-3.583-1.248,4.763,4.763,0,0,1-1.263-3.55,4.519,4.519,0,0,1,2.179-4.088q2.178-1.373,6.519-1.373.789,0,1.4.007c.405.005.822.014,1.254.025v-.189a7.256,7.256,0,0,0-.773-3.891,2.9,2.9,0,0,0-2.589-1.144,4.367,4.367,0,0,0-3.165,1.1,4.76,4.76,0,0,0-1.3,3.189l-.994.063q-.143-1.058-.363-2.115t-.537-2.115a18.723,18.723,0,0,1,3.883-1.041,29.036,29.036,0,0,1,4.672-.347,23.5,23.5,0,0,1,3.575.228,5.85,5.85,0,0,1,2.186.7,3.65,3.65,0,0,1,1.461,1.752,11.549,11.549,0,0,1,.418,3.741v1.389q0,.932-.04,2.691t-.04,2.581a11.426,11.426,0,0,0,.048,1.144,2.322,2.322,0,0,0,.125.639q.081.191,1.563.474c.242.041.432.079.568.111l-.015.9c-.327-.011-.694-.018-1.105-.023s-1.016-.009-1.815-.009q-.98,0-2.9.016t-2.865.016m.064-3.882v-3.52q0-.915-.245-1.121a1.434,1.434,0,0,0-.892-.206,3.417,3.417,0,0,0-2.581.75,4.374,4.374,0,0,0-.671,2.833,4.2,4.2,0,0,0,.521,2.368,1.9,1.9,0,0,0,1.673.742,3.246,3.246,0,0,0,1.721-.324q.472-.323.474-1.522" transform="translate(-31.208 -2.91)" fill="#848484"/><path d="M168.693,27.69v-.9l2.02-.426q.11-1.389.157-3.766t.048-8.973q0-2.967-.048-4.491t-.142-2.849l-2.274-.521V4.772h.1q2.952.062,4.4.062c.535,0,1.121-.005,1.751-.016l2.73-.047q-.126,1.956-.2,4.229t-.1,4.94a10.954,10.954,0,0,1,3.054-1.7,9.953,9.953,0,0,1,3.338-.56q2.652,0,3.623,1.066t.97,4.427q0,.837-.039,2.5t-.04,2.487q0,1.009.023,2.027t.087,2.076l1.8.521v.9q-.852-.032-1.854-.047t-3.023-.016q-2.036,0-3.063.016t-1.909.047v-.9l1.452-.506q.047-1.768.072-3.583t.023-3.677a10.954,10.954,0,0,0-.435-3.915,1.587,1.587,0,0,0-1.571-.9,2.125,2.125,0,0,0-2.013,1.081,8.5,8.5,0,0,0-.607,3.827q0,2.178.023,3.97t.072,3.165l2.13.537v.9q-1.025-.032-2.193-.047t-3.395-.016q-2.114,0-3.125.016t-1.847.047" transform="translate(-37.153 -1.053)" fill="#848484"/><path d="M16.993.442a14.906,14.906,0,0,1,14.269,19.25l.158.122a1.071,1.071,0,0,1,.189.241,15.356,15.356,0,1,0-29.976-4.7c0,.488.029.97.073,1.446a2.531,2.531,0,0,1,.433-.178c-.035-.419-.064-.84-.064-1.268A14.933,14.933,0,0,1,16.993.442" transform="translate(-0.36 0)" fill="#848484"/><path d="M32.293,29.049a1.062,1.062,0,0,1-.308-.036,14.864,14.864,0,0,1-21,5.326,1.774,1.774,0,0,1-.409.267,15.325,15.325,0,0,0,21.913-5.584l-.2.027" transform="translate(-2.333 -6.399)" fill="#848484"/><path d="M31.952,29a14.885,14.885,0,0,1-21.188,5.23,1.22,1.22,0,0,1-.323.315A15.324,15.324,0,0,0,32.4,29.095a1.414,1.414,0,0,1-.451-.1" transform="translate(-2.303 -6.396)" fill="#848484"/><path d="M34.852,26.67,33.1,25.317a2.016,2.016,0,0,1-.072.362l1.554,1.2-.083.864c-1.034.118-2.216.171-3.465.224-3.113.136-6.642.289-8.837,1.6-.883.526-1.011.517-2.557.4l-.229-.017c-1.264-.1-5.641,1.834-9.637,3.644-.455.207-.848.383-1.15.518l.076-.946a2.341,2.341,0,0,1-.344.135l-.084,1.062a.165.165,0,0,0,.069.148.168.168,0,0,0,.1.031.162.162,0,0,0,.065-.014c.323-.14.811-.362,1.409-.631,2.657-1.2,8.194-3.7,9.476-3.616l.229.016c1.541.115,1.778.131,2.751-.448,2.122-1.263,5.607-1.415,8.682-1.549,1.308-.057,2.544-.111,3.621-.242a.164.164,0,0,0,.145-.148l.106-1.09a.164.164,0,0,0-.064-.147" transform="translate(-1.823 -5.584)" fill="#848484"/><path d="M20.133,25.418,15.625,21.1a1.926,1.926,0,0,1-.325.148l4.16,3.981c-4.015-.822-7.812,1.361-12.161,3.9l-5.424-8.6c.589-.379,1.09-.712,1.532-1.006A10.122,10.122,0,0,1,8.7,17.31a3.923,3.923,0,0,1,3.216.786,2.505,2.505,0,0,1,.048-.374,4.231,4.231,0,0,0-3.309-.74,10.494,10.494,0,0,0-5.437,2.264c-.475.316-1.018.677-1.666,1.091a.165.165,0,0,0-.051.228l5.6,8.878a.164.164,0,0,0,.224.055c4.56-2.659,8.5-4.959,12.647-3.8a.165.165,0,0,0,.159-.279" transform="translate(-0.327 -3.732)" fill="#848484"/><path d="M8.729,34.066a.17.17,0,0,1-.086-.024.165.165,0,0,1-.08-.143l.024-2.331a.166.166,0,0,1,.073-.136c4.7-3.166,7.322-4.5,12.725-3.961a.166.166,0,0,1,.117.263,3.168,3.168,0,0,0-.647,2.188.166.166,0,0,1-.044.123.163.163,0,0,1-.119.053c-3.752.053-6.085.829-11.884,3.948a.164.164,0,0,1-.078.02m.189-2.408L8.9,33.622c5.591-2.995,7.954-3.778,11.62-3.853a3.514,3.514,0,0,1,.553-1.995c-5.078-.451-7.65.854-12.152,3.884" transform="translate(-1.889 -6.033)" fill="#848484"/><path d="M6.608,33.966a.166.166,0,0,1-.142-.08L.023,23.181a.166.166,0,0,1-.013-.143.163.163,0,0,1,.1-.1l.656-.21a.167.167,0,0,1,.192.071l5.907,9.6a.173.173,0,0,1,.024.1l-.12,1.315a.164.164,0,0,1-.128.146.154.154,0,0,1-.037,0M.415,23.189,6.489,33.281l.069-.755L.747,23.082Z" transform="translate(0 -5.011)" fill="#848484"/><path d="M6.863,32.74a.165.165,0,0,1-.143-.083L.861,22.64a.17.17,0,0,1-.023-.077c-.03-.755.017-.952.583-1.312a.164.164,0,0,1,.229.051L7.1,29.984a.166.166,0,0,1,.025.094l-.091,2.5a.165.165,0,0,1-.125.154.145.145,0,0,1-.041.005m-5.7-10.232L6.719,32l.069-1.881-5.328-8.5c-.292.2-.313.318-.292.886" transform="translate(-0.183 -4.681)" fill="#848484"/><path d="M26.421,28.448A.166.166,0,0,1,26.3,28.4c-.66-.665-.861-.592-1.7-.286-.111.041-.231.083-.363.129a.166.166,0,0,1-.185-.259,2.532,2.532,0,0,0,.1-.239,2.445,2.445,0,0,1,.105-.239c2.347-3.766,9.347-3.953,11.613-3.723a.167.167,0,0,1,.133.093L37.19,26.33a.166.166,0,0,1-.149.238c-.426,0-.831,0-1.221,0-3.615,0-5.791-.009-9.321,1.861a.163.163,0,0,1-.078.019m-.979-.893a1.451,1.451,0,0,1,1.009.525c3.542-1.853,5.745-1.861,9.37-1.842.309,0,.628,0,.957,0L35.748,24.1c-2.306-.216-8.979,0-11.205,3.577a1.174,1.174,0,0,0-.052.118,2.99,2.99,0,0,1,.952-.246" transform="translate(-5.297 -5.231)" fill="#848484"/><path d="M34.885,21.867l-8.776-6.6a2.638,2.638,0,0,0-1.27-.387c-.105.1-.214.2-.323.306a2.666,2.666,0,0,1,1.393.346l8.368,6.293c-4.7-.078-6.423.111-10.57,2.819l-4.3-4.1c-.083.073-.164.15-.249.221l4.417,4.206a.166.166,0,0,0,.114.046.169.169,0,0,0,.091-.027c4.308-2.831,5.836-2.928,11-2.829a.166.166,0,0,0,.1-.3" transform="translate(-4.225 -3.282)" fill="#848484"/><path d="M14.906,22.2a.7.7,0,0,1-.309-.067c-.306-.145-.485-.5-.558-1.126-.284-.292-.589-.622-.534-.988a.676.676,0,0,1,.306-.447.7.7,0,0,1,.314-.785c-.294-.449-.15-.708.26-1.108a4.884,4.884,0,0,1-.059-1.91,7.733,7.733,0,0,0-.426-3c-.533-1.984-1.137-4.233.843-6.186a6.1,6.1,0,0,1,4.712-1.941,5.005,5.005,0,0,1,3.665,2.109c2.132,2.911,1.661,5.863-1.291,8.1l-.344.26a12.115,12.115,0,0,0-1.545,1.282,4.092,4.092,0,0,0-.735,1.136A1.95,1.95,0,0,1,17.85,18.8l.027.1a.6.6,0,0,1-.116.7c-.044.059-.1.136-.175.242a.768.768,0,0,1-.163.7c-.03.042-.064.092-.1.154a1.144,1.144,0,0,1-.357.915,1.148,1.148,0,0,1-.916.122,2.35,2.35,0,0,1-1.14.465M19.058,5.061a5.781,5.781,0,0,0-4.006,1.829c-1.8,1.773-1.253,3.8-.726,5.758a8.023,8.023,0,0,1,.436,3.183,4.5,4.5,0,0,0,.081,1.863l.03.125-.093.088c-.461.436-.456.442-.17.79l.161.2-.215.133c-.36.221-.359.228-.288.61l.03.159-.143.077c-.09.048-.2.125-.214.21-.025.163.248.444.447.648l.054.055.027.1c.048.479.158.773.317.849.235.115.737-.186,1.094-.419l.078-.051.092.021a.83.83,0,0,0,.641-.022c.114-.088.175-.3.188-.641l0-.059.032-.05c.057-.092.106-.163.147-.221.124-.178.124-.178.076-.458l-.015-.086.048-.073c.1-.154.179-.257.236-.334a.91.91,0,0,0,.088-.125,1.628,1.628,0,0,0-.045-.194c-.022-.083-.049-.188-.081-.327l-.051-.22.221-.045a1.55,1.55,0,0,0,1.267-1.1,4.467,4.467,0,0,1,.812-1.247,12.355,12.355,0,0,1,1.6-1.332l.343-.259c1.6-1.214,3.895-3.8,1.2-7.483a4.573,4.573,0,0,0-3.344-1.93c-.119-.01-.24-.015-.36-.015" transform="translate(-2.95 -1.019)" fill="#848484"/><path d="M17.613,23.985a4.564,4.564,0,0,1-3.032-.992l.249-.366a4.116,4.116,0,0,0,2.8.917Z" transform="translate(-3.216 -4.99)" fill="#848484"/><path d="M17.2,25.079a4.563,4.563,0,0,1-3.032-.992l.249-.366a4.12,4.12,0,0,0,2.8.917Z" transform="translate(-3.125 -5.232)" fill="#848484"/><path d="M16.215,26.263a2.818,2.818,0,0,1-1.885-.6l.246-.366a2.4,2.4,0,0,0,1.649.521Z" transform="translate(-3.16 -5.58)" fill="#848484"/><path d="M17.854,22.525a4.565,4.565,0,0,1-3.033-.992l.249-.366a4.119,4.119,0,0,0,2.8.917Z" transform="translate(-3.269 -4.668)" fill="#848484"/><path d="M11.308,12.3a.864.864,0,0,0-.754-.345c-.666,0-1.921.5-.725.959a1.144,1.144,0,0,0,1.479-.613" transform="translate(-2.058 -2.636)" fill="#848484" fill-rule="evenodd"/><path d="M10.2,13.152a1.455,1.455,0,0,1-.518-.1c-.471-.182-.684-.415-.631-.692.087-.464.961-.694,1.431-.694h.005a1.081,1.081,0,0,1,.935.44l.076.11-.062.118a1.368,1.368,0,0,1-1.236.814m-.714-.707a.96.96,0,0,0,.355.2.906.906,0,0,0,1.128-.382.719.719,0,0,0-.483-.15h-.005a1.5,1.5,0,0,0-.995.334" transform="translate(-1.995 -2.574)" fill="#848484"/><path d="M27.8,7.522a.866.866,0,0,0,.829-.022c.6-.292,1.505-1.294.229-1.18a1.144,1.144,0,0,0-1.058,1.2" transform="translate(-6.13 -1.392)" fill="#848484" fill-rule="evenodd"/><path d="M28.1,7.777a.964.964,0,0,1-.475-.124l-.115-.065,0-.134a1.358,1.358,0,0,1,1.257-1.416c.5-.047.8.071.871.344.127.456-.561,1.051-.983,1.256a1.282,1.282,0,0,1-.558.14m-.135-.459a.723.723,0,0,0,.5-.078c.391-.19.762-.61.75-.74a.815.815,0,0,0-.239-.029c-.047,0-.1,0-.168.008a.9.9,0,0,0-.844.839" transform="translate(-6.067 -1.33)" fill="#848484"/><path d="M12.3,6.921a.867.867,0,0,0-.437-.7c-.554-.369-1.878-.645-1.134.4a1.143,1.143,0,0,0,1.571.3" transform="translate(-2.318 -1.298)" fill="#848484" fill-rule="evenodd"/><path d="M11.579,7.266a1.353,1.353,0,0,1-1.093-.584c-.293-.412-.341-.723-.145-.927.33-.34,1.192-.046,1.582.215a1.08,1.08,0,0,1,.535.883l0,.134-.117.064a1.583,1.583,0,0,1-.765.214m-.921-1.2a.976.976,0,0,0,.188.362A.905.905,0,0,0,12,6.73a.712.712,0,0,0-.32-.391,1.5,1.5,0,0,0-1.019-.274" transform="translate(-2.255 -1.236)" fill="#848484"/><path d="M29.234,12.772a.864.864,0,0,0,.7.44c.66.088,1.969-.249.842-.858a1.144,1.144,0,0,0-1.545.419" transform="translate(-6.448 -2.693)" fill="#848484" fill-rule="evenodd"/><path d="M30.091,13.384a1.961,1.961,0,0,1-.256-.016,1.084,1.084,0,0,1-.87-.557l-.062-.119.076-.109a1.358,1.358,0,0,1,1.832-.486c.444.239.624.5.538.767-.123.377-.776.52-1.258.52m-.658-.665a.718.718,0,0,0,.46.211,1.519,1.519,0,0,0,1.035-.2.986.986,0,0,0-.327-.242.905.905,0,0,0-1.168.234" transform="translate(-6.375 -2.63)" fill="#848484"/><path d="M16.98,3.937a.867.867,0,0,0,.007-.829c-.27-.609-1.242-1.548-1.172-.269a1.144,1.144,0,0,0,1.164,1.1" transform="translate(-3.487 -0.485)" fill="#848484" fill-rule="evenodd"/><path d="M17.038,4.1,16.9,4.095a1.36,1.36,0,0,1-1.372-1.307c-.027-.5.1-.793.373-.859.459-.111,1.03.6,1.221,1.027a1.082,1.082,0,0,1-.02,1.033ZM16.009,2.359a.99.99,0,0,0-.034.405.905.905,0,0,0,.81.873.715.715,0,0,0-.062-.5c-.175-.4-.576-.776-.71-.776h0" transform="translate(-3.425 -0.423)" fill="#848484"/><path d="M26.418,17.384a.866.866,0,0,0,.359.747c.511.427,1.8.843,1.17-.275a1.144,1.144,0,0,0-1.529-.472" transform="translate(-5.826 -3.808)" fill="#848484" fill-rule="evenodd"/><path d="M27.765,18.731a2.2,2.2,0,0,1-1.193-.493,1.082,1.082,0,0,1-.437-.936l.012-.133.123-.051a1.359,1.359,0,0,1,1.808.568c.246.44.261.755.044.935a.543.543,0,0,1-.356.11M26.58,17.475a.711.711,0,0,0,.276.424,1.519,1.519,0,0,0,.983.383.971.971,0,0,0-.147-.38.907.907,0,0,0-1.111-.427" transform="translate(-5.763 -3.745)" fill="#848484"/><path d="M22.506,4.127a.865.865,0,0,0,.588-.585c.236-.624.206-1.974-.645-1.015a1.143,1.143,0,0,0,.057,1.6" transform="translate(-4.885 -0.484)" fill="#848484" fill-rule="evenodd"/><path d="M22.369,4.311l-.09-.1a1.359,1.359,0,0,1-.057-1.894c.335-.377.628-.494.869-.348.405.245.313,1.15.147,1.589a1.081,1.081,0,0,1-.74.721Zm.494-1.963a.959.959,0,0,0-.31.263A.906.906,0,0,0,22.515,3.8a.716.716,0,0,0,.309-.4,1.51,1.51,0,0,0,.038-1.054" transform="translate(-4.822 -0.421)" fill="#848484"/></g></g></svg>