<svg xmlns="http://www.w3.org/2000/svg" xmlns:xlink="http://www.w3.org/1999/xlink" width="116.967" height="49.453" viewBox="0 0 116.967 49.453"><defs><clipPath id="a"><rect width="116.967" height="49.453" fill="#848484"/></clipPath></defs><g transform="translate(-1149 -3130)"><g transform="translate(1149 3130)"><g transform="translate(0 0)" clip-path="url(#a)"><path d="M17.811,6.7C18.425,4.192,19.1.693,19.537.3a21.011,21.011,0,0,1,4.4-.072c.2.11,1.606,11.82,1.495,12.286-.29.373-4.245.7-4.281.555-.085-.521-.081-3.108-.218-5.948h-.072a36.254,36.254,0,0,1-1.451,5.753,17.922,17.922,0,0,1-3.575-.1c-.108.035-.813-3.619-1.28-5.814-.018,0-.054-.018-.072-.018-.146,2.388-.348,5.009-.464,5.96a18.678,18.678,0,0,1-4.29-.575C9.646,11.754,11.405,1.383,11.72.253c.111-.413,3.758-.219,4.243-.125A48.71,48.71,0,0,1,17.685,6.7Z" transform="translate(-1.017 0)" fill="#848484"/><path d="M35.224,11.07c0,.019-2.334-.09-2.478-.11a12.008,12.008,0,0,1-.612,2.169,25.575,25.575,0,0,1-4.83-.4c.314-1.165,3.607-12.2,3.769-12.312A56.822,56.822,0,0,1,36.934.34c.053.02,3.329,9.858,3.756,12.483-.559.193-4.73.373-4.783.373a20.555,20.555,0,0,1-.683-2.126M34.076,4.557c-.26.9-.727,2.976-.727,3.011.09-.016,1.061.009,1.529.031-.036-.162-.449-2.2-.712-3.061-.036,0-.054.018-.09.018" transform="translate(-2.855 -0.031)" fill="#848484"/><path d="M42.991,13.113c-.079-1.259.09-10.6.3-12.539,1.438-.114,3.4-.151,4.69-.141C51.741.467,53.9,1.923,53.877,5A3.434,3.434,0,0,1,52,8.411a20.934,20.934,0,0,1,2.253,3.541,11.568,11.568,0,0,1-3.985,1.474c-.054,0-1.382-2.327-2.711-4.28H47.5c-.036,1.994-.084,3.5-.143,3.915a27.84,27.84,0,0,1-4.365.053m4.715-7.327a2.8,2.8,0,0,0,.557.058c.736.006,1.115-.206,1.119-.762,0-.45-.37-.8-1.106-.8a3.894,3.894,0,0,0-.521.032Z" transform="translate(-4.493 -0.045)" fill="#848484"/><path d="M61.249.717c.166-.411.021,12.166-.16,12.469-.075.43-4.584.194-4.6.032-.1-.916-.07-10.942.159-12.5a30.689,30.689,0,0,1,4.6,0" transform="translate(-5.9 -0.066)" fill="#848484"/><path d="M70.044,9.866a4.732,4.732,0,0,0,.88-.1c-.016-.055-.028-.845-.028-.845s-1.151.026-1.349.042a10.681,10.681,0,0,1-.01-2.928,43.614,43.614,0,0,1,5.426-.1c.143.073.017,6.56-.035,6.307a9.7,9.7,0,0,1-5.438,1.5c-4.564-.039-6.586-3.146-6.555-6.9C62.969,3.1,65.578.466,70,.5A6.257,6.257,0,0,1,74.4,1.925a14.305,14.305,0,0,1-1.934,3.6,5.336,5.336,0,0,0-2.419-.7A2.184,2.184,0,0,0,67.7,7.079c-.019,2.173,1.235,2.777,2.349,2.787" transform="translate(-6.58 -0.053)" fill="#848484"/><path d="M90.207,7.463a6.156,6.156,0,0,1-6.612,6.267C79.624,13.7,77,11.214,77.041,6.866A6.194,6.194,0,0,1,83.654.58c3.934.033,6.59,2.66,6.553,6.883M83.636,4.712c-1.078-.01-1.84.81-1.854,2.445-.013,1.455.753,2.36,1.741,2.368,1.114.01,1.785-.775,1.8-2.409.016-1.888-.806-2.4-1.686-2.405" transform="translate(-8.055 -0.061)" fill="#848484"/><path d="M101.737,13.5c-.056.143-7.924-.013-8.893-.13-.116-1.06-.037-12.6.124-12.432A23.554,23.554,0,0,1,97.461.886c.064.844.011,7.115-.073,8.552,1.526-.041,3.539-.024,4.311.054a21.76,21.76,0,0,1,.038,4.007" transform="translate(-9.701 -0.084)" fill="#848484"/><path d="M104.094,1.076c.433-.1,3.128-.117,4.583-.1,4.312.037,6.912,2.736,6.881,6.437-.031,3.756-2.12,6.45-7.152,6.407a34.891,34.891,0,0,1-4.543-.291c-.081-1.076.018-10.582.231-12.449m5.015,4.14a4.5,4.5,0,0,0-.756.064c-.01,1.312-.008,3.038-.019,4.367a3.427,3.427,0,0,0,.628.041c.791.006,1.871-.272,1.888-2.158.015-1.814-.826-2.307-1.741-2.315" transform="translate(-10.856 -0.101)" fill="#848484"/><path d="M21.633,33.964c2.965.61,5.507,3.333,5.472,7.429-.056,6.526-5.074,9.139-13.309,9.069C9.3,50.423.567,49.988.343,49.806.165,49.67-.044,26.623.008,20.548a8.18,8.18,0,0,1,.057-1.44c.139-.358,8.87-.465,9.95-.456,7.156.061,15.019,1.7,14.959,8.68-.03,3.646-1.349,5.029-3.339,6.362ZM10.951,30.408a3.351,3.351,0,0,0,.674.051c1.349.011,2.166-.612,2.176-1.783.009-1.035-.932-1.537-2.147-1.548-.225,0-.406.041-.63.039,0,.5-.073,3.241-.073,3.241m.173,11.343a5.618,5.618,0,0,0,1.214.146c1.441.013,2.752-.651,2.763-2.137.013-1.394-1.063-1.989-2.548-2a7.62,7.62,0,0,0-1.4.123Z" transform="translate(0 -1.95)" fill="#848484"/><path d="M49.424,45.654c0,.044-5.848-.23-6.207-.279,0,.36-1.263,5.435-1.533,5.434-.315.177-11.249-.366-12.1-1,.79-2.919,9.038-30.574,9.445-30.841s13.6-.425,14.675-.19c.134.046,8.342,24.69,9.41,31.271-1.4.484-11.846.935-11.98.934a51.354,51.354,0,0,1-1.711-5.325M46.548,29.336c-.65,2.246-1.819,7.456-1.82,7.546.226-.044,2.654.022,3.824.077-.086-.406-1.125-5.5-1.78-7.666-.09,0-.134.044-.225.043" transform="translate(-3.093 -1.951)" fill="#848484"/><path d="M90.585,34.552c2.966.609,5.507,3.332,5.472,7.428-.056,6.526-5.073,9.14-13.309,9.07-4.5-.039-13.229-.474-13.452-.656-.178-.135-.388-23.182-.336-29.258a8.2,8.2,0,0,1,.057-1.441c.139-.358,8.87-.464,9.95-.455,7.156.061,15.019,1.7,14.96,8.68-.03,3.646-1.349,5.029-3.34,6.362ZM79.9,31a3.351,3.351,0,0,0,.674.052c1.349.011,2.166-.612,2.176-1.783.009-1.035-.932-1.537-2.147-1.548-.225,0-.406.041-.63.039,0,.5-.073,3.24-.073,3.24m.173,11.344a5.618,5.618,0,0,0,1.214.146c1.441.013,2.752-.652,2.763-2.138.013-1.394-1.063-1.988-2.548-2a7.7,7.7,0,0,0-1.4.124Z" transform="translate(-7.209 -2.012)" fill="#848484"/><path d="M117.654,39.169c.056,4.095.04,11.027-.28,11.745-.189,1.034-11.705.215-11.747-.1-.209-1.937.11-7.651.325-11.654-1.062-2.171-8.5-16.546-8.45-17.175.051-.675,10.2-3.469,10.694-3.15.223.182,2.249,5.33,3.789,9.619l.27,0c2.241-4.257,4.177-9.6,4.492-9.549.4.094,10.374,2.7,10.413,3.375.085.586-8.455,15.1-9.505,16.887" transform="translate(-10.194 -1.967)" fill="#848484"/></g></g></g></svg>