<svg xmlns="http://www.w3.org/2000/svg" xmlns:xlink="http://www.w3.org/1999/xlink" width="99.551" height="67.947" viewBox="0 0 99.551 67.947"><defs><clipPath id="a"><rect width="99.551" height="67.947" fill="#848484"/></clipPath></defs><g clip-path="url(#a)"><path d="M49.775,0C22.29,0,0,15.213,0,33.973S22.29,67.947,49.775,67.947,99.551,52.733,99.551,33.973,77.261,0,49.775,0M18.9,44.85a5.055,5.055,0,0,1-.817,3.164,3.029,3.029,0,0,1-2.521,1.022A3.1,3.1,0,0,1,13.007,48a4.946,4.946,0,0,1-.838-3.152V33.276A4.971,4.971,0,0,1,13,30.131a3.1,3.1,0,0,1,2.564-1.022,3.027,3.027,0,0,1,2.521,1.022,5.017,5.017,0,0,1,.817,3.146Zm-.6-19.6a3.778,3.778,0,0,1-2.736,1.094,3.887,3.887,0,0,1-2.793-1.094,3.718,3.718,0,0,1,.021-5.363,3.857,3.857,0,0,1,2.771-1.115,3.771,3.771,0,0,1,2.729,1.115,3.653,3.653,0,0,1,1.132,2.681A3.6,3.6,0,0,1,18.3,25.252M46.252,45.7a13.982,13.982,0,0,1-10.335,3.928A13.792,13.792,0,0,1,25.381,45.26a15.861,15.861,0,0,1-4.09-11.307q0-7.161,4.182-11.4t11.259-4.233A15.854,15.854,0,0,1,44.7,20.193q3.277,1.86,3.28,4.281a3.16,3.16,0,0,1-.881,2.211,2.73,2.73,0,0,1-2.077.956A10.7,10.7,0,0,1,41.561,26.2,10.725,10.725,0,0,0,36.5,24.759,6.984,6.984,0,0,0,30.9,27.184a9.887,9.887,0,0,0-2.07,6.644A10.452,10.452,0,0,0,30.9,40.652a6.813,6.813,0,0,0,5.558,2.536,6.151,6.151,0,0,0,4.448-1.614,5.931,5.931,0,0,0,1.74-4.331H40.193a7.052,7.052,0,0,1-3.7-.762,2.61,2.61,0,0,1-1.182-2.363,2.655,2.655,0,0,1,1.2-2.383,6.874,6.874,0,0,1,3.688-.783h5.121a5.435,5.435,0,0,1,3.739,1.053,4.557,4.557,0,0,1,1.132,3.451A13.836,13.836,0,0,1,46.252,45.7m32.006-9.631q0,6.433-3.46,10t-9.633,3.561q-6.188,0-9.655-3.561t-3.459-10V23.6a6.17,6.17,0,0,1,.859-3.6,3.5,3.5,0,0,1,5.25,0,6.168,6.168,0,0,1,.859,3.6V35.311q0,3.918,1.54,5.9a5.476,5.476,0,0,0,4.606,1.981,5.465,5.465,0,0,0,4.591-1.981q1.558-1.975,1.554-5.9V23.6a6.168,6.168,0,0,1,.86-3.6A3.477,3.477,0,0,1,77.4,20a6.17,6.17,0,0,1,.86,3.6Zm9.077,8.784a5.055,5.055,0,0,1-.817,3.164A3.03,3.03,0,0,1,84,49.036,3.1,3.1,0,0,1,81.441,48,4.946,4.946,0,0,1,80.6,44.85V33.276a4.969,4.969,0,0,1,.831-3.146A3.1,3.1,0,0,1,84,29.108a3.027,3.027,0,0,1,2.521,1.022,5.017,5.017,0,0,1,.817,3.146Zm-.549-19.6a3.778,3.778,0,0,1-2.736,1.094,3.887,3.887,0,0,1-2.793-1.094,3.718,3.718,0,0,1,.021-5.363,3.857,3.857,0,0,1,2.771-1.115,3.771,3.771,0,0,1,2.729,1.115,3.653,3.653,0,0,1,1.132,2.681,3.6,3.6,0,0,1-1.125,2.681m3.745,23.5a1.592,1.592,0,0,1-1.539,0,1.489,1.489,0,0,1-.559-.541,1.454,1.454,0,0,1,0-1.489,1.487,1.487,0,0,1,.559-.541,1.542,1.542,0,0,1,.769-.2,1.568,1.568,0,0,1,.594.113,1.536,1.536,0,0,1,.492.32,1.484,1.484,0,0,1,.331.476,1.462,1.462,0,0,1-.088,1.319,1.489,1.489,0,0,1-.559.541" fill="#848484"/><path d="M468.3,245.186v-.007a.405.405,0,0,0,.291-.394.384.384,0,0,0-.121-.293.631.631,0,0,0-.447-.126,2.075,2.075,0,0,0-.383.032v1.524h.2v-.669h.188c.181.007.263.087.309.3a1.982,1.982,0,0,0,.1.369h.206a2.464,2.464,0,0,1-.119-.424.384.384,0,0,0-.227-.312m-.257-.085h-.2v-.564a.819.819,0,0,1,.2-.018c.211,0,.355.089.355.289,0,.177-.135.293-.348.293" transform="translate(-378.299 -197.682)" fill="#848484"/></g></svg>