<svg xmlns="http://www.w3.org/2000/svg" xmlns:xlink="http://www.w3.org/1999/xlink" width="70.935" height="70.956" viewBox="0 0 70.935 70.956"><defs><clipPath id="a"><rect width="70.935" height="70.956" fill="#848484"/></clipPath></defs><g transform="translate(0 0)" clip-path="url(#a)"><path d="M58.994,66.258l-.845,3.1c-.111.367.021.658.4.646h1.668l1.157-4.3H59.717a.7.7,0,0,0-.723.547" transform="translate(-12.668 -14.324)" fill="#848484" fill-rule="evenodd"/><path d="M72.168,66.071a.326.326,0,0,0-.289-.444H70.367a.592.592,0,0,0-.612.424l-.2.777h2.413Z" transform="translate(-15.162 -14.306)" fill="#848484" fill-rule="evenodd"/><path d="M64.983,0H5.94A6.065,6.065,0,0,0,0,5.951V65.026a6,6,0,0,0,5.94,5.93H64.983a6.018,6.018,0,0,0,5.953-5.93V5.951A5.935,5.935,0,0,0,64.983,0M13.4,60.21H5.229L5.9,57.818h5.841c.4,0,.5-.324.357-.667L8.812,48.105c-.479-1.369-.245-2.793,1.514-2.814h7.987L17.6,47.749H11.97c-.477,0-.522.277-.4.678l3.418,9.746A1.557,1.557,0,0,1,13.4,60.21M17,57.928c-1.08,0-2.036-.666-1.779-1.824l1.68-5.9c.211-.834,1.035-1.035,1.8-1.035h5.375l-.6,2.18h-3.6c-.456,0-.791.088-.9.5l-.811,3.1c-.088.412.19.579.567.579h3.606l-.657,2.391Zm10.125,0,1.59-5.852c.112-.332.091-.723-.345-.723H26.79L24.821,57.94H22.329l3.435-12.572h2.5l-.945,3.817h2.526c1.157,0,2,.811,1.6,2l-1.9,6.753Zm3.5.012,3.414-12.561h2.483L33.109,57.94Zm5.65-.012c-1.068.012-2.147-.633-1.812-1.89l1.557-5.764a1.454,1.454,0,0,1,1.48-1.1h3.948c1.114.034,1.96.724,1.693,1.813l-.9,3.248H37.848c-.21,0-.457.067-.511.29l-.155.588c-.09.389.466.435.745.413h3.959l-.668,2.4Zm11.448,2.494H41.41l.466-1.659h4.45c.511,0,.768-.8.167-.8h-2.8a1.282,1.282,0,0,1-1.168-1.582L44.09,50.6a1.918,1.918,0,0,1,2.147-1.4h5.63L48.985,59.42a1.344,1.344,0,0,1-1.258,1M57.74,57.928H52.434a1.435,1.435,0,0,1-1.547-1.634l1.659-6.021a1.417,1.417,0,0,1,1.491-1.1h3.949c1.045.034,1.97.756,1.7,1.691l-.911,3.371H54.27a.427.427,0,0,0-.435.334l-.11.579c-.056.265.322.378.545.378h4.138Zm3.438.012H58.7L62.1,45.379h2.49Z" transform="translate(0 0)" fill="#848484" fill-rule="evenodd"/><path d="M51.045,66.051c.077-.233-.056-.424-.345-.424H49.232a.555.555,0,0,0-.6.424l-.192.777h2.393Z" transform="translate(-10.56 -14.306)" fill="#848484" fill-rule="evenodd"/></g></svg>