<svg xmlns="http://www.w3.org/2000/svg" xmlns:xlink="http://www.w3.org/1999/xlink" width="151.11" height="29.8" viewBox="0 0 151.11 29.8"><defs><clipPath id="a"><rect width="151.11" height="29.8" transform="translate(0 0)" fill="#848484"/></clipPath></defs><g clip-path="url(#a)"><path d="M12.63,8.16a10.56,10.56,0,0,0-6.45,2.18V0H0V29.49H6.18V27.3A10.658,10.658,0,1,0,12.63,8.16m-.38,16.35a5.69,5.69,0,1,1,5.69-5.69,5.693,5.693,0,0,1-5.69,5.69" fill="#848484"/><path d="M66.27,8.58,62.35,20.94H57.06l2.58,8.54h6.83L73.1,8.58Z" fill="#848484"/><path d="M52.34,8.58,48.42,20.94H43.13l2.58,8.54h6.83l6.63-20.9Z" fill="#848484"/><path d="M40.82,13.37h5.37V8.58H39.37Z" fill="#848484"/><path d="M35.45,24.88a2.489,2.489,0,0,1-2.66-2.82V13.35h4.87L36.21,8.58H32.79V3.37h-6.2V8.58h-3.3v4.77h3.3v8.78c0,5.09,2.94,7.67,7.99,7.67a8.892,8.892,0,0,0,5.05-1.35l-1.67-4.37a4.159,4.159,0,0,1-2.5.79Z" fill="#848484"/><path d="M84.48,8.72v.94H80.07v2.68h3.87v.94H80.07v3.86H78.95V8.72h5.53" fill="#848484"/><path d="M89.65,17.14v-.97h-.02a2.027,2.027,0,0,1-.81.83,2.408,2.408,0,0,1-1.17.27,2.619,2.619,0,0,1-1-.16,1.585,1.585,0,0,1-1-1.15,3.6,3.6,0,0,1-.1-.9V11.05h1v4.13a1.141,1.141,0,0,0,1.24,1.23,2.158,2.158,0,0,0,.8-.14,1.512,1.512,0,0,0,.56-.4,1.815,1.815,0,0,0,.34-.61,2.633,2.633,0,0,0,.11-.76V11.06h1v6.1h-.94Z" fill="#848484"/><path d="M93.05,11.04v.97h.02a2.116,2.116,0,0,1,1.98-1.11,2.641,2.641,0,0,1,1,.17,1.634,1.634,0,0,1,.65.46,1.713,1.713,0,0,1,.35.7,3.6,3.6,0,0,1,.1.9v4.01h-1V13.01a1.141,1.141,0,0,0-1.24-1.23,2.158,2.158,0,0,0-.8.14,1.512,1.512,0,0,0-.56.4,1.815,1.815,0,0,0-.34.61,2.633,2.633,0,0,0-.11.76v3.44h-1v-6.1h.94Z" fill="#848484"/><path d="M103.11,17.14v-.83h-.02a1.433,1.433,0,0,1-.78.73,2.94,2.94,0,0,1-1.17.22A2.786,2.786,0,0,1,99.91,17a2.388,2.388,0,0,1-.87-.7,2.936,2.936,0,0,1-.52-1.01,4.111,4.111,0,0,1-.18-1.23,4.458,4.458,0,0,1,.17-1.23,2.849,2.849,0,0,1,.52-1.01,2.444,2.444,0,0,1,.87-.68,2.771,2.771,0,0,1,1.22-.25,3.139,3.139,0,0,1,.51.05,2.214,2.214,0,0,1,.54.16,2.16,2.16,0,0,1,.51.29,1.611,1.611,0,0,1,.41.45h.02V8.7h1v8.42h-1ZM99.5,14.97a2.326,2.326,0,0,0,.34.73,1.69,1.69,0,0,0,1.43.7,1.82,1.82,0,0,0,.86-.2,1.713,1.713,0,0,0,.58-.52,2.055,2.055,0,0,0,.32-.74,3.388,3.388,0,0,0,.1-.84,3.576,3.576,0,0,0-.11-.87,2.089,2.089,0,0,0-.34-.74,1.653,1.653,0,0,0-.6-.51,1.845,1.845,0,0,0-.88-.19,1.763,1.763,0,0,0-.86.2,1.611,1.611,0,0,0-.57.53,2.52,2.52,0,0,0-.31.75,3.57,3.57,0,0,0-.09.87,3.318,3.318,0,0,0,.11.83Z" fill="#848484"/><path d="M105.51,12.84a2.71,2.71,0,0,1,.57-1.01,2.669,2.669,0,0,1,.93-.68,3,3,0,0,1,1.27-.25,3.047,3.047,0,0,1,1.28.25,2.764,2.764,0,0,1,.93.68,2.946,2.946,0,0,1,.57,1.01,3.96,3.96,0,0,1,.19,1.26,3.9,3.9,0,0,1-.19,1.25,2.791,2.791,0,0,1-.57,1.01,2.526,2.526,0,0,1-.93.67,3.177,3.177,0,0,1-1.28.24,3.128,3.128,0,0,1-1.27-.24,2.645,2.645,0,0,1-.93-.67,2.946,2.946,0,0,1-.57-1.01,3.9,3.9,0,0,1-.19-1.25,3.96,3.96,0,0,1,.19-1.26m1.02,2.24a1.942,1.942,0,0,0,.41.72,1.765,1.765,0,0,0,.61.44,1.847,1.847,0,0,0,.74.15,1.883,1.883,0,0,0,.74-.15,1.863,1.863,0,0,0,.61-.44,2.091,2.091,0,0,0,.41-.72,3.009,3.009,0,0,0,.15-.98,2.967,2.967,0,0,0-.15-.98,2.072,2.072,0,0,0-.41-.73,1.671,1.671,0,0,0-.61-.45,1.9,1.9,0,0,0-1.48,0,1.759,1.759,0,0,0-.61.45,2.239,2.239,0,0,0-.41.73,3.009,3.009,0,0,0-.15.98,2.967,2.967,0,0,0,.15.98" fill="#848484"/><path d="M120.14,17.14v-.83h-.02a1.433,1.433,0,0,1-.78.73,2.94,2.94,0,0,1-1.17.22,2.786,2.786,0,0,1-1.23-.26,2.388,2.388,0,0,1-.87-.7,2.936,2.936,0,0,1-.52-1.01,4.111,4.111,0,0,1-.18-1.23,4.458,4.458,0,0,1,.17-1.23,2.849,2.849,0,0,1,.52-1.01,2.444,2.444,0,0,1,.87-.68,2.771,2.771,0,0,1,1.22-.25,3.139,3.139,0,0,1,.51.05,2.214,2.214,0,0,1,.54.16,2.16,2.16,0,0,1,.51.29,1.611,1.611,0,0,1,.41.45h.02V8.7h1v8.42h-1Zm-3.6-2.17a2.326,2.326,0,0,0,.34.73,1.69,1.69,0,0,0,1.43.7,1.82,1.82,0,0,0,.86-.2,1.713,1.713,0,0,0,.58-.52,2.055,2.055,0,0,0,.32-.74,3.388,3.388,0,0,0,.1-.84,3.576,3.576,0,0,0-.11-.87,2.089,2.089,0,0,0-.34-.74,1.667,1.667,0,0,0-.6-.51,1.845,1.845,0,0,0-.88-.19,1.763,1.763,0,0,0-.86.2,1.611,1.611,0,0,0-.57.53,2.52,2.52,0,0,0-.31.75,4.141,4.141,0,0,0-.09.87,3.318,3.318,0,0,0,.11.83Z" fill="#848484"/><path d="M127.01,16.75a2.749,2.749,0,0,1-1.72.52,3.1,3.1,0,0,1-1.27-.24,2.506,2.506,0,0,1-.9-.66,2.818,2.818,0,0,1-.55-1.01,5.118,5.118,0,0,1-.21-1.29,3.678,3.678,0,0,1,.21-1.27,2.871,2.871,0,0,1,.6-1,2.837,2.837,0,0,1,.91-.66,2.722,2.722,0,0,1,1.15-.24,2.46,2.46,0,0,1,1.35.34,2.686,2.686,0,0,1,.86.85,3.267,3.267,0,0,1,.45,1.13,4.79,4.79,0,0,1,.1,1.17h-4.56a2.685,2.685,0,0,0,.09.76,1.72,1.72,0,0,0,.34.64,1.8,1.8,0,0,0,.6.44,2.06,2.06,0,0,0,.86.17,1.775,1.775,0,0,0,1.04-.29,1.471,1.471,0,0,0,.54-.9h.99A2.425,2.425,0,0,1,127.01,16.75Zm-.25-3.92a1.616,1.616,0,0,0-.37-.55,1.708,1.708,0,0,0-1.23-.51,1.785,1.785,0,0,0-.7.14,1.575,1.575,0,0,0-.54.37,1.665,1.665,0,0,0-.35.55,1.873,1.873,0,0,0-.15.67h3.5A2.121,2.121,0,0,0,126.76,12.83Z" fill="#848484"/><rect width="1.12" height="8.42" transform="translate(78.99 21.14)" fill="#848484"/><path d="M82.78,23.46v.97h.02a2.116,2.116,0,0,1,1.98-1.11,2.641,2.641,0,0,1,1,.17,1.634,1.634,0,0,1,.65.46,1.713,1.713,0,0,1,.35.7,3.6,3.6,0,0,1,.1.9v4.01h-1V25.43a1.141,1.141,0,0,0-1.24-1.23,2.158,2.158,0,0,0-.8.14,1.512,1.512,0,0,0-.56.4,1.815,1.815,0,0,0-.34.61,2.633,2.633,0,0,0-.11.76v3.44h-1v-6.1h.94Z" fill="#848484"/><path d="M90.07,29.56l-2.26-6.1h1.12l1.71,5.08h.02l1.66-5.08h1.05l-2.23,6.1Z" fill="#848484"/><path d="M98.6,29.17a2.749,2.749,0,0,1-1.72.52,3.1,3.1,0,0,1-1.27-.24,2.506,2.506,0,0,1-.9-.66,2.818,2.818,0,0,1-.55-1.01,5.119,5.119,0,0,1-.21-1.29,3.678,3.678,0,0,1,.21-1.27,2.871,2.871,0,0,1,.6-1,2.837,2.837,0,0,1,.91-.66,2.722,2.722,0,0,1,1.15-.24,2.46,2.46,0,0,1,1.35.34,2.792,2.792,0,0,1,.86.85,3.267,3.267,0,0,1,.45,1.13,4.79,4.79,0,0,1,.1,1.17H95.02a2.685,2.685,0,0,0,.09.76,1.72,1.72,0,0,0,.34.64,1.8,1.8,0,0,0,.6.44,2.06,2.06,0,0,0,.86.17,1.775,1.775,0,0,0,1.04-.29,1.471,1.471,0,0,0,.54-.9h.99A2.425,2.425,0,0,1,98.6,29.17Zm-.24-3.92a1.616,1.616,0,0,0-.37-.55,1.707,1.707,0,0,0-1.23-.51,1.785,1.785,0,0,0-.7.14,1.575,1.575,0,0,0-.54.37,1.665,1.665,0,0,0-.35.55,1.873,1.873,0,0,0-.15.67h3.5A2.121,2.121,0,0,0,98.36,25.25Z" fill="#848484"/><path d="M101.38,28.2a1.092,1.092,0,0,0,.37.37,1.47,1.47,0,0,0,.52.19,2.907,2.907,0,0,0,.6.06,2.965,2.965,0,0,0,.5-.04,1.888,1.888,0,0,0,.48-.13.839.839,0,0,0,.36-.28.772.772,0,0,0,.14-.47.674.674,0,0,0-.29-.59,2.536,2.536,0,0,0-.74-.32c-.29-.08-.62-.16-.96-.22a5.151,5.151,0,0,1-.96-.28,2.043,2.043,0,0,1-.74-.51,1.324,1.324,0,0,1-.3-.92,1.433,1.433,0,0,1,.21-.79,1.708,1.708,0,0,1,.53-.54,2.512,2.512,0,0,1,.73-.31,3.209,3.209,0,0,1,.81-.1,4.646,4.646,0,0,1,.95.09,2.114,2.114,0,0,1,.77.31,1.708,1.708,0,0,1,.54.59,2.437,2.437,0,0,1,.24.93h-1a1.133,1.133,0,0,0-.15-.49,1.082,1.082,0,0,0-.33-.31,1.3,1.3,0,0,0-.44-.17,1.989,1.989,0,0,0-.49-.05,2.282,2.282,0,0,0-.45.04,1.455,1.455,0,0,0-.42.12.834.834,0,0,0-.31.24.6.6,0,0,0-.12.38.566.566,0,0,0,.18.43,1.43,1.43,0,0,0,.47.28,4.444,4.444,0,0,0,.64.19c.24.05.47.1.71.16s.5.12.74.2a2.534,2.534,0,0,1,.64.31,1.629,1.629,0,0,1,.45.49,1.487,1.487,0,0,1,.17.73,1.718,1.718,0,0,1-.23.92,1.783,1.783,0,0,1-.6.59,2.559,2.559,0,0,1-.84.31,4.884,4.884,0,0,1-.93.09,4.368,4.368,0,0,1-.97-.11,2.289,2.289,0,0,1-.81-.35,1.77,1.77,0,0,1-.57-.64,2.261,2.261,0,0,1-.24-.96h1a1.083,1.083,0,0,0,.15.56Z" fill="#848484"/><path d="M109.12,23.46v.88h-1.21v3.78a.747.747,0,0,0,.03.28.337.337,0,0,0,.11.17.558.558,0,0,0,.23.08,2.12,2.12,0,0,0,.38.02h.46v.88h-.77a4.266,4.266,0,0,1-.67-.05,1.156,1.156,0,0,1-.45-.19.81.81,0,0,1-.25-.4,2.48,2.48,0,0,1-.08-.68V24.35h-1.04v-.88h1.04V21.64h1v1.83h1.21Z" fill="#848484"/><path d="M110.29,21.13h1v1.23h-1Zm1,8.43h-1v-6.1h1Z" fill="#848484"/><path d="M113.79,23.46v.9h.02a2.225,2.225,0,0,1,1.97-1.04,2.2,2.2,0,0,1,1.03.24,1.322,1.322,0,0,1,.65.8,2.068,2.068,0,0,1,.81-.77,2.268,2.268,0,0,1,1.1-.27,3.046,3.046,0,0,1,.83.1,1.818,1.818,0,0,1,.64.31,1.351,1.351,0,0,1,.41.55,1.953,1.953,0,0,1,.15.81v4.47h-1v-4a2.892,2.892,0,0,0-.05-.53.983.983,0,0,0-.18-.43.944.944,0,0,0-.36-.29,1.428,1.428,0,0,0-.6-.11,1.6,1.6,0,0,0-1.17.42,1.532,1.532,0,0,0-.42,1.13v3.8h-1v-4a2.92,2.92,0,0,0-.05-.54,1.3,1.3,0,0,0-.18-.43.81.81,0,0,0-.35-.28,1.306,1.306,0,0,0-.56-.1,1.487,1.487,0,0,0-.75.18,1.792,1.792,0,0,0-.51.42,1.847,1.847,0,0,0-.28.51,1.427,1.427,0,0,0-.09.44v3.8h-1v-6.1h.94Z" fill="#848484"/><path d="M127.22,29.17a2.749,2.749,0,0,1-1.72.52,3.1,3.1,0,0,1-1.27-.24,2.506,2.506,0,0,1-.9-.66,2.818,2.818,0,0,1-.55-1.01,5.119,5.119,0,0,1-.21-1.29,3.678,3.678,0,0,1,.21-1.27,2.871,2.871,0,0,1,.6-1,2.837,2.837,0,0,1,.91-.66,2.722,2.722,0,0,1,1.15-.24,2.46,2.46,0,0,1,1.35.34,2.686,2.686,0,0,1,.86.85,3.267,3.267,0,0,1,.45,1.13,4.79,4.79,0,0,1,.1,1.17h-4.56a2.685,2.685,0,0,0,.09.76,1.72,1.72,0,0,0,.34.64,1.8,1.8,0,0,0,.6.44,2.06,2.06,0,0,0,.86.17,1.775,1.775,0,0,0,1.04-.29,1.471,1.471,0,0,0,.54-.9h.99A2.425,2.425,0,0,1,127.22,29.17Zm-.24-3.92a1.617,1.617,0,0,0-.37-.55,1.707,1.707,0,0,0-1.23-.51,1.785,1.785,0,0,0-.7.14,1.575,1.575,0,0,0-.54.37,1.665,1.665,0,0,0-.35.55,1.872,1.872,0,0,0-.15.67h3.5A2.121,2.121,0,0,0,126.98,25.25Z" fill="#848484"/><path d="M130.18,23.46v.97h.02a2.116,2.116,0,0,1,1.98-1.11,2.641,2.641,0,0,1,1,.17,1.634,1.634,0,0,1,.65.46,1.846,1.846,0,0,1,.35.7,3.6,3.6,0,0,1,.1.9v4.01h-1V25.43a1.141,1.141,0,0,0-1.24-1.23,2.158,2.158,0,0,0-.8.14,1.435,1.435,0,0,0-.56.4,1.816,1.816,0,0,0-.34.61,2.633,2.633,0,0,0-.11.76v3.44h-1v-6.1h.94Z" fill="#848484"/><path d="M138.4,23.46v.88h-1.21v3.78a.747.747,0,0,0,.03.28.337.337,0,0,0,.11.17.558.558,0,0,0,.23.08,2.12,2.12,0,0,0,.38.02h.46v.88h-.77a4.266,4.266,0,0,1-.67-.05,1.156,1.156,0,0,1-.45-.19.81.81,0,0,1-.25-.4,2.48,2.48,0,0,1-.08-.68V24.35h-1.04v-.88h1.04V21.64h1v1.83h1.21Z" fill="#848484"/><path d="M139.36,25.26a2.711,2.711,0,0,1,.57-1.01,2.669,2.669,0,0,1,.93-.68,3,3,0,0,1,1.27-.25,3.047,3.047,0,0,1,1.28.25,2.764,2.764,0,0,1,.93.68,2.946,2.946,0,0,1,.57,1.01,3.96,3.96,0,0,1,.19,1.26,3.9,3.9,0,0,1-.19,1.25,2.791,2.791,0,0,1-.57,1.01,2.526,2.526,0,0,1-.93.67,3.177,3.177,0,0,1-1.28.24,3.128,3.128,0,0,1-1.27-.24,2.645,2.645,0,0,1-.93-.67,2.946,2.946,0,0,1-.57-1.01,3.9,3.9,0,0,1-.19-1.25,3.96,3.96,0,0,1,.19-1.26m1.02,2.24a1.942,1.942,0,0,0,.41.72,1.765,1.765,0,0,0,.61.44,1.847,1.847,0,0,0,.74.15,1.883,1.883,0,0,0,.74-.15,1.863,1.863,0,0,0,.61-.44,2.09,2.09,0,0,0,.41-.72,3.009,3.009,0,0,0,.15-.98,2.967,2.967,0,0,0-.15-.98,2.072,2.072,0,0,0-.41-.73,1.671,1.671,0,0,0-.61-.45,1.9,1.9,0,0,0-1.48,0,1.759,1.759,0,0,0-.61.45,2.239,2.239,0,0,0-.41.73,3.009,3.009,0,0,0-.15.98,2.967,2.967,0,0,0,.15.98" fill="#848484"/><path d="M147.04,28.2a1.092,1.092,0,0,0,.37.37,1.47,1.47,0,0,0,.52.19,2.907,2.907,0,0,0,.6.06,2.965,2.965,0,0,0,.5-.04,1.888,1.888,0,0,0,.48-.13.839.839,0,0,0,.36-.28.772.772,0,0,0,.14-.47.674.674,0,0,0-.29-.59,2.536,2.536,0,0,0-.74-.32c-.29-.08-.62-.16-.96-.22a5.151,5.151,0,0,1-.96-.28,2.043,2.043,0,0,1-.74-.51,1.32,1.32,0,0,1-.29-.92,1.433,1.433,0,0,1,.21-.79,1.708,1.708,0,0,1,.53-.54,2.512,2.512,0,0,1,.73-.31,3.209,3.209,0,0,1,.81-.1,4.818,4.818,0,0,1,.96.09,2.114,2.114,0,0,1,.77.31,1.708,1.708,0,0,1,.54.59,2.437,2.437,0,0,1,.24.93h-1a1.133,1.133,0,0,0-.15-.49,1.082,1.082,0,0,0-.33-.31,1.3,1.3,0,0,0-.44-.17,1.989,1.989,0,0,0-.49-.05,2.282,2.282,0,0,0-.45.04,1.455,1.455,0,0,0-.42.12.834.834,0,0,0-.31.24.6.6,0,0,0-.12.38.566.566,0,0,0,.18.43,1.431,1.431,0,0,0,.47.28,4.444,4.444,0,0,0,.64.19c.24.05.47.1.71.16s.5.12.74.2a2.535,2.535,0,0,1,.64.31,1.629,1.629,0,0,1,.45.49,1.487,1.487,0,0,1,.17.73,1.718,1.718,0,0,1-.23.92,1.783,1.783,0,0,1-.6.59,2.559,2.559,0,0,1-.84.31,4.884,4.884,0,0,1-.93.09,4.368,4.368,0,0,1-.97-.11,2.289,2.289,0,0,1-.81-.35,1.77,1.77,0,0,1-.57-.64,2.261,2.261,0,0,1-.24-.96h1a1.083,1.083,0,0,0,.15.56Z" fill="#848484"/></g></svg>