<svg xmlns="http://www.w3.org/2000/svg" xmlns:xlink="http://www.w3.org/1999/xlink" width="143.988" height="48.698" viewBox="0 0 143.988 48.698"><defs><clipPath id="a"><rect width="143.988" height="48.698" fill="#848484"/></clipPath></defs><g transform="translate(0 0)" clip-path="url(#a)"><path d="M147.02,90.342v-1.25a3.439,3.439,0,0,0,2.093.7q1.533,0,1.533-1.022a.883.883,0,0,0-.131-.492,1.318,1.318,0,0,0-.356-.358,2.68,2.68,0,0,0-.526-.281c-.2-.082-.417-.17-.649-.259a8.447,8.447,0,0,1-.848-.388,2.6,2.6,0,0,1-.61-.438,1.651,1.651,0,0,1-.368-.557,1.987,1.987,0,0,1-.123-.731,1.752,1.752,0,0,1,.233-.906,2.105,2.105,0,0,1,.625-.659,2.906,2.906,0,0,1,.891-.4,3.968,3.968,0,0,1,1.032-.133,4.194,4.194,0,0,1,1.688.325v1.18a3.273,3.273,0,0,0-1.843-.526,2.139,2.139,0,0,0-.591.075,1.429,1.429,0,0,0-.45.208,1.02,1.02,0,0,0-.291.322.861.861,0,0,0-.1.417,1,1,0,0,0,.1.474,1.055,1.055,0,0,0,.3.342,2.248,2.248,0,0,0,.482.269q.283.12.646.262c.32.123.611.252.865.38a3.025,3.025,0,0,1,.654.441,1.715,1.715,0,0,1,.414.565,1.82,1.82,0,0,1,.145.758,1.793,1.793,0,0,1-.237.937,2.055,2.055,0,0,1-.634.659,2.946,2.946,0,0,1-.916.392,4.541,4.541,0,0,1-1.088.126,4.119,4.119,0,0,1-1.942-.431m-4.524-6.2a2.214,2.214,0,0,0-1.773.763,3.128,3.128,0,0,0-.654,2.1,2.954,2.954,0,0,0,.661,2.034,2.244,2.244,0,0,0,1.765.746,2.131,2.131,0,0,0,1.737-.731,3.17,3.17,0,0,0,.605-2.078,3.225,3.225,0,0,0-.605-2.1,2.121,2.121,0,0,0-1.737-.739m-.085,6.627a3.374,3.374,0,0,1-2.572-1.017,3.777,3.777,0,0,1-.962-2.7,3.937,3.937,0,0,1,1-2.86,3.6,3.6,0,0,1,2.705-1.027,3.254,3.254,0,0,1,2.536,1,3.963,3.963,0,0,1,.91,2.773,3.906,3.906,0,0,1-.981,2.785,3.45,3.45,0,0,1-2.638,1.046m-6.125-3.454V86.246a2.079,2.079,0,0,0-.581-1.489,1.949,1.949,0,0,0-1.475-.611,2.01,2.01,0,0,0-1.676.78,3.423,3.423,0,0,0-.61,2.158,3.077,3.077,0,0,0,.586,1.984,1.916,1.916,0,0,0,1.572.727,1.989,1.989,0,0,0,1.579-.7,2.615,2.615,0,0,0,.605-1.773m1.165,3.285h-1.165V89.368h-.026a2.932,2.932,0,0,1-4.687.429,3.993,3.993,0,0,1-.821-2.657,4.352,4.352,0,0,1,.909-2.887,2.993,2.993,0,0,1,2.419-1.085,2.333,2.333,0,0,1,2.18,1.177h.026v-4.5h1.165Zm-9.128-3.677-1.751.242a2.8,2.8,0,0,0-1.221.4,1.155,1.155,0,0,0-.412,1.017,1.109,1.109,0,0,0,.38.87,1.458,1.458,0,0,0,1.01.337,1.865,1.865,0,0,0,1.429-.606,2.163,2.163,0,0,0,.564-1.538Zm1.165,3.677h-1.165V89.467H128.3a2.434,2.434,0,0,1-2.236,1.306,2.393,2.393,0,0,1-1.7-.574,1.99,1.99,0,0,1-.613-1.526q0-2.034,2.4-2.369L128.323,86q0-1.853-1.5-1.853a3.577,3.577,0,0,0-2.369.894V83.848a4.487,4.487,0,0,1,2.468-.681q2.561,0,2.563,2.71Zm-6.53-.335a3.771,3.771,0,0,1-1.986.5,3.293,3.293,0,0,1-2.509-1.01,3.67,3.67,0,0,1-.954-2.623,4.032,4.032,0,0,1,1.029-2.885,3.6,3.6,0,0,1,2.747-1.088,3.841,3.841,0,0,1,1.688.354v1.192a2.965,2.965,0,0,0-1.732-.567,2.337,2.337,0,0,0-1.826.8,3.026,3.026,0,0,0-.715,2.1,2.889,2.889,0,0,0,.671,2.015,2.314,2.314,0,0,0,1.8.739,2.909,2.909,0,0,0,1.787-.632Zm-5.784-5.755a1.428,1.428,0,0,0-.879-.233,1.484,1.484,0,0,0-1.248.7,3.26,3.26,0,0,0-.5,1.916v3.7h-1.165V83.337h1.165v1.5h.029a2.513,2.513,0,0,1,.758-1.194,1.726,1.726,0,0,1,1.143-.431,1.919,1.919,0,0,1,.7.1Zm-6.311,1.761a2.388,2.388,0,0,0-.484-1.569,1.661,1.661,0,0,0-1.332-.559,1.883,1.883,0,0,0-1.4.588,2.673,2.673,0,0,0-.709,1.54Zm1.192.986h-5.13a2.725,2.725,0,0,0,.654,1.875,2.256,2.256,0,0,0,1.717.659,3.561,3.561,0,0,0,2.255-.809v1.092a4.2,4.2,0,0,1-2.531.7,3.072,3.072,0,0,1-2.42-.988A4.046,4.046,0,0,1,105.719,87a3.978,3.978,0,0,1,.962-2.763,3.083,3.083,0,0,1,2.388-1.068,2.73,2.73,0,0,1,2.206.923,3.838,3.838,0,0,1,.78,2.56ZM104.447,90.6h-1.163V86.43a3.149,3.149,0,0,0-.373-1.744,1.411,1.411,0,0,0-1.252-.54,1.552,1.552,0,0,0-1.267.681,2.6,2.6,0,0,0-.523,1.632V90.6H98.707V86.29q0-2.144-1.654-2.144a1.529,1.529,0,0,0-1.262.642,2.653,2.653,0,0,0-.5,1.671V90.6H94.129V83.337h1.165v1.15h.029a2.462,2.462,0,0,1,2.255-1.32,2.106,2.106,0,0,1,1.3.414,2.079,2.079,0,0,1,.76,1.09,2.59,2.59,0,0,1,2.412-1.5q2.4,0,2.4,2.957ZM93.3,84.514a1.428,1.428,0,0,0-.879-.233,1.483,1.483,0,0,0-1.247.7,3.257,3.257,0,0,0-.5,1.916v3.7H89.509V83.337h1.165v1.5H90.7a2.514,2.514,0,0,1,.758-1.194,1.726,1.726,0,0,1,1.143-.431,1.919,1.919,0,0,1,.7.1Zm-6.311,1.761a2.388,2.388,0,0,0-.484-1.569,1.661,1.661,0,0,0-1.332-.559,1.881,1.881,0,0,0-1.4.588,2.673,2.673,0,0,0-.71,1.54Zm1.192.986h-5.13a2.725,2.725,0,0,0,.654,1.875,2.256,2.256,0,0,0,1.717.659,3.561,3.561,0,0,0,2.255-.809v1.092a4.2,4.2,0,0,1-2.531.7,3.072,3.072,0,0,1-2.42-.988A4.046,4.046,0,0,1,81.843,87a3.978,3.978,0,0,1,.962-2.763,3.083,3.083,0,0,1,2.388-1.068,2.73,2.73,0,0,1,2.206.923,3.837,3.837,0,0,1,.78,2.56Zm-12.786-.639v1.015a2.157,2.157,0,0,0,.586,1.53,2.087,2.087,0,0,0,3.142-.182,3.714,3.714,0,0,0,.6-2.25,2.921,2.921,0,0,0-.562-1.9,1.855,1.855,0,0,0-1.516-.688,2.061,2.061,0,0,0-1.632.705,2.6,2.6,0,0,0-.617,1.771m.029,2.931h-.029v4.393H74.228V83.337h1.165v1.277h.029a2.751,2.751,0,0,1,2.512-1.446,2.661,2.661,0,0,1,2.192.976,4.036,4.036,0,0,1,.787,2.614,4.51,4.51,0,0,1-.887,2.921A2.956,2.956,0,0,1,77.6,90.773a2.425,2.425,0,0,1-2.177-1.221M72.31,90.6H71.148v-1.15h-.029a2.387,2.387,0,0,1-2.243,1.32q-2.6,0-2.6-3.093V83.337h1.155V87.5q0,2.3,1.761,2.3a1.783,1.783,0,0,0,1.4-.627,2.408,2.408,0,0,0,.55-1.642V83.337H72.31Zm-12.049-.262v-1.25a3.441,3.441,0,0,0,2.093.7q1.533,0,1.534-1.022a.883.883,0,0,0-.131-.492,1.314,1.314,0,0,0-.356-.358,2.679,2.679,0,0,0-.526-.281c-.2-.082-.416-.17-.649-.259a8.437,8.437,0,0,1-.848-.388,2.6,2.6,0,0,1-.611-.438A1.657,1.657,0,0,1,60.4,86a1.986,1.986,0,0,1-.123-.731,1.752,1.752,0,0,1,.232-.906,2.111,2.111,0,0,1,.625-.659,2.91,2.91,0,0,1,.891-.4,3.968,3.968,0,0,1,1.032-.133,4.193,4.193,0,0,1,1.688.325v1.18a3.27,3.27,0,0,0-1.843-.526,2.137,2.137,0,0,0-.591.075,1.432,1.432,0,0,0-.451.208,1.02,1.02,0,0,0-.291.322.866.866,0,0,0-.1.417,1.006,1.006,0,0,0,.1.474,1.06,1.06,0,0,0,.3.342,2.259,2.259,0,0,0,.482.269q.283.12.647.262c.32.123.61.252.864.38a3.025,3.025,0,0,1,.654.441,1.708,1.708,0,0,1,.414.565,2,2,0,0,1-.092,1.7,2.057,2.057,0,0,1-.635.659,2.946,2.946,0,0,1-.916.392,4.54,4.54,0,0,1-1.087.126,4.119,4.119,0,0,1-1.943-.431" transform="translate(-34.149 -45.248)" fill="#848484"/><path d="M59.915,21.8l5.544,6.89,5.687-6.971.836-1.024,0,1.322.01,6v.039a3.649,3.649,0,0,0,.055.644,3.508,3.508,0,0,0,.159.6,3.811,3.811,0,0,0,2.081,2.157,6.313,6.313,0,0,0,1.546.46,10.881,10.881,0,0,0,1.522.112c.882.019,1.885.012,3.265,0l.78-.006V1.616l-3.7-.05L65.5,16.057l-.948-1.122v0L53.359,1.645l-3.7.05V32.1l.78.006c1.38.01,2.382.017,3.265,0a10.893,10.893,0,0,0,1.523-.112,6.31,6.31,0,0,0,1.545-.46,3.811,3.811,0,0,0,2.081-2.157,3.5,3.5,0,0,0,.159-.6,3.631,3.631,0,0,0,.056-.643v-.04l.01-6,0-1.337ZM34.328,12.587V9.162H34.8l10.729-.013h.059a3.967,3.967,0,0,0,.725-.082,3.591,3.591,0,0,0,.653-.2,2.53,2.53,0,0,0,1.7-2.211l.013-4.939H24.829v30.4H48.681l-.013-4.939a2.53,2.53,0,0,0-1.7-2.211,3.66,3.66,0,0,0-.653-.2,3.967,3.967,0,0,0-.725-.082h-.059l-10.3-.012v0h-.944c0-.534.011-1.2.023-1.855s.022-1.322.022-1.841h.007v-.6l8.431-.01h.059a3.963,3.963,0,0,0,.725-.082,3.63,3.63,0,0,0,.654-.2,2.529,2.529,0,0,0,1.7-2.211l.013-4.939H34.334v-.014h-.006ZM139.968,32h4.02V1.6H138.1v0a3.25,3.25,0,0,0-3.611,3.644l0,.035V15.811L119.766,1.6h-4.022V32h5.892v0a3.25,3.25,0,0,0,3.611-3.644l0-.035V17.887ZM5.892,1.7v0H0V32.1H23.852l-.013-4.939a2.53,2.53,0,0,0-1.7-2.211,3.64,3.64,0,0,0-.654-.2,3.963,3.963,0,0,0-.725-.082H20.7L9.972,24.653H9.5V5.381l0-.036A3.25,3.25,0,0,0,5.892,1.7" transform="translate(0 -0.887)" fill="#848484"/><path d="M222.258,16.057h0A16.062,16.062,0,0,0,206.2,0V0h0V0a16.062,16.062,0,0,0-16.055,16.056h0A16.063,16.063,0,0,0,206.2,32.114v0h0v0A16.063,16.063,0,0,0,222.26,16.057h0Zm-8.7,0h0a8.77,8.77,0,0,1-2.133,5.814,6.952,6.952,0,0,1-5.215,2.438v0h0v0a6.949,6.949,0,0,1-5.216-2.438,8.769,8.769,0,0,1-2.133-5.813h0a8.769,8.769,0,0,1,2.133-5.814A6.95,6.95,0,0,1,206.2,7.8v0h0v0a6.949,6.949,0,0,1,5.216,2.438,8.769,8.769,0,0,1,2.133,5.813h0Z" transform="translate(-107.751 0)" fill="#848484"/></g></svg>