<svg xmlns="http://www.w3.org/2000/svg" xmlns:xlink="http://www.w3.org/1999/xlink" width="140.04" height="25.185" viewBox="0 0 140.04 25.185"><defs><clipPath id="a"><rect width="140.04" height="25.185" fill="#848484"/></clipPath></defs><path d="M0,2.953l8.25,9.29L3.126,26.85h7l5-14.6L7.089,2.953Z" transform="translate(0 -2.322)" fill="#848484"/><g transform="translate(0 0)"><g transform="translate(0 0)" clip-path="url(#a)"><path d="M65.509,14.366l.006-.067A6.311,6.311,0,0,0,69.03,9.211c.325-4.117-3.258-6.258-8.623-6.258H46.818l7.107,8.368,1.241-3.348h4.808c1.763,0,2.4.937,2.315,2.042a2.344,2.344,0,0,1-2.538,2.209H54.889L53.25,16.91h6.73c1.913,0,2.727,1.1,2.622,2.443a2.775,2.775,0,0,1-3.05,2.51h-6.5l-2.7.018,3.3-9.635L45.612,2.953h-7.09l8.251,9.29L41.648,26.85h4.447l0,.034H58.516c5.329,0,10.358-1.908,10.77-7.129a4.931,4.931,0,0,0-3.777-5.389" transform="translate(-30.29 -2.322)" fill="#848484"/><path d="M208.8,2.954h-6.338L188.6,22.787l-5.273-5.936c8.82,0,9.021-6.385,8.841-8.524a5.344,5.344,0,0,0-.081-.654l-.006-.037h0c-.607-3.085-3.908-4.683-8.541-4.683H173.218a5.539,5.539,0,0,1,3.423,5.02H183.1c1.763,0,2.4.937,2.315,2.042a2.343,2.343,0,0,1-2.538,2.209h-5.05l-1.639,4.686,8.27,9.94H192.2l9.955-14.338-.485,5.947h-1.931l-3.811,5.452h5.3l-.24,2.939h5.992l1.835-23.9Z" transform="translate(-136.202 -2.323)" fill="#848484"/><path d="M345.275,21.837a16.617,16.617,0,0,0-1.866.1l.018-.066a19.86,19.86,0,0,0,2.435-2.172L358.58,7.9l1.261-4.951h-19.5L338.89,7.967h11.984l-15.95,13.914-1.166,4.969h19.564l1.379-5.014Z" transform="translate(-262.436 -2.323)" fill="#848484"/><path d="M548.426,0c-7.463,0-14.829,6.577-15.477,14.313-.528,6.3,3.555,10.872,10.542,10.872,7.361,0,14.872-6.681,15.532-14.553C559.537,4.464,555.378,0,548.426,0m4.4,11.008c-.411,4.907-4.82,8.724-8.807,8.724-3.17,0-5.191-2.317-4.9-5.759.4-4.772,4.7-8.52,8.79-8.52,3.169,0,5.2,2.215,4.92,5.555" transform="translate(-419.024 0)" fill="#848484"/><path d="M441.057,21.937l.018-.066a19.831,19.831,0,0,0,2.435-2.172L456.228,7.9l1.26-4.95h-19.5l-1.453,5.013H448.52L432.57,21.881,431.4,26.85h19.564l1.379-5.013h-9.425a16.589,16.589,0,0,0-1.865.1" transform="translate(-339.216 -2.323)" fill="#848484"/></g></g></svg>