<svg xmlns="http://www.w3.org/2000/svg" xmlns:xlink="http://www.w3.org/1999/xlink" width="152.8" height="44.874" viewBox="0 0 152.8 44.874"><defs><clipPath id="a"><rect width="152.8" height="44.873" fill="#848484"/></clipPath></defs><path d="M160.747,77.9l-.078-.009-.09-.006-.107,0H156.1l-.026,0-.042.007-.04.009-.038.011-.036.013-.036.015-.034.017-.034.019-.033.022-.034.025-.034.028-.033.031-.034.034-.035.039-.034.043-.015.02-2.391,4.624h0l.017.007.025.008.034.008.043.007.052,0,.069,0h4.008l.112,0,.1-.006.1-.01.09-.014.086-.017.08-.021.076-.024.071-.028.068-.03.064-.033.06-.036.058-.04.055-.043.052-.047.05-.05.011-.012,2.3-4.548-.037-.009Z" transform="translate(-112.153 -57.025)" fill="#848484" fill-rule="evenodd"/><g clip-path="url(#a)"><path d="M76.4,0C34.205,0,0,10.044,0,22.436S34.205,44.873,76.4,44.873s76.4-10.045,76.4-22.437S118.595,0,76.4,0M27.071,29.032l-.185-.01-.186-.016-.185-.021-.184-.028-.182-.033-.18-.04-.177-.046-.174-.052-.17-.058-.165-.064-.159-.071-.154-.077-.147-.083-.14-.09-.132-.1-.124-.1-.115-.109-.105-.116-.1-.122-.084-.13-.072-.136-.06-.143-.046-.149-.033-.156-.018-.162,0-.168.013-.175.029-.18.045-.187.062-.192.081-.2,1.754-3.468H18.206l-3.384,6.712H10.275l-.109-.109,8.1-16.029h4.547l.115.115-3.157,6.1h7.7l2.94-6.1h4.626l.112.112L27.295,29.036Zm1.9.028-.112-.112,5.57-11.195H38.8l.117.117L33.286,29.06Zm21.1-2.051-.082.14-.085.134-.089.129-.092.123-.1.118-.1.112-.1.108-.1.1-.107.1-.111.092-.113.087-.116.082-.119.077-.122.073-.124.067-.127.063-.129.058-.132.054-.135.05-.137.046-.14.041-.142.037-.144.033-.146.029-.149.025-.151.021-.153.018-.155.014-.157.01-.159.007-.161,0H40.746l-.181,0-.187-.01-.192-.015-.2-.021-.2-.026-.2-.031-.2-.036-.2-.042-.205-.047-.2-.052-.2-.057-.2-.062-.2-.068-.192-.073-.187-.078-.181-.083-.174-.088-.167-.093-.159-.1-.149-.1-.139-.109-.129-.114-.116-.12-.1-.125-.09-.13-.075-.136-.059-.142-.042-.147-.024-.152-.005-.156.015-.161.036-.169,3.035-6.242.1-.176.1-.167.109-.159.114-.151.12-.143.126-.135.131-.127.136-.12.14-.112.145-.106.149-.1.153-.092.156-.085.161-.079.164-.073.167-.067.17-.062.172-.056.175-.051.176-.046.179-.042.18-.036.182-.032.183-.028.184-.024.185-.02.186-.017.185-.014.186-.01.185-.007.186,0,.185,0,6.2.023,2.107-3.99H56.69l.107.107-3.546,6.811-3.107,6.185Zm9.97-6.151-.1.006-.1.01-.09.014-.084.017-.079.021-.073.024-.07.027-.065.029-.061.032-.057.036-.054.038-.051.042-.049.045-.047.049-.012.014-3.9,7.8H50.8l-.111-.111,4.434-8.862.051-.12.067-.142.072-.138.077-.134.082-.13.087-.126.092-.121.1-.117.1-.112.106-.107.111-.1.116-.1.12-.092.123-.087.129-.081.133-.076.137-.071.14-.065.144-.06.147-.055.151-.05.153-.044.157-.039.16-.035.164-.029.166-.025.17-.02.173-.015.176-.01.179-.006h.182l.173,0h9.328l.11.11-1.547,2.965h-7Zm19.99,5.955-.1.169-.109.16-.115.152-.12.144-.126.137-.131.129-.136.122-.141.114-.146.107-.15.1-.153.094-.158.088-.161.081-.165.075-.167.069-.171.064-.173.058-.176.053-.178.048-.179.043-.182.039L76.7,28.9l-.185.03-.185.026-.186.022-.186.018-.187.015-.187.012-.187.009-.186.006-.186,0H69.643l-.176,0-.18-.007-.184-.01L68.917,29l-.188-.018-.189-.023-.189-.027-.189-.032-.187-.037-.184-.043-.181-.048-.178-.054-.172-.06-.167-.066-.16-.072-.153-.079-.145-.086-.136-.093-.125-.1-.115-.109-.1-.117-.09-.126-.076-.134-.061-.143-.045-.152-.028-.16-.01-.169.008-.178.027-.187.047-.2.067-.2.089-.214,3.115-6.2.066-.152.073-.148.078-.141.084-.134.089-.127.094-.121.1-.115.1-.108.108-.1.112-.1.116-.09.119-.084.123-.078.126-.073.129-.067.133-.062.136-.058.138-.052.14-.048.143-.043.145-.039L71.7,17.9l.148-.03.15-.027.151-.022L72.3,17.8l.153-.015.154-.012.155-.009.155-.006.156,0H78.69l.267,0,.264.008.259.013.255.017.25.022.244.027.238.032.231.038.224.044.217.05.208.055.2.062.191.068.18.075.17.082.16.089.148.1.136.1.124.112.111.121.1.129.082.137.067.145.051.154.034.163.017.171v.179l-.018.188-.036.2-.055.2-.074.213-.093.222-2.717,5.659Zm15.751,0-.1.169-.109.16-.114.152-.121.144-.125.137-.131.129-.136.122-.141.115-.145.107-.15.1-.154.094-.157.088-.161.081-.165.075-.168.069-.171.064-.173.058-.176.053L93,28.779l-.18.043-.182.039-.183.035-.185.03-.185.026-.186.022-.186.018-.187.015-.187.012-.187.009-.186.006-.186,0H85.394l-.175,0-.178-.006-.18-.009L84.68,29l-.182-.017-.183-.021-.182-.025-.181-.03-.179-.035-.176-.04-.172-.046-.169-.051-.164-.058-.159-.063-.153-.071-.146-.077-.138-.085-.131-.092-.122-.1-.112-.108-.1-.117-.09-.126-.078-.134-.065-.144-.051-.153-.037-.162-.021-.171,0-.181.011-.19.028-.2.046-.21.066-.223,1.581-3.133.045-.076.046-.072.047-.07.049-.067.05-.065.052-.062.053-.059.055-.057.056-.054.058-.052.059-.05.061-.047.062-.044.063-.042.065-.04.066-.037.067-.035.068-.033.07-.031.071-.028.072-.026.074-.023.075-.022.076-.019.077-.017.079-.015.08-.013.081-.011.082-.009.084-.007.084-.005.086,0h8.149l.463-.857-.013-.006-.025-.008-.034-.008-.043-.007-.052,0-.069,0H84.426l1.463-3.1h8.553l.179,0,.188.007.194.01.2.014.205.019.209.023.212.028.213.033.213.039.213.044.21.05.208.057.2.063.2.07.191.077.184.085.175.092.166.1.155.11.143.118.13.127.114.137.1.147.081.157.063.168.042.178.02.188,0,.2-.025.208-.05.219-.075.23-.1.239-2.726,5.643Zm14.727,2.25H96.2l-.113-.113L97.72,26l10.269-5.309H100.4l-.1-.1,1.459-2.831h13.831l.108.108L114.4,20.7l-9.938,5.154h7.279l.113.113Zm16.672-2.251-.1.169-.109.16-.115.152-.121.144-.126.137-.131.129-.136.122-.141.115-.146.107-.149.1-.154.094-.158.088-.161.081-.165.076-.168.069-.17.064-.174.058-.176.053-.178.048-.18.043-.181.039-.183.034-.184.03-.185.026-.186.022-.187.018-.187.015-.187.012-.187.009-.187.006-.186,0h-5.386l-.156,0-.163-.007-.17-.011L116.128,29l-.179-.019-.183-.024-.185-.028-.186-.033-.187-.039-.186-.043-.185-.049-.182-.054-.178-.061-.173-.067-.167-.073-.16-.08-.153-.087-.144-.094-.134-.1-.123-.109-.111-.117-.1-.126-.082-.134-.067-.143-.05-.152-.032-.16-.012-.169.009-.177.03-.185.051-.194.075-.2.1-.209,4.172-8.316H121.9l.108.108-3.883,7.685-.026.061-.013.056v.048l.014.039.029.035.055.032.088.024.128.011h4.207l.088-.007.08-.015.074-.024.067-.032.061-.041.057-.051.051-.062.047-.073,3.984-7.794h4.223l.107.107-4.176,8.774Zm4.813,2.248h-4.324l-.111-.11,7.628-15.19h4.231l.113.112Z" transform="translate(0 0.001)" fill="#848484" fill-rule="evenodd"/><path d="M271.63,77.9l-.034-.008-.043-.007-.052,0-.07,0H267.4l-.112,0-.1.006-.095.01-.09.014-.084.017-.079.021-.074.024-.069.027-.065.029-.061.033-.057.036-.054.038-.051.042-.049.045-.047.049-.014.016-2.325,4.547h0l.055.012.067.011.08.009.09.006.108,0,4.333.027.018,0,.047-.01.046-.012.044-.014.041-.016.039-.017.039-.02.038-.022.037-.024.036-.027.035-.029.035-.032.035-.036.035-.039.034-.043.015-.021,2.391-4.624-.017-.008Z" transform="translate(-193.28 -57.025)" fill="#848484" fill-rule="evenodd"/><path d="M322.793,93.91h0l.055.013.068.011.079.008.091.006.108,0,4.331.028.014,0,.046-.01.046-.012.046-.015.046-.017.046-.02.047-.022.046-.025.047-.028.047-.032.048-.035.048-.038.048-.042.049-.046.049-.049.005-.005.31-.577h-5.251Z" transform="translate(-236.35 -68.097)" fill="#848484" fill-rule="evenodd"/></g></svg>