<svg xmlns="http://www.w3.org/2000/svg" xmlns:xlink="http://www.w3.org/1999/xlink" width="117.649" height="46.002" viewBox="0 0 117.649 46.002"><defs><clipPath id="a"><rect width="117.649" height="46.002" fill="#848484"/></clipPath></defs><g transform="translate(0 0)"><g transform="translate(0 0)" clip-path="url(#a)"><path d="M64.381,17.142H62.687v2.91h-3.2V9.257H64.52c2.894,0,4.558,1.386,4.558,3.834a3.681,3.681,0,0,1-1.817,3.434l2.187,3.526H65.813Zm.139-2.464a1.359,1.359,0,0,0,1.509-1.493,1.351,1.351,0,0,0-1.509-1.463H62.687v2.956Z" transform="translate(-7.563 -1.177)" fill="#848484"/><path d="M75.478,11.721v1.693h5.1v2.464h-5.1v1.709h5.774v2.464H72.275V9.257H81.1v2.464Z" transform="translate(-9.189 -1.177)" fill="#848484"/><path d="M89.052,9.257c3.5,0,5.805,2.141,5.805,5.39s-2.356,5.4-5.913,5.4H84.325V9.257Zm-1.524,8.284h1.617c1.463,0,2.448-1.139,2.448-2.864a2.617,2.617,0,0,0-2.6-2.9H87.528Z" transform="translate(-10.721 -1.177)" fill="#848484"/><path d="M100.971,11.721v1.693h5.1v2.464h-5.1v1.709h5.774v2.464H97.768V9.257h8.823v2.464Z" transform="translate(-12.43 -1.177)" fill="#848484"/><path d="M62.854,26.6v2.156h4.8V31.22h-4.8v3.711h-3.2V24.137h8.376V26.6Z" transform="translate(-7.584 -3.069)" fill="#848484"/><path d="M72.661,33.207l-.646,1.725h-3.3l4.6-10.794h3.3l4.451,10.794H77.65l-.631-1.725Zm2.218-5.867-1.324,3.526h2.618Z" transform="translate(-8.737 -3.069)" fill="#848484"/><path d="M93.038,34.932l-.016-6.39-2.171,5.328H88.757l-2.172-5.328v6.39H83.768V24.138H87.2l2.6,5.974,2.6-5.974h3.434V34.932Z" transform="translate(-10.65 -3.069)" fill="#848484"/><path d="M99.682,34.932V26.4l3.2-1.026v9.561Zm0-9.3v-1.5h3.2V24.7Z" transform="translate(-12.673 -3.069)" fill="#848484"/><path d="M113.163,32.252v2.68h-7.73V24.138h3.2v8.114Z" transform="translate(-13.404 -3.069)" fill="#848484"/><rect width="3.203" height="10.794" transform="translate(100.868 21.068)" fill="#848484"/><path d="M124.07,33.207l-.646,1.725h-3.3l4.6-10.794h3.3l4.45,10.794h-3.418l-.631-1.725Zm2.218-5.867-1.324,3.526h2.618Z" transform="translate(-15.273 -3.069)" fill="#848484"/><path d="M61.289,40.348a1.081,1.081,0,1,0,0,2.162,1.271,1.271,0,0,0,.855-.364l.306.342a1.74,1.74,0,0,1-1.188.5,1.554,1.554,0,1,1,.017-3.106,1.692,1.692,0,0,1,1.166.474l-.3.377a1.2,1.2,0,0,0-.855-.39" transform="translate(-7.586 -5.071)" fill="#848484"/><path d="M67.853,41.435a1.629,1.629,0,1,1-1.626-1.548,1.571,1.571,0,0,1,1.626,1.548m-2.728,0a1.1,1.1,0,0,0,1.105,1.092,1.088,1.088,0,1,0-1.105-1.092" transform="translate(-8.213 -5.071)" fill="#848484"/><path d="M70.976,39.9l1.644,2.206V39.9h.509v3.07H72.62l-1.636-2.2v2.2h-.518V39.9Z" transform="translate(-8.959 -5.073)" fill="#848484"/><path d="M78.146,39.9v.465H76.471V41.2h1.5v.461h-1.5v.847H78.2v.464H75.953V39.9Z" transform="translate(-9.656 -5.073)" fill="#848484"/><path d="M82.087,40.348a1.081,1.081,0,1,0,0,2.162,1.271,1.271,0,0,0,.855-.364l.306.342a1.74,1.74,0,0,1-1.188.5,1.554,1.554,0,1,1,.017-3.106,1.692,1.692,0,0,1,1.166.474l-.3.377a1.2,1.2,0,0,0-.855-.39" transform="translate(-10.23 -5.071)" fill="#848484"/><path d="M87.807,39.9v.465h-.973v2.6h-.518v-2.6h-.97V39.9Z" transform="translate(-10.851 -5.073)" fill="#848484"/><path d="M91.757,42.279H90.209l-.293.693h-.539l1.355-3.07h.531l1.342,3.07h-.553Zm-.2-.46-.579-1.364L90.4,41.819Z" transform="translate(-11.363 -5.073)" fill="#848484"/><path d="M97.894,41.437a1.519,1.519,0,0,1-1.6,1.535H95.048V39.9h1.259a1.51,1.51,0,0,1,1.588,1.535m-.522,0A1.047,1.047,0,0,0,96.3,40.367h-.732v2.14h.754a1.029,1.029,0,0,0,1.053-1.066" transform="translate(-12.084 -5.073)" fill="#848484"/><path d="M102.282,42.279h-1.548l-.293.693H99.9l1.355-3.07h.531l1.342,3.07h-.553Zm-.2-.46-.579-1.364-.579,1.364Z" transform="translate(-12.701 -5.073)" fill="#848484"/><path d="M110.51,42.279h-1.548l-.294.693h-.539l1.355-3.07h.53l1.342,3.07h-.552Zm-.2-.46-.58-1.364-.578,1.364Z" transform="translate(-13.747 -5.073)" fill="#848484"/><path d="M116.925,39.9l.947,2.5.957-2.5h.539l-1.241,3.07h-.535l-1.224-3.07Z" transform="translate(-14.795 -5.073)" fill="#848484"/><path d="M124.731,41.435a1.629,1.629,0,1,1-1.627-1.548,1.571,1.571,0,0,1,1.627,1.548m-2.728,0a1.1,1.1,0,0,0,1.105,1.092A1.088,1.088,0,1,0,122,41.435" transform="translate(-15.444 -5.071)" fill="#848484"/><path d="M128.536,40.348a1.081,1.081,0,1,0,0,2.162,1.271,1.271,0,0,0,.855-.364l.306.342a1.74,1.74,0,0,1-1.188.5,1.554,1.554,0,1,1,.017-3.106,1.692,1.692,0,0,1,1.166.474l-.3.377a1.2,1.2,0,0,0-.855-.39" transform="translate(-16.135 -5.071)" fill="#848484"/><path d="M134.406,39.762v.465H132.73v.834h1.5v.46h-1.5v.847h1.728v.465h-2.246V39.762Zm-.825-.965.452.619h-.413l-.271-.387-.272.387h-.412l.451-.619Z" transform="translate(-16.809 -4.933)" fill="#848484"/><path d="M5.5,40.2a4.742,4.742,0,0,0,.442.649c-.151-.213-.3-.43-.442-.649" transform="translate(-0.7 -5.111)" fill="#848484"/><path d="M10.967,9.067s6.8-1.36,11.387-1.784c0,0,6.6-.68,10.565-.793a23.642,23.642,0,0,1,3.776.125.585.585,0,0,1,.2.072,3.931,3.931,0,0,1,.436.286c.024.019.049.039.071.058l1.037-1.024A23.057,23.057,0,0,0,24.024.031,22,22,0,0,0,8.758,5.386,33.675,33.675,0,0,0,4.622,9.917l-.113.226.949.882a.469.469,0,0,1,.069-.1c.244-.288,1.3-1.162,5.441-1.861" transform="translate(-0.573 0)" fill="#848484"/><path d="M46.532,25.488l-1.236-.51.022.333,0,.008c-.137.382-1.076.977-1.076.977-1.87,1.359-9.645,3.313-9.645,3.313-1.1.34-12.108,2.592-12.108,2.592L13.1,34.028c-.737.085-.765,1.4-.765,1.4-.657,5.349.3,8.255.848,9.416a3.829,3.829,0,0,0,.342.61s2.166,4.079,12.575,3.7,16.783-9.985,16.783-9.985c4.844-8.242,3.654-13.68,3.654-13.68" transform="translate(-1.539 -3.176)" fill="#848484"/><path d="M5.244,37.976a4.822,4.822,0,0,1-.442-.649C3.426,34.908,3.6,30.994,3.6,30.994a15.943,15.943,0,0,1,.65-3.852,2.352,2.352,0,0,1,2.041-1.784L17.873,23.12l24.943-3.875.038-.006.82-.765a24.572,24.572,0,0,0-1.953-4.787c-.652-1.586-1.842-1.445-1.842-1.445s-.3-.006-.873,0c-1.825.014-6.415.258-13.006.937A159.875,159.875,0,0,0,7.882,16.37a29.085,29.085,0,0,0-5.065,1.538,11.689,11.689,0,0,0-1.6.738L.991,19.3a24.283,24.283,0,0,0-.963,8.1c1.048,8.837,4.561,11.188,4.561,11.188l.731-.5.006,0c-.029-.033-.055-.068-.082-.1" transform="translate(0 -1.557)" fill="#848484"/></g></g></svg>