<svg xmlns="http://www.w3.org/2000/svg" xmlns:xlink="http://www.w3.org/1999/xlink" width="123.96" height="40.355" viewBox="0 0 123.96 40.355"><defs><clipPath id="a"><rect width="123.96" height="40.355" fill="#848484"/></clipPath></defs><g clip-path="url(#a)"><path d="M230.1,110.477v-6.654h-2.674v-1.759h7.343v1.759H232.11v6.654Zm-18,0v-8.413h5.181V103.8h-3.232v1.521h2.768v1.723h-2.768v1.664h3.279v1.77ZM195.656,108.1a7.318,7.318,0,0,0,1.319.665,3.168,3.168,0,0,0,1.057.19,1.4,1.4,0,0,0,.838-.23.7.7,0,0,0,.315-.588c0-.343-.374-.731-1.125-1.159l-.279-.162-.568-.321a3.549,3.549,0,0,1-1.228-1.061,2.333,2.333,0,0,1-.4-1.341,2.086,2.086,0,0,1,.766-1.665,2.943,2.943,0,0,1,1.977-.649,4.977,4.977,0,0,1,.968.1,9.039,9.039,0,0,1,1.161.325v1.97a6.691,6.691,0,0,0-1.155-.588,2.7,2.7,0,0,0-.929-.208,1.1,1.1,0,0,0-.668.182.585.585,0,0,0-.244.5.661.661,0,0,0,.145.41,1.32,1.32,0,0,0,.436.349l.986.545a5.289,5.289,0,0,1,1.665,1.266,2.257,2.257,0,0,1,.428,1.376,2.554,2.554,0,0,1-.838,1.988,3.2,3.2,0,0,1-2.226.756,5.878,5.878,0,0,1-1.022-.1,9.85,9.85,0,0,1-1.212-.307Zm-16.07,0a7.318,7.318,0,0,0,1.319.665,3.168,3.168,0,0,0,1.058.19,1.4,1.4,0,0,0,.837-.23.7.7,0,0,0,.315-.588c0-.343-.374-.731-1.125-1.159l-.279-.162-.568-.321a3.547,3.547,0,0,1-1.228-1.061,2.333,2.333,0,0,1-.4-1.341,2.086,2.086,0,0,1,.767-1.665,2.942,2.942,0,0,1,1.976-.649,4.974,4.974,0,0,1,.968.1,9.039,9.039,0,0,1,1.161.325v1.97a6.691,6.691,0,0,0-1.154-.588,2.7,2.7,0,0,0-.929-.208,1.1,1.1,0,0,0-.668.182.586.586,0,0,0-.243.5.659.659,0,0,0,.145.41,1.315,1.315,0,0,0,.435.349l.986.545a5.288,5.288,0,0,1,1.665,1.266,2.257,2.257,0,0,1,.428,1.376,2.554,2.554,0,0,1-.838,1.988,3.2,3.2,0,0,1-2.226.756,5.878,5.878,0,0,1-1.022-.1,9.852,9.852,0,0,1-1.212-.307Zm-18.825,2.376,4.292-8.674h.126l4.2,8.674h-2.1l-.533-1.224h-3.414l-.545,1.224Zm3.149-2.673h2.21l-1.091-2.634Z" transform="translate(-111.188 -70.394)" fill="#848484"/><path d="M219.141,24.429V.026h15.028V5.058h-9.375V9.47h8.031v5h-8.031v4.825h9.513v5.136Zm-13.484.931h-.4L193.738.026H199.9l5.756,13.345L211.465.026h5.71Zm-27.914-.931V.026h15.028V5.058H183.4V9.47h8.031v5H183.4v4.825h9.513v5.136Zm-18.2,0V.026h5.825V19.19h9.513v5.239Z" transform="translate(-110.346 -0.018)" fill="#848484"/><path d="M3.936,30.811c.03-.063.05-.127.082-.19v-.008l.039-.087.186-.322h0l.519-.9h0L16.233,9.436a4.125,4.125,0,0,1,.87-1.094,1.947,1.947,0,0,1,1.276-.516h0c.019,0,.039,0,.058,0a1.765,1.765,0,0,1,.715.185,3.326,3.326,0,0,1,1.363,1.416l9.943,17.221h3.093q.183,0,.352-.012a1.909,1.909,0,0,0,1.6-.742,1.236,1.236,0,0,0,.152-.649,3.083,3.083,0,0,0-.473-1.429l-.175-.3L23.038,2.807c-.024-.038-.047-.077-.071-.114A5.948,5.948,0,0,0,20.392.422L20.364.409a5.069,5.069,0,0,0-.568-.2l-.08-.024a5.048,5.048,0,0,0-.605-.128L19.066.05A5.2,5.2,0,0,0,18.428,0h-.065a5.05,5.05,0,0,0-4.346,2.4L.8,25.292C.158,26.355-.456,27.748.479,29.148L3.261,34c-.008-.142,0-.286.005-.43,0-.064,0-.127,0-.191a6.02,6.02,0,0,1,.062-.6c.011-.078.021-.155.035-.233.034-.181.078-.362.128-.544.029-.107.059-.214.094-.321.05-.152.106-.3.167-.455s.115-.277.18-.416" transform="translate(0)" fill="#848484"/><path d="M68.928,30.106a5.052,5.052,0,0,0,.094-4.965L55.806,2.251c-.6-1.088-1.5-2.319-3.178-2.207L47.03.026c.129.064.249.147.374.222.052.031.106.06.158.093a6.084,6.084,0,0,1,.5.36c.059.047.119.093.177.142.142.121.278.251.412.387.077.078.153.156.227.238.107.12.211.245.312.375s.183.238.27.364c.039.057.084.106.122.165l.007,0,.056.077.7,1.221,2.365,4.1L61.82,23.544a3.658,3.658,0,0,1,.553,1.651,1.832,1.832,0,0,1-.232,1.013c-.276.478-.926,1.048-2.458,1.048H39.8l-1.546,2.678q-.092.159-.166.312a2.316,2.316,0,0,0-.278,1.41,1.117,1.117,0,0,0,.122.344,1.093,1.093,0,0,0,.125.173,2.424,2.424,0,0,0,1.835.587h23.98c.148,0,.289-.007.429-.015a5.945,5.945,0,0,0,3.248-1.093l.026-.019a5.019,5.019,0,0,0,.46-.392l.059-.055a5.013,5.013,0,0,0,.417-.464l.023-.03a5.176,5.176,0,0,0,.365-.535l.031-.052" transform="translate(-26.132 -0.018)" fill="#848484"/><path d="M47.32,55.986l2.814-4.838c-.12.079-.253.142-.379.213-.054.03-.105.061-.16.09a6.087,6.087,0,0,1-.561.251c-.071.028-.14.057-.212.083-.176.062-.357.115-.542.163-.1.028-.209.054-.317.077-.159.034-.321.061-.486.084-.145.021-.291.038-.44.051-.071.006-.138.02-.209.024l-.007,0-.1.01H22.371c-1.536,0-2.189-.573-2.467-1.054a1.821,1.821,0,0,1-.23-1.008,3.652,3.652,0,0,1,.552-1.644l1.715-2.971h0L30.169,31.27l-1.546-2.678c-.471-.817-1.027-1.275-1.57-1.306-.019,0-.039-.006-.058-.006a1.706,1.706,0,0,0-1.256.753,4.375,4.375,0,0,0-.383.564L13.232,49.615c-.022.042-.046.084-.067.125a5.947,5.947,0,0,0-.678,3.365c0,.009,0,.018,0,.027a4.957,4.957,0,0,0,.11.6c.006.025.011.051.018.076a5.023,5.023,0,0,0,.194.594l.014.035a5.2,5.2,0,0,0,.279.581c.01.018.02.038.031.056a5.051,5.051,0,0,0,4.253,2.564H43.82c1.241.024,2.756-.141,3.5-1.649" transform="translate(-8.614 -18.868)" fill="#848484"/></g></svg>