<svg xmlns="http://www.w3.org/2000/svg" xmlns:xlink="http://www.w3.org/1999/xlink" width="170.837" height="31.488" viewBox="0 0 170.837 31.488"><defs><clipPath id="a"><rect width="170.837" height="31.488" fill="none"/></clipPath></defs><g transform="translate(0 0)"><g transform="translate(0 0)" clip-path="url(#a)"><path d="M305.616,13.628a11.15,11.15,0,0,0-3.683-.53q-1.4,0-3.081.11t-3.294.292q-1.618.184-2.943.4l.351,2.522q2.183-.146,4.425-.292t3.723-.146a4.51,4.51,0,0,1,2.943.695,3.049,3.049,0,0,1,.8,2.266v1.426H297.1a6.06,6.06,0,0,0-3.957,1.17,3.978,3.978,0,0,0-1.423,3.253v1.937a4.809,4.809,0,0,0,.74,2.724,4.576,4.576,0,0,0,2.047,1.682,7.538,7.538,0,0,0,3.021.567,9.448,9.448,0,0,0,2.943-.439,12.316,12.316,0,0,0,2.457-1.1,11.506,11.506,0,0,0,1.89-1.371c.149-.136.283-.264.411-.389l.447,2.966h2.962V18.947a6.869,6.869,0,0,0-.76-3.509,4.13,4.13,0,0,0-2.261-1.81m-2.086,13.635a12.057,12.057,0,0,1-2.71,1.17,8.963,8.963,0,0,1-2.436.384,3.212,3.212,0,0,1-2.163-.6,2.438,2.438,0,0,1-.682-1.919V25.2a2.439,2.439,0,0,1,.527-1.663,2.459,2.459,0,0,1,1.851-.64l6.938-.028v3.48a9.851,9.851,0,0,1-1.325.916" transform="translate(-160.347 -7.199)" fill="#fff"/><path d="M355.372,13.537h-6.1a18.418,18.418,0,0,0-4.384-.439,17.35,17.35,0,0,0-4.951.567,4.456,4.456,0,0,0-2.611,1.828,6.22,6.22,0,0,0-.78,3.308,5.889,5.889,0,0,0,.78,3.18,4.152,4.152,0,0,0,1.743,1.5,2.853,2.853,0,0,0-.906.875,3.942,3.942,0,0,0-.623,1.554,3.24,3.24,0,0,0,.156,1.645,3.206,3.206,0,0,0,1.033,1.426c.027.022.061.039.09.06a10.1,10.1,0,0,0-1.493.872,3.678,3.678,0,0,0-1.229,1.426,4.7,4.7,0,0,0-.37,1.974,6.053,6.053,0,0,0,.468,2.522,3.729,3.729,0,0,0,1.54,1.663,7.962,7.962,0,0,0,2.866.914,30.392,30.392,0,0,0,4.484.274,23.2,23.2,0,0,0,5.457-.512,4.925,4.925,0,0,0,2.9-1.718,5.633,5.633,0,0,0,.877-3.363,5.08,5.08,0,0,0-1.092-3.491,5.95,5.95,0,0,0-3.821-1.554l-7.1-1.024a2.017,2.017,0,0,1-1.56-.8,1.706,1.706,0,0,1-.117-1.389,2.621,2.621,0,0,1,.35-.728,19.608,19.608,0,0,0,3.859.326,16.2,16.2,0,0,0,4.912-.6,4.612,4.612,0,0,0,2.612-1.865,5.99,5.99,0,0,0,.78-3.2,6.229,6.229,0,0,0-.73-3.174l2.758-.226Zm-5.925,17.419a1.625,1.625,0,0,1,.955.695,2.812,2.812,0,0,1,.253,1.334,2.706,2.706,0,0,1-.487,1.736,2.806,2.806,0,0,1-1.7.841,18.917,18.917,0,0,1-3.43.238,21.166,21.166,0,0,1-3.47-.219,2.723,2.723,0,0,1-1.735-.841,2.848,2.848,0,0,1-.487-1.791,3.129,3.129,0,0,1,.273-1.371,4.079,4.079,0,0,1,.8-1.1,7.811,7.811,0,0,1,.814-.691l6.184.746a11.74,11.74,0,0,1,2.027.42m-.838-9.779a6.911,6.911,0,0,1-3.763.731,7.015,7.015,0,0,1-3.781-.731,2.728,2.728,0,0,1-1.053-2.412,2.72,2.72,0,0,1,1.053-2.431,7.174,7.174,0,0,1,3.781-.713,7.067,7.067,0,0,1,3.763.713,2.743,2.743,0,0,1,1.033,2.431,2.75,2.75,0,0,1-1.033,2.412" transform="translate(-184.535 -7.199)" fill="#fff"/><path d="M9.793,0q1.922.034,4.244.238a22.787,22.787,0,0,1,4.5.85L18.1,5.238Q16.5,5.2,14.2,5.17T9.684,5.136q-.835,0-1.4.051a2.907,2.907,0,0,0-.907.2.956.956,0,0,0-.49.442,1.81,1.81,0,0,0-.145.8,1.5,1.5,0,0,0,.526,1.242,6.262,6.262,0,0,0,1.868.867l4.679,1.632a9.026,9.026,0,0,1,4.262,2.772A7.018,7.018,0,0,1,19.3,17.414a9.587,9.587,0,0,1-.508,3.333,4.381,4.381,0,0,1-1.65,2.143,8.131,8.131,0,0,1-3.011,1.156A24.1,24.1,0,0,1,9.5,24.42q-1.27,0-3.718-.17a35.819,35.819,0,0,1-5.531-.884l.4-4.49q2.176.034,3.863.085t2.938.068q1.252.017,1.977.017a11.224,11.224,0,0,0,1.886-.119,1.441,1.441,0,0,0,.907-.442,1.49,1.49,0,0,0,.254-.935,1.959,1.959,0,0,0-.182-.918,1.453,1.453,0,0,0-.635-.578,7.517,7.517,0,0,0-1.215-.476L5.441,13.707a9.574,9.574,0,0,1-4.207-2.755A6.656,6.656,0,0,1,0,6.769,8.683,8.683,0,0,1,.544,3.435a4.441,4.441,0,0,1,1.687-2.04A7.985,7.985,0,0,1,5.259.323,27.261,27.261,0,0,1,9.793,0" transform="translate(0 0)" fill="#fff"/><rect width="6.746" height="24.42" transform="translate(23.534)" fill="#fff"/><rect width="6.747" height="24.42" transform="translate(88.186)" fill="#fff"/><path d="M230.409,0q1.922.034,4.244.238a22.787,22.787,0,0,1,4.5.85l-.435,4.149q-1.6-.033-3.9-.068T230.3,5.136q-.835,0-1.4.051a2.907,2.907,0,0,0-.907.2.956.956,0,0,0-.49.442,1.81,1.81,0,0,0-.145.8,1.5,1.5,0,0,0,.526,1.242,6.262,6.262,0,0,0,1.868.867l4.679,1.632a9.028,9.028,0,0,1,4.262,2.772,7.018,7.018,0,0,1,1.215,4.269,9.575,9.575,0,0,1-.508,3.333,4.378,4.378,0,0,1-1.65,2.143,8.131,8.131,0,0,1-3.011,1.156,24.1,24.1,0,0,1-4.625.374q-1.27,0-3.718-.17a35.819,35.819,0,0,1-5.531-.884l.4-4.49q2.176.034,3.863.085t2.938.068q1.252.017,1.977.017a11.224,11.224,0,0,0,1.886-.119,1.441,1.441,0,0,0,.907-.442,1.49,1.49,0,0,0,.254-.935,1.959,1.959,0,0,0-.182-.918,1.453,1.453,0,0,0-.635-.578,7.517,7.517,0,0,0-1.215-.476l-5.005-1.871a9.574,9.574,0,0,1-4.207-2.755,6.656,6.656,0,0,1-1.233-4.183,8.683,8.683,0,0,1,.544-3.333,4.441,4.441,0,0,1,1.686-2.04A7.985,7.985,0,0,1,225.875.323,27.27,27.27,0,0,1,230.409,0" transform="translate(-121.264 0)" fill="#fff"/><path d="M94.871,0s.066,11.848.131,15.488l-1.839-3.142c-.072-.127-.141-.262-.214-.383L87.073,1.946A7.516,7.516,0,0,0,85.984.5a2.218,2.218,0,0,0-1.6-.5H81.378a2.091,2.091,0,0,0-2.394,2.336V24.42h6.347V9.354l2.336,3.968v0l5.389,9.147a6.257,6.257,0,0,0,1.07,1.451,2.281,2.281,0,0,0,1.614.5h3.047a2.074,2.074,0,0,0,2.358-2.336V0Z" transform="translate(-43.415 0)" fill="#fff"/><path d="M152.289,24.42h6.964L152.4,1.734A2.233,2.233,0,0,0,151.546.46,2.444,2.444,0,0,0,150.077,0H143.8a2.439,2.439,0,0,0-1.469.46,2.229,2.229,0,0,0-.852,1.274L134.625,24.42h6.964l1.512-5.8h7.676Zm-7.943-10.582.433-1.664,1.875-7.184h.578l.654,2.517c0,.021.009.045.014.066l1.632,6.264Z" transform="translate(-73.998 0)" fill="#fff"/><path d="M277.372,43a3.263,3.263,0,1,1-3.263-3.263A3.263,3.263,0,0,1,277.372,43" transform="translate(-148.874 -21.841)" fill="#004fff"/></g></g></svg>