<?xml version="1.0" encoding="UTF-8"?><svg id="Layer_2" xmlns="http://www.w3.org/2000/svg" viewBox="0 0 128 128"><defs><style>.cls-1{fill:#004fff;}.cls-2{fill:#fff;}</style></defs><g id="Layer_1-2"><rect class="cls-1" width="128" height="128"/><path class="cls-2" d="M64,72.07c-1.93,0-3.5-1.57-3.5-3.5v-22.17c0-1.93,1.57-3.5,3.5-3.5s3.5,1.57,3.5,3.5v22.17c0,1.93-1.57,3.5-3.5,3.5Z"/><path class="cls-2" d="M64,83.81c-.23,0-.46-.03-.68-.07-.23-.05-.45-.12-.66-.2-.21-.09-.41-.2-.6-.32-.19-.13-.37-.28-.54-.44-.65-.65-1.02-1.55-1.02-2.47,0-.23.02-.46.07-.69.04-.22.11-.44.2-.65.09-.22.19-.42.32-.61.13-.19.27-.37.43-.53,1.3-1.3,3.65-1.3,4.95,0,.17.16.31.34.44.53.13.19.23.39.32.61.09.21.16.43.2.65.05.23.07.46.07.69,0,.92-.37,1.82-1.03,2.47-.65.65-1.55,1.03-2.47,1.03Z"/><path class="cls-2" d="M64,103.37c-21.71,0-39.37-17.66-39.37-39.37s17.66-39.37,39.37-39.37,39.37,17.66,39.37,39.37-17.66,39.37-39.37,39.37ZM64,31.63c-17.85,0-32.37,14.52-32.37,32.37s14.52,32.37,32.37,32.37,32.37-14.52,32.37-32.37-14.52-32.37-32.37-32.37Z"/></g></svg>