<svg xmlns="http://www.w3.org/2000/svg" width="129.713" height="162.163" viewBox="0 0 129.713 162.163"><g transform="translate(-51.229)"><g transform="translate(51.229 0)"><path d="M114.742,125.793l3.708-3.708v45.5a2.375,2.375,0,1,0,4.751,0v-45.5l3.708,3.708a2.375,2.375,0,0,0,3.359-3.359l-7.763-7.763a2.375,2.375,0,0,0-3.359,0l-7.763,7.763a2.375,2.375,0,0,0,3.359,3.359Z" transform="translate(-91.855 -77.876)" fill="#fff"/><path d="M416.332,122.433l-7.763-7.763a2.376,2.376,0,0,0-3.359,0l-7.763,7.763a2.375,2.375,0,0,0,3.359,3.359l3.708-3.708v45.5a2.375,2.375,0,1,0,4.751,0v-45.5l3.708,3.708a2.376,2.376,0,0,0,3.36-3.36Z" transform="translate(-287.315 -77.876)" fill="#fff"/><path d="M160.035,134.091H141.4v-2.562a18.709,18.709,0,0,0,6.618-8.676h4.348a8.213,8.213,0,0,0,8.2-8.2v-4.824A8.158,8.158,0,0,0,159,105V91.158A25.079,25.079,0,0,0,138.687,66.57V62.079a2.375,2.375,0,0,0-4.751,0v4.037h-16.87v-21.6a3.329,3.329,0,0,0-3.326-3.326h-8.783L125.5,18.433l20.544,22.76h-8.784a3.329,3.329,0,0,0-3.326,3.326v6.475a2.375,2.375,0,0,0,4.751,0v-5.05h10.565a3.325,3.325,0,0,0,2.469-5.554L127.97,14.078a3.326,3.326,0,0,0-4.937,0L99.281,40.39a3.326,3.326,0,0,0,2.469,5.554h10.565V66.571A25.08,25.08,0,0,0,92,91.158V105a8.158,8.158,0,0,0-1.574,4.825v4.823a8.213,8.213,0,0,0,8.2,8.2h4.348a18.71,18.71,0,0,0,6.618,8.677v2.562H99.27a24.83,24.83,0,0,0-14.517-14.971l.127-.51a3.009,3.009,0,0,0-2.919-3.737H70.615a3.023,3.023,0,0,0-2.943,2.382l-.382,1.794A24.7,24.7,0,0,0,70,166.165l-.189,1.474a3,3,0,0,0,2.118,3.264,3.037,3.037,0,0,0,.873.129,3,3,0,0,0,2.694-1.684l1.217-2.478a24.674,24.674,0,0,0,3.035-.29,4.8,4.8,0,0,0,4.78,4.452H166.47a4.8,4.8,0,0,0,4.8-4.8v-5.654a2.375,2.375,0,1,0-4.751,0v5.655a.046.046,0,0,1-.047.047H127.876V143.4l7.843,6.228a3.505,3.505,0,0,0,5.685-2.744v-8.045h18.63a6.489,6.489,0,0,1,6.482,6.482V149.5a2.375,2.375,0,0,0,4.751,0v-4.172A11.246,11.246,0,0,0,160.035,134.091Zm-4.211-24.265v4.823a3.457,3.457,0,0,1-3.453,3.453h-3.279c.05-.557.08-1.119.08-1.689v-10.04h3.2A3.457,3.457,0,0,1,155.824,109.826ZM98.631,118.1a3.456,3.456,0,0,1-3.453-3.453v-4.824a3.456,3.456,0,0,1,3.453-3.453h3.2v10.04c0,.569.03,1.132.08,1.689Zm3.2-16.96v.48h-3.2a8.2,8.2,0,0,0-1.878.219V91.158a20.314,20.314,0,0,1,20.29-20.291h16.915a20.313,20.313,0,0,1,20.29,20.291v10.683a8.2,8.2,0,0,0-1.878-.219h-3.2V96.714a9.006,9.006,0,0,0-6.881-8.772,6.555,6.555,0,0,0-4.035.328l-13.712,5.686a4.981,4.981,0,0,1-1.917.382H108.633a6.811,6.811,0,0,0-6.8,6.8ZM70.613,161.414a19.943,19.943,0,0,1-4.559-36.554l-4.447,20.9A3.009,3.009,0,0,0,64.55,149.4h7.6Zm8.562.452,3.691-7.515a2.375,2.375,0,0,0-4.264-2.095l-2.742,5.581,1.256-9.8a3.009,3.009,0,0,0-2.985-3.392H66.7l5.324-25.021h7.7l-3.65,14.634A3.009,3.009,0,0,0,79,137.995h6.609l-2.107,4.29a2.375,2.375,0,1,0,4.264,2.095l3.341-6.8a3.009,3.009,0,0,0-2.7-4.336H81.23l2.364-9.475a19.943,19.943,0,0,1-4.418,38.1Zm43.95,4.416H84.532a.047.047,0,0,1-.047-.047v-.885a24.66,24.66,0,0,0,15.922-26.508h9.19v8.045a3.505,3.505,0,0,0,5.685,2.745l7.843-6.228Zm13.528-21.975-8.541-6.783a4.18,4.18,0,0,0-5.222,0l-8.541,6.783V134a18.528,18.528,0,0,0,6.095,1.028h10.116A18.527,18.527,0,0,0,136.654,134Zm-6.095-14.031H120.443a13.878,13.878,0,0,1-13.863-13.863V101.142a2.055,2.055,0,0,1,2.053-2.053h13.994a9.709,9.709,0,0,0,3.737-.744l13.712-5.686a1.77,1.77,0,0,1,1.087-.1,4.266,4.266,0,0,1,3.258,4.157v19.7a13.879,13.879,0,0,1-13.863,13.863Z" transform="translate(-51.229 -8.87)" fill="#fff"/><path d="M274.2,337.859a2.375,2.375,0,0,0-2.375,2.375c0,1.389-1.416,2.52-3.156,2.52s-3.155-1.13-3.155-2.52a2.375,2.375,0,0,0-4.751,0c0,4.009,3.547,7.271,7.906,7.271s7.906-3.262,7.906-7.271A2.375,2.375,0,0,0,274.2,337.859Z" transform="translate(-194.4 -230.85)" fill="#fff"/><path d="M257.6,303.242v-2.349a2.375,2.375,0,1,0-4.751,0v2.349a2.375,2.375,0,1,0,4.751,0Z" transform="translate(-188.991 -203.97)" fill="#fff"/><path d="M305.983,298.518a2.375,2.375,0,0,0-2.375,2.375v2.349a2.375,2.375,0,1,0,4.751,0v-2.349A2.375,2.375,0,0,0,305.983,298.518Z" transform="translate(-223.673 -203.97)" fill="#fff"/><path d="M153.919,11.818l3.708-3.708V24.254a2.375,2.375,0,1,0,4.751,0V8.11l3.708,3.708a2.375,2.375,0,0,0,3.359-3.359L161.682.7a2.375,2.375,0,0,0-3.359,0L150.56,8.459a2.375,2.375,0,0,0,3.359,3.36Z" transform="translate(-118.624 0)" fill="#fff"/><path d="M361.63,11.818l3.707-3.708V24.253a2.375,2.375,0,1,0,4.751,0V8.11l3.708,3.708a2.376,2.376,0,0,0,3.36-3.359L369.392.7a2.376,2.376,0,0,0-3.36,0L358.27,8.458a2.376,2.376,0,0,0,3.36,3.36Z" transform="translate(-260.547 0)" fill="#fff"/></g></g></svg>