<svg xmlns="http://www.w3.org/2000/svg" width="146.751" height="155.481" viewBox="0 0 146.751 155.481"><g transform="translate(-14.375)"><g transform="translate(14.375 0)"><path d="M161.125,25.334A50.459,50.459,0,0,0,158.149,8.21a3.816,3.816,0,0,0-4.73-2.337c-2.727.89-6.158-.716-9.79-2.417C140.17,1.836,136.249,0,132.121,0s-8.049,1.836-11.509,3.456c-3.631,1.7-7.061,3.306-9.79,2.417a3.816,3.816,0,0,0-4.73,2.338,50.459,50.459,0,0,0-2.976,17.124c0,.858.029,1.707.072,2.55a63.3,63.3,0,0,0-82.925,81.325l-4.583,4.583a4.473,4.473,0,0,0,0,6.317l34.063,34.062a4.467,4.467,0,0,0,6.318,0l6.565-6.565a63.362,63.362,0,0,0,33.507,0l6.565,6.564a4.467,4.467,0,0,0,6.318,0l13.045-13.045a2.278,2.278,0,1,0-3.221-3.221l-12.982,12.982L93.977,139.01l33.939-33.938,11.879,11.879-13.441,13.44a2.278,2.278,0,1,0,3.221,3.221l13.5-13.5a4.467,4.467,0,0,0,0-6.318l-4.583-4.583a63.232,63.232,0,0,0,.3-44.531c14.45-9.209,22.332-23,22.332-39.344ZM52.9,150.889,18.964,116.951l11.879-11.879L64.782,139.01ZM76.374,62.182h4.5l4.243,4.243a4.282,4.282,0,0,1-.142,6.191,4.435,4.435,0,0,1-6.059-.282L63.856,57.28a4.287,4.287,0,0,1,0-6.055,4.243,4.243,0,0,1,2.217-1.17c-.006.107-.016.213-.016.322v1.49A10.329,10.329,0,0,0,76.374,62.182ZM70.612,51.865v-1.49a1.313,1.313,0,0,1,1.311-1.311H83.635A4.283,4.283,0,0,1,87.3,51.137l-6.491,6.491H76.374A5.77,5.77,0,0,1,70.612,51.865ZM77.555,77.42a4.282,4.282,0,0,1-.048,6.1,4.3,4.3,0,0,1-6.007-.047L54.58,66.556h0A4.282,4.282,0,0,1,60.635,60.5Zm-12.3,6.248a4.282,4.282,0,0,1-.048,6.1,4.3,4.3,0,0,1-6.007-.047L48.143,78.671,45.3,75.832a4.282,4.282,0,0,1,6.055-6.056h0ZM44.919,81.889l7.4,7.4a4.281,4.281,0,0,1-.049,6.1,4.3,4.3,0,0,1-6.007-.047l-7.4-7.4a4.282,4.282,0,0,1,6.052-6.058Zm4.374,19.249a8.808,8.808,0,0,0,8.591-6.751,8.886,8.886,0,0,0,10.488-1.346,8.765,8.765,0,0,0,2.506-4.553,8.909,8.909,0,0,0,3.65.781,8.829,8.829,0,0,0,8.549-11.06,8.664,8.664,0,0,0,4.969-2.232A8.836,8.836,0,0,0,88.333,63.2L85,59.876l7.27-7.27a4.282,4.282,0,0,1,6.061,6.049l-.006.006a2.278,2.278,0,0,0,3.221,3.221,4.282,4.282,0,0,1,6.06,6.049l-.005.006h0a2.277,2.277,0,1,0,3.221,3.221,4.282,4.282,0,1,1,6.055,6.055,2.277,2.277,0,1,0,3.221,3.221,4.282,4.282,0,0,1,6.159.107,4.406,4.406,0,0,1-.225,6.07L109.7,102.952a2.278,2.278,0,0,0,3.221,3.221l3.986-3.985,3.728,3.728-24.17,24.17L83.388,117.014a15.878,15.878,0,0,1,5.836-.889l4.334.16a20.411,20.411,0,0,0,10.907-2.685,2.278,2.278,0,0,0-2.26-3.955,15.892,15.892,0,0,1-8.479,2.088l-4.334-.16a20.515,20.515,0,0,0-15.225,5.979l-12.2,12.2-23.42-23.42L44.9,99.979a8.874,8.874,0,0,0,4.392,1.159Zm30.086,44.17a58.653,58.653,0,0,1-12.994-1.459l1.68-1.68a4.467,4.467,0,0,0,0-6.318l-2.877-2.877,12.2-12.2a15.765,15.765,0,0,1,1.783-1.532l14.066,14.066-2.545,2.545a4.473,4.473,0,0,0,0,6.317l1.68,1.68a58.639,58.639,0,0,1-12.994,1.46ZM138.14,86.547a58.5,58.5,0,0,1-3.194,19.114l-3.872-3.872a4.467,4.467,0,0,0-6.318,0l-.906.906-3.728-3.728,9.135-9.135a9,9,0,0,0,.33-12.4,8.77,8.77,0,0,0-6.309-2.8q-.3-.005-.6.01a8.83,8.83,0,0,0-8.821-9.288q-.229,0-.455.012a8.825,8.825,0,0,0-9.276-9.272,8.832,8.832,0,0,0-13.4-8.01,8.834,8.834,0,0,0-7.086-3.569H71.924a5.829,5.829,0,0,0-3.376,1.077A8.815,8.815,0,0,0,58.064,54.7c-.151-.008-.3-.012-.456-.012a8.837,8.837,0,0,0-8.837,8.837c0,.152,0,.3.012.456a8.84,8.84,0,0,0-8.591,12.268,8.832,8.832,0,0,0-4.546,14.916l5.813,5.813-6.132,6.132L34,101.789a4.467,4.467,0,0,0-6.317,0l-3.872,3.872a58.747,58.747,0,0,1,79.928-72.577c2.389,14.63,11.635,26.68,26.642,34.43a3.793,3.793,0,0,0,3.477,0c.317-.164.626-.334.938-.5a58.514,58.514,0,0,1,3.342,19.533Zm-6.019-23.263a47.686,47.686,0,0,1-17.63-15.155,39.683,39.683,0,0,1-6.82-22.8,45.918,45.918,0,0,1,2.476-14.922c4.192,1.011,8.36-.94,12.4-2.831,3.177-1.488,6.462-3.026,9.577-3.026s6.4,1.538,9.577,3.026c4.037,1.891,8.205,3.842,12.4,2.831a45.925,45.925,0,0,1,2.476,14.922,39.683,39.683,0,0,1-6.82,22.8A47.686,47.686,0,0,1,132.121,63.284Z" transform="translate(-14.375 0)" fill="#fff"/><path d="M376.484,57.631a2.278,2.278,0,0,0,1.493-2.854,18.037,18.037,0,1,0-.5,12.165,2.278,2.278,0,0,0-4.221-1.712,13.472,13.472,0,1,1,.373-9.092A2.278,2.278,0,0,0,376.484,57.631Z" transform="translate(-243.02 -29.341)" fill="#fff"/><path d="M385.481,81.748l-7.033,7.033-4.9-4.9a2.278,2.278,0,1,0-3.221,3.221l6.514,6.513a2.278,2.278,0,0,0,3.221,0l8.644-8.644a2.278,2.278,0,0,0-3.221-3.221Z" transform="translate(-261.766 -56.459)" fill="#fff"/></g></g></svg>