<svg xmlns="http://www.w3.org/2000/svg" width="134.567" height="164.605" viewBox="0 0 134.567 164.605"><g transform="translate(-46.717)"><g transform="translate(46.717 0)"><path d="M305.517,117.626a4.3,4.3,0,0,0,1.094,4.431l4.9,4.775-1.156,6.742a4.317,4.317,0,0,0,6.272,4.557l6.055-3.183,6.055,3.183a4.322,4.322,0,0,0,6.272-4.556l-1.156-6.742,4.9-4.775a4.323,4.323,0,0,0-2.4-7.373l-6.77-.984-3.028-6.134a4.322,4.322,0,0,0-7.752,0l-3.027,6.134-6.769.984A4.3,4.3,0,0,0,305.517,117.626Zm11.212.809a4.322,4.322,0,0,0,3.255-2.365l2.7-5.462,2.7,5.462a4.322,4.322,0,0,0,3.254,2.364l6.027.876-4.361,4.251a4.322,4.322,0,0,0-1.244,3.826l1.03,6-5.391-2.834a4.323,4.323,0,0,0-4.023,0l-5.391,2.834,1.029-6a4.32,4.32,0,0,0-1.243-3.826l-4.361-4.251Z" transform="translate(-222.168 -71.35)" fill="#fff"/><path d="M254.314,17.069l-.814,4.744a3.84,3.84,0,0,0,5.579,4.053l4.26-2.24,4.26,2.24a3.845,3.845,0,0,0,5.579-4.053l-.814-4.744,3.447-3.36a3.845,3.845,0,0,0-2.131-6.558l-4.764-.692-2.13-4.316a3.845,3.845,0,0,0-6.9,0l-2.13,4.317L253,7.152a3.844,3.844,0,0,0-2.131,6.558Zm8.148-12.792,0,0Zm-3.5,6.881a3.845,3.845,0,0,0,2.894-2.1l1.481-3,1.481,3a3.845,3.845,0,0,0,2.895,2.1l3.311.481-2.4,2.336a3.845,3.845,0,0,0-1.106,3.4l.566,3.3-2.962-1.557a3.844,3.844,0,0,0-3.578,0l-2.962,1.557.565-3.3a3.843,3.843,0,0,0-1.106-3.4l-2.4-2.336Z" transform="translate(-184.445 0)" fill="#fff"/><path d="M260.665,287.135l-12.142,12.142-8.729-8.729a2.411,2.411,0,1,0-3.41,3.41l10.434,10.434a2.411,2.411,0,0,0,3.41,0l13.847-13.847a2.411,2.411,0,1,0-3.41-3.41Z" transform="translate(-174.928 -194.344)" fill="#fff"/><path d="M178.482,278.061c-.1-.1-.2-.19-.3-.283a9.577,9.577,0,0,0-15.012-7.92,9.584,9.584,0,0,0-11.948,1.291L130.877,291.5a4.734,4.734,0,0,1-2.093,1.219H107.261a2.422,2.422,0,0,1,.4-.548,2.394,2.394,0,0,1,1.717-.718h13.656a9.585,9.585,0,0,0,9.69-10.822,27.664,27.664,0,0,0,15.98-18.258,2.411,2.411,0,1,0-4.656-1.256,22.839,22.839,0,0,1-13.131,15.047,9.757,9.757,0,0,0-.807-.953,9.5,9.5,0,0,0-6.888-2.921H106.96a22.819,22.819,0,1,1,37.489-21.355,2.411,2.411,0,0,0,4.74-.886,27.645,27.645,0,1,0-48.845,22.24H79.477v-3.95a4.5,4.5,0,0,0-4.49-4.49H51.207a4.5,4.5,0,0,0-4.49,4.49V314.35a4.5,4.5,0,0,0,4.49,4.49H74.988a4.5,4.5,0,0,0,4.49-4.49v-1.368l6.185,2.472a48.951,48.951,0,0,0,18.246,3.511H144.2a16.624,16.624,0,0,0,11.833-4.9l7.841-7.841a2.411,2.411,0,1,0-3.41-3.41l-7.841,7.841a11.833,11.833,0,0,1-8.423,3.489H103.909a44.145,44.145,0,0,1-16.457-3.167l-7.975-3.187V277.107h43.749a4.759,4.759,0,0,1,4.757,4.925,4.9,4.9,0,0,1-4.945,4.594H109.383a7.234,7.234,0,0,0-7.233,7.336l.05,3.532a7.263,7.263,0,0,0,7.233,7.132h31.786a9.519,9.519,0,0,0,6.775-2.807l20.347-20.347a4.759,4.759,0,0,1,6.731,6.731l-6.655,6.655a2.411,2.411,0,1,0,3.41,3.41l6.655-6.655a9.594,9.594,0,0,0,0-13.551ZM74.655,314.017H51.539v-45.35H74.655Zm93.953-41.028a4.761,4.761,0,0,1,4.088,2.322,9.567,9.567,0,0,0-7.766,2.749l-20.347,20.347a4.728,4.728,0,0,1-3.365,1.394H109.433a2.42,2.42,0,0,1-2.4-2.266h31.092a9.521,9.521,0,0,0,6.775-2.806l20.347-20.347A4.728,4.728,0,0,1,168.608,272.989Zm-13.975,1.57a4.763,4.763,0,0,1,4.79-1.176L141.486,291.32a4.73,4.73,0,0,1-3.366,1.394h-1.642Z" transform="translate(-46.717 -154.36)" fill="#fff"/><path d="M53.116,80.32H58.8a25.921,25.921,0,0,0,1.256,3.024l-4.021,4.021a4.177,4.177,0,0,0,0,5.907l5.972,5.972a4.182,4.182,0,0,0,5.907,0l4.022-4.021a25.922,25.922,0,0,0,3.024,1.256v5.683a4.182,4.182,0,0,0,4.177,4.177h8.446a4.182,4.182,0,0,0,4.177-4.177V96.48a25.866,25.866,0,0,0,3.024-1.256l4.022,4.021a4.182,4.182,0,0,0,5.907,0l5.972-5.972a4.176,4.176,0,0,0,0-5.907l-4.021-4.021a25.922,25.922,0,0,0,1.256-3.024H113.6a4.182,4.182,0,0,0,4.177-4.177V67.7A4.182,4.182,0,0,0,113.6,63.52H107.92a25.908,25.908,0,0,0-1.256-3.024l4.021-4.021a4.182,4.182,0,0,0,0-5.907L104.712,44.6a4.182,4.182,0,0,0-5.907,0l-4.022,4.021a25.931,25.931,0,0,0-3.024-1.256V41.677A4.182,4.182,0,0,0,87.583,37.5H79.137a4.182,4.182,0,0,0-4.177,4.177V47.36a25.931,25.931,0,0,0-3.024,1.256L67.914,44.6a4.182,4.182,0,0,0-5.907,0l-5.972,5.972a4.182,4.182,0,0,0,0,5.907L60.056,60.5A25.9,25.9,0,0,0,58.8,63.52H53.116A4.182,4.182,0,0,0,48.939,67.7v8.446a4.182,4.182,0,0,0,4.177,4.177Zm.646-11.978h5.505a4.177,4.177,0,0,0,3.978-2.91,21,21,0,0,1,1.3-3.138,4.176,4.176,0,0,0-.752-4.877l-3.9-3.9,5.059-5.059,3.9,3.9a4.176,4.176,0,0,0,4.877.752,21.025,21.025,0,0,1,3.138-1.3,4.176,4.176,0,0,0,2.91-3.978v-5.5h7.155v5.505a4.176,4.176,0,0,0,2.91,3.978,21.066,21.066,0,0,1,3.138,1.3,4.175,4.175,0,0,0,4.877-.752l3.9-3.9,5.059,5.059-3.9,3.9a4.176,4.176,0,0,0-.752,4.878,21.053,21.053,0,0,1,1.3,3.138,4.176,4.176,0,0,0,3.978,2.91h5.505V75.5h-5.506a4.177,4.177,0,0,0-3.979,2.91,21.059,21.059,0,0,1-1.3,3.138,4.176,4.176,0,0,0,.752,4.877l3.9,3.9-5.059,5.059-3.9-3.9a4.176,4.176,0,0,0-4.878-.753,21.028,21.028,0,0,1-3.138,1.3,4.176,4.176,0,0,0-2.91,3.978v5.506H79.782V96.012a4.177,4.177,0,0,0-2.91-3.978,21.023,21.023,0,0,1-3.138-1.3,4.175,4.175,0,0,0-4.878.752l-3.9,3.9L59.9,90.319l3.9-3.9a4.176,4.176,0,0,0,.752-4.877,21.028,21.028,0,0,1-1.3-3.138,4.176,4.176,0,0,0-3.978-2.91H53.762Z" transform="translate(-48.225 -25.444)" fill="#fff"/><path d="M121.6,126.462a16.313,16.313,0,0,0,14.911-9.718,2.411,2.411,0,0,0-4.411-1.95,11.477,11.477,0,1,1-.015-9.3,2.411,2.411,0,1,0,4.4-1.963,16.3,16.3,0,1,0-14.89,22.927Z" transform="translate(-86.469 -63.687)" fill="#fff"/><path d="M133.913,129.575a7.1,7.1,0,1,0,7.1-7.1A7.109,7.109,0,0,0,133.913,129.575Zm9.38,0a2.279,2.279,0,1,1-2.279-2.279A2.281,2.281,0,0,1,143.293,129.575Z" transform="translate(-105.88 -83.099)" fill="#fff"/></g></g></svg>