<svg xmlns="http://www.w3.org/2000/svg" width="129.404" height="144.366" viewBox="0 0 129.404 144.366"><g transform="translate(0)"><path d="M137.514,72.536A64.339,64.339,0,0,0,92.852,53.065a3.652,3.652,0,0,0-3.743,3.649V66.789a3.628,3.628,0,0,0,3.539,3.644,47.345,47.345,0,1,1-31.461,83.917,2.115,2.115,0,1,0-2.686,3.268,51.668,51.668,0,0,0,30.607,11.668V178.2a60.477,60.477,0,0,1-58.331-58.327h8.914A51.049,51.049,0,0,0,51.239,150.33a2.115,2.115,0,0,0,3.278-2.673A46.871,46.871,0,0,1,43.9,119.18a3.629,3.629,0,0,0-3.644-3.539H30.182a3.652,3.652,0,0,0-3.649,3.743,64.712,64.712,0,0,0,64.691,63.084h0a64.712,64.712,0,0,0,46.29-109.931ZM128.2,81.8A51.281,51.281,0,0,0,93.339,66.225V57.311a60.477,60.477,0,0,1,58.327,58.331h-8.913A51.27,51.27,0,0,0,128.2,81.8Zm5.831,78.761A60.059,60.059,0,0,1,93.339,178.2v-8.914a51.6,51.6,0,0,0,49.414-49.414h8.914A60.058,60.058,0,0,1,134.03,160.562Z" transform="translate(-26.532 -38.101)" fill="#fff"/><path d="M62.442,79.164V84.1a3.968,3.968,0,0,0,3.964,3.964h6.246a26.7,26.7,0,0,0,1.52,3.658l-4.42,4.42a3.968,3.968,0,0,0,0,5.605L76,108a3.968,3.968,0,0,0,5.605,0l4.42-4.42a26.683,26.683,0,0,0,3.658,1.52v6.246a3.968,3.968,0,0,0,3.964,3.964h8.844a3.968,3.968,0,0,0,3.964-3.964V105.1a26.647,26.647,0,0,0,3.658-1.52l4.42,4.42a3.963,3.963,0,0,0,5.605,0l6.253-6.253a3.963,3.963,0,0,0,0-5.605l-4.419-4.419a26.688,26.688,0,0,0,1.52-3.658h6.246A3.968,3.968,0,0,0,133.7,84.1V75.252a3.968,3.968,0,0,0-3.964-3.964h-6.245a26.673,26.673,0,0,0-1.52-3.658l4.419-4.419a3.963,3.963,0,0,0,0-5.605l-6.253-6.253a3.968,3.968,0,0,0-5.605,0l-4.42,4.419a26.714,26.714,0,0,0-3.658-1.52V48.007a3.968,3.968,0,0,0-3.964-3.964H96.672A30.6,30.6,0,0,0,74.224,19.4V13.823h2.594a3.652,3.652,0,0,0,3.648-3.648V3.648A3.651,3.651,0,0,0,76.818,0H56.291a3.652,3.652,0,0,0-3.648,3.648v6.527a3.652,3.652,0,0,0,3.648,3.648h2.594V19.4a30.31,30.31,0,0,0-6.833,2.7l-3.024-3.024a4.94,4.94,0,0,0-6.978,0l-3.869,3.869a4.94,4.94,0,0,0,0,6.978l2.64,2.64a30.5,30.5,0,0,0,21.621,46.61ZM97.066,48.931c0-.22,0-.439-.008-.658h5.171v6.174a3.964,3.964,0,0,0,2.763,3.776,22.468,22.468,0,0,1,3.347,1.39,3.964,3.964,0,0,0,4.63-.713l4.369-4.369,5.877,5.878-4.369,4.369a3.963,3.963,0,0,0-.713,4.63,22.456,22.456,0,0,1,1.391,3.347,3.963,3.963,0,0,0,3.776,2.763h6.174V83.83H123.3a3.964,3.964,0,0,0-3.776,2.763,22.434,22.434,0,0,1-1.391,3.347,3.964,3.964,0,0,0,.713,4.63l4.369,4.369-5.877,5.878-4.369-4.369a3.963,3.963,0,0,0-4.63-.713,22.442,22.442,0,0,1-3.347,1.391,3.964,3.964,0,0,0-2.763,3.776v6.175H93.917V104.9a3.964,3.964,0,0,0-2.763-3.776,22.467,22.467,0,0,1-3.347-1.391,3.963,3.963,0,0,0-4.63.713l-4.369,4.369L72.93,98.939,77.3,94.57a3.964,3.964,0,0,0,.713-4.63,22.458,22.458,0,0,1-1.391-3.347,3.964,3.964,0,0,0-3.776-2.763H66.672V79.441a30.32,30.32,0,0,0,14.473-3.719A17.385,17.385,0,0,0,114.3,85.913a2.115,2.115,0,0,0-3.948-1.519,13.156,13.156,0,1,1,.321-8.5,2.115,2.115,0,0,0,4.052-1.214A17.394,17.394,0,0,0,93.7,62.843a30.327,30.327,0,0,0,3.361-13.912Zm-4.229,0A26.282,26.282,0,1,1,66.554,22.649,26.311,26.311,0,0,1,92.836,48.931ZM56.872,4.229H76.236V9.593H56.872Zm6.242,9.593h6.881v4.79a30.56,30.56,0,0,0-6.881,0Zm-21.942,13.1a.706.706,0,0,1,0-1l3.869-3.869a.706.706,0,0,1,1,0L48.4,24.423a30.766,30.766,0,0,0-5.033,4.7Z" transform="translate(-33.361 0)" fill="#fff"/><path d="M233.152,250.7a8.986,8.986,0,1,0,8.986,8.986A9,9,0,0,0,233.152,250.7Zm0,13.742a4.756,4.756,0,1,1,4.756-4.756A4.762,4.762,0,0,1,233.152,264.44Z" transform="translate(-168.44 -180.01)" fill="#fff"/><path d="M62.965,115.167a22.92,22.92,0,0,0,45.331,4.8,2.115,2.115,0,0,0-4.136-.886,18.7,18.7,0,1,1-.254-8.866,2.115,2.115,0,1,0,4.078-1.121,22.918,22.918,0,0,0-45.019,6.069Z" transform="translate(-52.692 -66.236)" fill="#fff"/><path d="M129.512,115.179a2.115,2.115,0,0,0-2.115,2.115v8.957a5.788,5.788,0,1,0,4.229,0v-8.957A2.115,2.115,0,0,0,129.512,115.179Zm0,18.013a1.559,1.559,0,1,1,1.559-1.559A1.561,1.561,0,0,1,129.512,133.192Z" transform="translate(-96.319 -82.702)" fill="#fff"/></g></svg>