<svg xmlns="http://www.w3.org/2000/svg" xmlns:xlink="http://www.w3.org/1999/xlink" width="148.884" height="149.815" viewBox="0 0 148.884 149.815"><defs><clipPath id="a"><rect width="148.884" height="149.815" fill="#fff"/></clipPath></defs><g clip-path="url(#a)"><path d="M0,149.815,10.3,111.6C-18.542,59.79,19.877-3.03,79.376.113c36.374,1.922,67.409,32.633,69.387,69.075,3.207,59.07-57.744,97.595-109.9,70.352Zm17.774-17.777,23.206-5.921c33.525,21.314,78.777,6.228,91.871-31.338,16.217-46.525-25.419-92.111-73.175-80.348-41.618,10.251-60,59.67-35.8,94.99Z" transform="translate(0 0)" fill="#fff"/><path d="M128.448,128.033a28.2,28.2,0,0,1,6.647.064,4.248,4.248,0,0,1,1.542,1.265c1.311,1.651,5.963,13.13,6.79,15.663.655,2.005.394,2.483-.608,4.24-1.114,1.953-4.339,4.89-5.009,6.529-.749,1.83,1.562,4.7,2.628,6.255a50.288,50.288,0,0,0,21.348,17.633c1.63.694,3.556,1.947,5.114.524l6.823-8.457c1.427-1.146,3.457-.138,4.913.439,4.893,1.94,9.449,4.805,14.248,6.958,1.166.931.926,3.322.785,4.753-1.236,12.537-15.425,15.576-25.772,12.75-15.918-4.347-28.583-14.422-38.555-27.246-6.707-8.626-13.3-18.741-10.013-30.219,1-3.492,5.3-10.5,9.12-11.15" transform="translate(-81.442 -87.915)" fill="#fff"/></g></svg>