<svg xmlns="http://www.w3.org/2000/svg" xmlns:xlink="http://www.w3.org/1999/xlink" width="170.452" height="169.181" viewBox="0 0 170.452 169.181"><defs><clipPath id="a"><rect width="170.452" height="169.181" fill="#fff"/></clipPath></defs><g transform="translate(0 0)"><g transform="translate(0 0)" clip-path="url(#a)"><path d="M98.718,135.1H11.559A11.569,11.569,0,0,1,0,123.544V11.558A11.57,11.57,0,0,1,11.559,0H123.544A11.57,11.57,0,0,1,135.1,11.558v96.634a2.812,2.812,0,0,1-5.623,0V11.558a5.938,5.938,0,0,0-5.932-5.935H11.559a5.938,5.938,0,0,0-5.932,5.935V123.544a5.937,5.937,0,0,0,5.932,5.93H98.718a2.812,2.812,0,1,1,0,5.623" transform="translate(0.005 0)" fill="#fff"/><path d="M44.428,76.1a6.866,6.866,0,0,1-6.692-5.424L33.629,51.48A6.855,6.855,0,0,1,38.9,43.344L51.235,40.7a6.852,6.852,0,0,1,8.137,5.266L63.48,65.164A6.862,6.862,0,0,1,58.216,73.3h0L45.876,75.941a6.872,6.872,0,0,1-1.448.155m13.2-5.544h0ZM52.672,46.172a1.257,1.257,0,0,0-.261.028L40.073,48.84a1.238,1.238,0,0,0-.945,1.465L43.239,69.5a1.233,1.233,0,0,0,1.459.947L57.035,67.8a1.235,1.235,0,0,0,.948-1.459l-4.111-19.2a1.229,1.229,0,0,0-.534-.776,1.264,1.264,0,0,0-.666-.2" transform="translate(60.643 73.452)" fill="#fff"/><path d="M43.349,59.545a2.812,2.812,0,0,1-1.591-5.131L70.441,34.761a2.812,2.812,0,0,1,3.18,4.639L44.934,59.053a2.8,2.8,0,0,1-1.586.492" transform="translate(73.43 62.084)" fill="#fff"/><path d="M79.221,60.8a2.844,2.844,0,0,1-.506-.045L44.492,54.542a2.812,2.812,0,0,1,1-5.533l34.225,6.216a2.812,2.812,0,0,1-.5,5.578" transform="translate(76.417 88.706)" fill="#fff"/><path d="M46.076,78.232a8.025,8.025,0,0,1-7.991-7.279l-1.4-15a2.812,2.812,0,0,1,2.21-3.011l12.5-2.677a2.812,2.812,0,0,1,3.4,2.865l-.711,17.4a8.012,8.012,0,0,1-6.337,7.515,7.86,7.86,0,0,1-1.676.18M42.519,57.921,43.683,70.43a2.38,2.38,0,0,0,.97,1.712,2.355,2.355,0,0,0,1.923.413,2.4,2.4,0,0,0,1.9-2.249l.562-13.78Z" transform="translate(66.441 90.949)" fill="#fff"/><path d="M70.073,98.912A8.766,8.766,0,0,1,61.52,92L50.779,41.82a8.745,8.745,0,0,1,17.1-3.658l10.74,50.178A8.754,8.754,0,0,1,71.9,98.718h0a8.65,8.65,0,0,1-1.828.194m1.24-2.941h0Zm-11.975-59.1a3.294,3.294,0,0,0-.661.067,3.121,3.121,0,0,0-2.4,3.706l10.74,50.175a3.121,3.121,0,1,0,6.1-1.3L62.383,39.338a3.119,3.119,0,0,0-3.045-2.466" transform="translate(91.635 56.602)" fill="#fff"/><path d="M132.285,14.253H2.812a2.812,2.812,0,0,1,0-5.623H132.285a2.812,2.812,0,0,1,0,5.623" transform="translate(0 15.634)" fill="#fff"/><path d="M48.228,9.915H40.651a2.812,2.812,0,1,1,0-5.623h7.577a2.812,2.812,0,1,1,0,5.623" transform="translate(68.548 7.776)" fill="#fff"/><path d="M41.875,9.915H34.3a2.812,2.812,0,0,1,0-5.623h7.577a2.812,2.812,0,1,1,0,5.623" transform="translate(57.039 7.776)" fill="#fff"/><path d="M99.606,41.166H18.261a14.1,14.1,0,1,1,0-28.2H99.606a14.1,14.1,0,0,1,0,28.2M18.261,18.592a8.476,8.476,0,1,0,0,16.951H99.606a8.476,8.476,0,0,0,0-16.951Z" transform="translate(7.538 23.495)" fill="#fff"/><path d="M67.2,79.029H11.749a7.6,7.6,0,0,1-7.588-7.588V32.658a7.6,7.6,0,0,1,7.588-7.586H67.2a7.6,7.6,0,0,1,7.586,7.586V71.441A7.6,7.6,0,0,1,67.2,79.029M11.749,30.7a1.967,1.967,0,0,0-1.965,1.962V71.441a1.967,1.967,0,0,0,1.965,1.965H67.2a1.967,1.967,0,0,0,1.962-1.965V32.658A1.966,1.966,0,0,0,67.2,30.7Z" transform="translate(7.538 45.42)" fill="#fff"/><path d="M52.074,34.71h-40.8a2.812,2.812,0,0,1,0-5.623h40.8a2.812,2.812,0,0,1,0,5.623" transform="translate(15.337 52.694)" fill="#fff"/><path d="M52.074,43.872h-40.8a2.812,2.812,0,0,1,0-5.623h40.8a2.812,2.812,0,0,1,0,5.623" transform="translate(15.337 69.291)" fill="#fff"/><path d="M52.074,39.291h-40.8a2.812,2.812,0,0,1,0-5.623h40.8a2.812,2.812,0,0,1,0,5.623" transform="translate(15.337 60.993)" fill="#fff"/></g></g></svg>