<svg xmlns="http://www.w3.org/2000/svg" xmlns:xlink="http://www.w3.org/1999/xlink" width="146.641" height="160.86" viewBox="0 0 146.641 160.86"><defs><clipPath id="a"><rect width="146.641" height="160.86" fill="#fff"/></clipPath></defs><g transform="translate(0 0)"><g transform="translate(0 0)" clip-path="url(#a)"><path d="M66.253,105.58H33.589A33.426,33.426,0,0,1,6.962,92.488,32.948,32.948,0,0,1,1.089,63.832C7.139,40.809,18.97,23.1,33.55,15.24a2.64,2.64,0,0,1,2.507,4.646C22.756,27.053,11.872,43.561,6.192,65.17a27.7,27.7,0,0,0,4.947,24.092A28.179,28.179,0,0,0,33.589,100.3H66.253a11.706,11.706,0,0,0,1.256-.04,2.64,2.64,0,0,1,.551,5.25,18.013,18.013,0,0,1-1.807.066" transform="translate(0.001 24.451)" fill="#fff"/><path d="M57.692,67.72A2.636,2.636,0,0,1,55.1,65.541c-.029-.153-.074-.293-.113-.441-5.934-21.688-16.862-38.107-30.02-45.215a2.639,2.639,0,1,1,2.509-4.644c14.633,7.9,26.194,25.057,32.556,48.3a10.689,10.689,0,0,1,.261,1.082,2.635,2.635,0,0,1-2.137,3.058,2.751,2.751,0,0,1-.462.04" transform="translate(38.634 24.45)" fill="#fff"/><path d="M48.752,28.827H19.241a9.583,9.583,0,0,1,0-19.166H48.752a9.583,9.583,0,0,1,0,19.166M19.241,14.938a4.306,4.306,0,0,0,0,8.612H48.752a4.306,4.306,0,0,0,0-8.612Z" transform="translate(15.824 15.828)" fill="#fff"/><path d="M47.729,30.769A2.64,2.64,0,0,1,45.2,27.394L50.252,9.983a3.671,3.671,0,0,0-4.944-4.409,32.111,32.111,0,0,1-24.651,0A3.67,3.67,0,0,0,15.7,9.983l5.055,17.411a2.637,2.637,0,1,1-5.066,1.47L10.638,11.453A8.949,8.949,0,0,1,22.688.7a26.766,26.766,0,0,0,20.58,0,8.949,8.949,0,0,1,12.05,10.749L50.262,28.864a2.638,2.638,0,0,1-2.533,1.9" transform="translate(16.836 0)" fill="#fff"/><path d="M27.326,63.807c-.438,0-.876-.013-1.309-.042-7.06-.451-11.733-4.2-12.195-9.778a2.639,2.639,0,0,1,5.261-.433c.343,4.177,5.654,4.842,7.272,4.944,4.9.314,8.979-1.62,9.393-3.557.654-3.063,1.087-5.09-13.039-8.886-7.4-1.987-9.461-7.013-8.928-11.05.752-5.686,6.248-10.314,12.256-10.314,10.614,0,13.672,6.686,13.8,6.971a2.638,2.638,0,0,1-4.813,2.164c-.116-.232-2.053-3.857-8.986-3.857A7.264,7.264,0,0,0,19.015,35.7c-.433,3.277,2.984,4.7,5.066,5.264C37.194,44.486,42.737,47.5,40.906,56.044c-1.1,5.179-7.58,7.762-13.58,7.762" transform="translate(22.448 40.455)" fill="#fff"/><path d="M20.469,49.607a2.638,2.638,0,0,1-2.638-2.638V40.15a2.638,2.638,0,1,1,5.277,0v6.818a2.638,2.638,0,0,1-2.638,2.638" transform="translate(29.215 61.46)" fill="#fff"/><path d="M20.469,34.214a2.638,2.638,0,0,1-2.638-2.638V24.757a2.638,2.638,0,1,1,5.277,0v6.818a2.638,2.638,0,0,1-2.638,2.638" transform="translate(29.215 36.239)" fill="#fff"/><path d="M40.059,78.515a7.079,7.079,0,0,1-1.979-.285,6.97,6.97,0,0,1-4.192-3.369l-10.253-18.7a7.026,7.026,0,0,1,2.786-9.543l12.018-6.591a7.043,7.043,0,0,1,9.543,2.784l10.253,18.7a7.037,7.037,0,0,1-2.786,9.543L43.428,77.647a7,7,0,0,1-3.369.868M41.816,44.44a1.739,1.739,0,0,0-.842.216L28.954,51.247a1.751,1.751,0,0,0-.839,1.047,1.721,1.721,0,0,0,.148,1.33l10.253,18.7a1.752,1.752,0,0,0,2.377.694l12.023-6.591a1.757,1.757,0,0,0,.691-2.38L43.355,45.35a1.754,1.754,0,0,0-1.538-.91m12.366,24.3h0Z" transform="translate(37.3 64.17)" fill="#fff"/><path d="M32.749,63.142a2.639,2.639,0,0,1-2.05-4.3L54.437,29.457a2.639,2.639,0,1,1,4.105,3.317L34.8,62.161a2.634,2.634,0,0,1-2.055.982" transform="translate(49.338 46.658)" fill="#fff"/><path d="M37.135,55.491a2.639,2.639,0,0,1-.288-5.261L74.4,46.046a2.639,2.639,0,0,1,.583,5.245L37.428,55.476a2.724,2.724,0,0,1-.293.016" transform="translate(56.524 75.413)" fill="#fff"/><path d="M43.129,80.017a8.3,8.3,0,0,1-7.694-5.192L29.307,59.646a2.641,2.641,0,0,1,1.182-3.3L42.67,49.667a2.637,2.637,0,0,1,3.823,1.662l4.681,18.337a8.3,8.3,0,0,1-8.045,10.351M35.08,59.846l5.248,13a3.022,3.022,0,0,0,4.258,1.52,3.022,3.022,0,0,0,1.475-3.4L42.222,55.931Z" transform="translate(47.704 80.842)" fill="#fff"/><path d="M74.437,91.417a9.1,9.1,0,0,1-7.981-4.712L39.652,37.82a9.084,9.084,0,0,1,15.931-8.733l26.8,48.882a9.082,9.082,0,0,1-7.95,13.448M47.612,29.646a3.806,3.806,0,0,0-3.332,5.636l26.8,48.885a3.806,3.806,0,0,0,6.675-3.66l-26.8-48.882a3.815,3.815,0,0,0-3.346-1.979" transform="translate(63.139 39.933)" fill="#fff"/></g></g></svg>