<svg xmlns="http://www.w3.org/2000/svg" xmlns:xlink="http://www.w3.org/1999/xlink" width="180.469" height="183.874" viewBox="0 0 180.469 183.874"><defs><clipPath id="a"><rect width="180.469" height="183.874" fill="#fff"/></clipPath></defs><g transform="translate(0 0)"><g transform="translate(0 0)" clip-path="url(#a)"><path d="M72.255,134.611A62.293,62.293,0,1,1,130.5,94.6a3,3,0,0,1-5.829-.959v-.03a3,3,0,0,1,.2-1.076A56.347,56.347,0,1,0,77.117,128.41a3,3,0,0,1,.509,5.97q-2.693.234-5.371.231" transform="translate(20.043 20.023)" fill="#fff"/><path d="M57.211,97.031a39.722,39.722,0,0,1-28-67.828A39.4,39.4,0,0,1,57.268,17.554h.021A39.748,39.748,0,0,1,85.4,85.394c-.827.833-1.66,1.591-2.526,2.323a3,3,0,0,1-3.863-4.585c.737-.617,1.442-1.262,2.146-1.969A33.754,33.754,0,0,0,57.289,23.548h-.018a33.742,33.742,0,1,0,4.472,67.189,3,3,0,0,1,.782,5.943,40.773,40.773,0,0,1-5.314.351" transform="translate(35.057 35.056)" fill="#fff"/><path d="M43.455,62.437a18.976,18.976,0,1,1,13.42-5.556,18.857,18.857,0,0,1-13.42,5.556m0-31.96a12.99,12.99,0,1,0,9.18,3.8,12.887,12.887,0,0,0-9.18-3.8" transform="translate(48.9 48.893)" fill="#fff"/><path d="M78.451,81.447a2.989,2.989,0,0,1-2.119-.878L7.839,12.079A3,3,0,0,1,12.08,7.838L80.57,76.331a3,3,0,0,1-2.119,5.116" transform="translate(13.904 13.903)" fill="#fff"/><path d="M26.851,43.748a2.99,2.99,0,0,1-2.119-.878L7.841,25.978a2.99,2.99,0,0,1-.761-2.949L13.091,2.167a2.994,2.994,0,0,1,5-1.292L34.981,17.767a3,3,0,0,1,.761,2.949L29.731,41.578A3,3,0,0,1,27.6,43.655a3.205,3.205,0,0,1-.749.093M13.328,22.99,25.379,35.038l4.115-14.284L17.443,8.707Z" transform="translate(13.902 0.001)" fill="#fff"/><path d="M19.886,35.86a3.005,3.005,0,0,1-2.119-.878L.879,18.091a2.995,2.995,0,0,1,1.289-5L23.03,7.08a2.988,2.988,0,0,1,2.952.761L42.87,24.732a2.995,2.995,0,0,1-1.289,5L20.719,35.74a2.948,2.948,0,0,1-.833.12M8.71,17.444,20.758,29.495l14.281-4.118L22.994,13.329Z" transform="translate(-0.001 13.9)" fill="#fff"/><path d="M55.164,79.7H39.454a8.039,8.039,0,0,1-8.029-8.029V47.234A8.039,8.039,0,0,1,39.454,39.2h15.71a8.039,8.039,0,0,1,8.029,8.029v24.44A8.039,8.039,0,0,1,55.164,79.7M39.454,45.2a2.039,2.039,0,0,0-2.035,2.035v24.44a2.039,2.039,0,0,0,2.035,2.035h15.71A2.039,2.039,0,0,0,57.2,71.674V47.234A2.039,2.039,0,0,0,55.164,45.2Z" transform="translate(62.755 78.293)" fill="#fff"/><path d="M42.928,57.313a3,3,0,0,1-1.139-5.769l40.046-16.45a3,3,0,1,1,2.278,5.541L44.067,57.085a2.937,2.937,0,0,1-1.139.228" transform="translate(79.739 69.632)" fill="#fff"/><path d="M82.974,72.043a3.015,3.015,0,0,1-1.142-.225L41.786,55.329a3,3,0,1,1,2.284-5.544L84.116,66.274a3,3,0,0,1-1.142,5.769" transform="translate(79.739 98.975)" fill="#fff"/><path d="M41.837,82.591a9.486,9.486,0,0,1-9.42-10.6l2.209-18.629A3,3,0,0,1,37.6,50.718h15.92a3,3,0,0,1,2.9,3.743l-5.4,21.006a9.487,9.487,0,0,1-9.189,7.124m-1.57-25.879-1.9,15.983a3.495,3.495,0,0,0,3.468,3.9,3.483,3.483,0,0,0,3.381-2.622l4.439-17.263Z" transform="translate(64.604 101.284)" fill="#fff"/><path d="M63.67,116.494a10.4,10.4,0,0,1-10.382-10.385V42.223a10.383,10.383,0,1,1,20.766,0v63.887A10.4,10.4,0,0,1,63.67,116.494m0-78.662a4.392,4.392,0,0,0-4.388,4.391v63.887a4.389,4.389,0,1,0,8.778,0V42.223a4.395,4.395,0,0,0-4.391-4.391" transform="translate(106.415 63.581)" fill="#fff"/></g></g></svg>