<svg xmlns="http://www.w3.org/2000/svg" xmlns:xlink="http://www.w3.org/1999/xlink" width="141.129" height="153.894" viewBox="0 0 141.129 153.894"><defs><clipPath id="a"><rect width="141.129" height="153.894" fill="#fff"/></clipPath></defs><g transform="translate(-5 -6.651)"><g transform="translate(5 6.652)"><g transform="translate(0 0)" clip-path="url(#a)"><path d="M128.831,100.031H12.3A12.311,12.311,0,0,1,0,87.733V45.994A12.31,12.31,0,0,1,12.3,33.7H128.831a12.312,12.312,0,0,1,12.3,12.3V87.733a12.313,12.313,0,0,1-12.3,12.3M12.3,38.9a7.109,7.109,0,0,0-7.1,7.1V87.733a7.109,7.109,0,0,0,7.1,7.1H128.831a7.109,7.109,0,0,0,7.1-7.1V45.994a7.109,7.109,0,0,0-7.1-7.1Z" transform="translate(0 53.862)" fill="#fff"/><path d="M45.682,56.031a2.6,2.6,0,0,1-2.6-2.6V18.963a2.6,2.6,0,1,1,5.2,0V53.432a2.6,2.6,0,0,1-2.6,2.6" transform="translate(68.861 26.157)" fill="#fff"/><path d="M68.41,57.67h-49.1a2.6,2.6,0,1,1,0-5.2h49.1a2.6,2.6,0,0,1,0,5.2" transform="translate(26.706 83.869)" fill="#fff"/><path d="M35.8,44.011H27.077a2.6,2.6,0,0,1,0-5.2H35.8a2.6,2.6,0,0,1,0,5.2" transform="translate(39.125 62.037)" fill="#fff"/><path d="M35.8,48.095H27.077a2.6,2.6,0,1,1,0-5.2H35.8a2.6,2.6,0,1,1,0,5.2" transform="translate(39.125 68.565)" fill="#fff"/><path d="M35.8,52.163H27.077a2.6,2.6,0,1,1,0-5.2H35.8a2.6,2.6,0,1,1,0,5.2" transform="translate(39.125 75.067)" fill="#fff"/><path d="M15.764,44.019H7.036a2.6,2.6,0,0,1,0-5.2h8.728a2.6,2.6,0,0,1,0,5.2" transform="translate(7.093 62.05)" fill="#fff"/><path d="M15.764,48.1H7.036a2.6,2.6,0,1,1,0-5.2h8.728a2.6,2.6,0,0,1,0,5.2" transform="translate(7.093 68.578)" fill="#fff"/><path d="M15.764,52.171H7.036a2.6,2.6,0,1,1,0-5.2h8.728a2.6,2.6,0,0,1,0,5.2" transform="translate(7.093 75.08)" fill="#fff"/><path d="M19.126,57.67H10.4a2.6,2.6,0,1,1,0-5.2h8.73a2.6,2.6,0,1,1,0,5.2" transform="translate(12.462 83.869)" fill="#fff"/><path d="M51.051,57.67H42.32a2.6,2.6,0,0,1,0-5.2h8.73a2.6,2.6,0,1,1,0,5.2" transform="translate(63.487 83.869)" fill="#fff"/><path d="M25.808,44.019H17.08a2.6,2.6,0,0,1,0-5.2h8.728a2.6,2.6,0,0,1,0,5.2" transform="translate(23.146 62.05)" fill="#fff"/><path d="M25.808,48.1H17.08a2.6,2.6,0,0,1,0-5.2h8.728a2.6,2.6,0,1,1,0,5.2" transform="translate(23.146 68.578)" fill="#fff"/><path d="M25.808,52.171H17.08a2.6,2.6,0,0,1,0-5.2h8.728a2.6,2.6,0,1,1,0,5.2" transform="translate(23.146 75.08)" fill="#fff"/><path d="M45.8,44.019H37.074a2.6,2.6,0,0,1,0-5.2H45.8a2.6,2.6,0,0,1,0,5.2" transform="translate(55.103 62.05)" fill="#fff"/><path d="M45.8,48.1H37.074a2.6,2.6,0,1,1,0-5.2H45.8a2.6,2.6,0,0,1,0,5.2" transform="translate(55.103 68.578)" fill="#fff"/><path d="M45.8,52.171H37.074a2.6,2.6,0,0,1,0-5.2H45.8a2.6,2.6,0,0,1,0,5.2" transform="translate(55.103 75.08)" fill="#fff"/><path d="M55.846,44.019H47.118a2.6,2.6,0,0,1,0-5.2h8.728a2.6,2.6,0,0,1,0,5.2" transform="translate(71.156 62.05)" fill="#fff"/><path d="M55.846,48.1H47.118a2.6,2.6,0,1,1,0-5.2h8.728a2.6,2.6,0,0,1,0,5.2" transform="translate(71.156 68.578)" fill="#fff"/><path d="M55.846,52.171H47.118a2.6,2.6,0,0,1,0-5.2h8.728a2.6,2.6,0,0,1,0,5.2" transform="translate(71.156 75.08)" fill="#fff"/><path d="M74.264,27.033h-55.1a2.6,2.6,0,0,1-2.6-2.6V7.2a2.6,2.6,0,0,1,2.6-2.6h55.1a2.6,2.6,0,0,1,2.6,2.6V24.434a2.6,2.6,0,0,1-2.6,2.6m-52.5-5.2H71.668V9.8H21.763Z" transform="translate(26.477 7.352)" fill="#fff"/><path d="M41.787,21.561H19.163a2.6,2.6,0,0,1,0-5.2H41.787a2.6,2.6,0,0,1,0,5.2" transform="translate(26.476 26.156)" fill="#fff"/><path d="M41.787,27.146H19.163a2.6,2.6,0,0,1,0-5.2H41.787a2.6,2.6,0,0,1,0,5.2" transform="translate(26.476 35.082)" fill="#fff"/><path d="M41.787,32.732H19.163a2.6,2.6,0,0,1,0-5.2H41.787a2.6,2.6,0,0,1,0,5.2" transform="translate(26.476 44.01)" fill="#fff"/><path d="M54.285,21.561H31.664a2.6,2.6,0,1,1,0-5.2H54.285a2.6,2.6,0,1,1,0,5.2" transform="translate(46.456 26.156)" fill="#fff"/><path d="M54.285,27.146H31.664a2.6,2.6,0,1,1,0-5.2H54.285a2.6,2.6,0,1,1,0,5.2" transform="translate(46.456 35.082)" fill="#fff"/><path d="M54.285,32.732H31.664a2.6,2.6,0,1,1,0-5.2H54.285a2.6,2.6,0,1,1,0,5.2" transform="translate(46.456 44.01)" fill="#fff"/><path d="M66.56,47.715H45.68a2.6,2.6,0,0,1-2.6-2.6V13.036a13.038,13.038,0,0,1,26.076,0V45.117a2.6,2.6,0,0,1-2.6,2.6m-18.282-5.2H63.962V13.036a7.842,7.842,0,0,0-15.683,0Z" transform="translate(68.858 0.001)" fill="#fff"/><path d="M13.852,82.187a2.6,2.6,0,0,1-2.6-2.6V13.028A13.047,13.047,0,0,1,24.3.008L106.991,0a2.6,2.6,0,0,1,0,5.2L24.3,5.2a7.845,7.845,0,0,0-7.849,7.823v66.56a2.6,2.6,0,0,1-2.6,2.6" transform="translate(17.987 0.001)" fill="#fff"/></g></g></g></svg>