<svg xmlns="http://www.w3.org/2000/svg" xmlns:xlink="http://www.w3.org/1999/xlink" width="51.779" height="56.771" viewBox="0 0 51.779 56.771"><defs><clipPath id="a"><rect width="50.812" height="55.893" fill="#fff"/></clipPath></defs><g transform="matrix(1, -0.017, 0.017, 1, 0, 0.887)"><g clip-path="url(#a)"><path d="M48.746,12.566a7.655,7.655,0,0,0-5.556-2.4H37.852a12.7,12.7,0,0,0-24.893,0H7.621a7.624,7.624,0,0,0-7.607,8.1L1.623,43.983A12.724,12.724,0,0,0,14.3,55.893H36.51a12.723,12.723,0,0,0,12.678-11.91L50.8,18.262a7.642,7.642,0,0,0-2.05-5.7M25.405,5.081a7.611,7.611,0,0,1,7.154,5.081H18.251a7.611,7.611,0,0,1,7.154-5.081M44.117,43.665a7.633,7.633,0,0,1-7.607,7.147H14.3a7.633,7.633,0,0,1-7.607-7.147L5.086,17.944a2.539,2.539,0,0,1,2.536-2.7H43.189a2.539,2.539,0,0,1,2.536,2.7Zm-6.008-20.8a12.7,12.7,0,1,1-25.406,0,2.541,2.541,0,0,1,5.081,0,7.622,7.622,0,0,0,15.244,0,2.541,2.541,0,0,1,5.081,0" transform="translate(0)" fill="#fff"/></g></g></svg>