<svg xmlns="http://www.w3.org/2000/svg" xmlns:xlink="http://www.w3.org/1999/xlink" width="50" height="62" viewBox="0 0 50 62"><defs><clipPath id="a"><rect width="50" height="62" transform="translate(-0.062 -0.394)" fill="#fff"/></clipPath></defs><g transform="translate(-0.148 0.245)"><g transform="translate(0.21 0.149)" clip-path="url(#a)"><path d="M49.865,49.143l-6.26-14.1A22.371,22.371,0,1,0,2.8,22.378a22.244,22.244,0,0,0,3.95,12.669l-6.26,14.1a5.593,5.593,0,0,0,6.406,7.712l2.7-.638,1.332,2.428a5.564,5.564,0,0,0,4.9,2.906c.081,0,.159,0,.241-.006a5.558,5.558,0,0,0,4.878-3.32l4.238-9.536,4.238,9.533a5.556,5.556,0,0,0,4.878,3.323c.081,0,.159.006.241.006a5.567,5.567,0,0,0,4.9-2.9l1.332-2.431,2.694.638a5.595,5.595,0,0,0,6.409-7.715M25.176,5.595A16.784,16.784,0,1,1,8.392,22.378,16.8,16.8,0,0,1,25.176,5.595M15.827,55.957l-2.358-4.3a2.8,2.8,0,0,0-2.453-1.452,2.681,2.681,0,0,0-.643.078L5.6,51.417l5.265-11.855a22.288,22.288,0,0,0,10.118,4.786Zm24.152-5.67a2.778,2.778,0,0,0-3.1,1.373l-2.355,4.3L29.369,44.348a22.288,22.288,0,0,0,10.118-4.786l5.262,11.855ZM17.713,23.3a2.8,2.8,0,0,1,1.5-4.853l2.448-.33,1.055-1.961a2.909,2.909,0,0,1,4.929,0l1.055,1.961,2.448.33a2.8,2.8,0,0,1,1.5,4.853l-1.628,1.457.375,2a2.8,2.8,0,0,1-3.969,3.032l-2.241-1.083-2.241,1.083a2.8,2.8,0,0,1-3.969-3.032l.375-2Z" transform="translate(-0.238 -0.168)" fill="#fff"/></g></g></svg>