<svg xmlns="http://www.w3.org/2000/svg" xmlns:xlink="http://www.w3.org/1999/xlink" width="51" height="56" viewBox="0 0 51 56"><defs><clipPath id="a"><rect width="51" height="56" transform="translate(0 0)" fill="#fff"/></clipPath></defs><g transform="translate(0 0)" clip-path="url(#a)"><path d="M48.443.95A5.089,5.089,0,0,0,43.89.255L17.28,9.125H12.635A12.611,12.611,0,0,0,5.327,32.03L7.121,48.868a7.516,7.516,0,1,0,14.937-1.686l-.2-1.7h.887a10.107,10.107,0,0,0,9.287-6.168L43.89,43.266a5.007,5.007,0,0,0,1.595.26,5.049,5.049,0,0,0,5.057-5.054V5.052a5.069,5.069,0,0,0-2.1-4.1M12.635,14.179h2.527V29.342H12.635a7.581,7.581,0,0,1,0-15.162m3.8,35.528a2.423,2.423,0,0,1-1.842.829,2.456,2.456,0,0,1-2.449-2.2L10.641,34.194a12.341,12.341,0,0,0,1.994.2h2.813l1.595,13.386a2.421,2.421,0,0,1-.6,1.926m6.3-9.279H21.255l-.584-4.9L27.2,37.7a5.033,5.033,0,0,1-4.458,2.724m22.743-1.956h0l-25.27-8.423V13.474l25.27-8.423.008,33.423Z" transform="translate(0 -0.001)" fill="#fff"/></g></svg>