<svg xmlns="http://www.w3.org/2000/svg" xmlns:xlink="http://www.w3.org/1999/xlink" width="50" height="57" viewBox="0 0 50 57"><defs><clipPath id="a"><rect width="50" height="57" transform="translate(0 0.146)" fill="#fff"/></clipPath></defs><g transform="translate(0.425 -0.15)"><g transform="translate(-0.425 0.004)" clip-path="url(#a)"><path d="M43.657,0H38.2a5.461,5.461,0,0,0-5.457,5.457V32.743a8.188,8.188,0,0,1-9,8.148,8.509,8.509,0,0,1-7.375-8.614V5.457A5.463,5.463,0,0,0,10.914,0H5.457A5.461,5.461,0,0,0,0,5.457V32.743A24.524,24.524,0,0,0,24.6,57.3c.565,0,1.138-.022,1.705-.06C39.092,56.348,49.114,45.218,49.114,31.9V5.457A5.461,5.461,0,0,0,43.657,0M38.2,5.457h5.457v5.457H38.2Zm-32.743,0h5.457v5.457H5.457ZM25.921,51.794A19.073,19.073,0,0,1,5.457,32.743V16.371h5.457v15.9c0,7.22,5.411,13.392,12.317,14.044A13.642,13.642,0,0,0,38.2,32.743V16.371h5.457V31.9c0,10.461-7.787,19.2-17.736,19.891" transform="translate(0.443 -0.004)" fill="#fff"/></g></g></svg>