<svg xmlns="http://www.w3.org/2000/svg" xmlns:xlink="http://www.w3.org/1999/xlink" width="58" height="58" viewBox="0 0 58 58"><defs><clipPath id="a"><rect width="58" height="58" transform="translate(0 -0.319)" fill="#fff"/></clipPath></defs><g transform="translate(0 0.319)"><g clip-path="url(#a)"><path d="M44.419,0H13.064A13.079,13.079,0,0,0,0,13.064v20.9A13.079,13.079,0,0,0,13.064,47.032h4.492L16.25,52.258H13.064a2.613,2.613,0,1,0,0,5.226H44.419a2.613,2.613,0,1,0,0-5.226H41.234l-1.306-5.226h4.492A13.079,13.079,0,0,0,57.484,33.968v-20.9A13.079,13.079,0,0,0,44.419,0M35.846,52.258H21.637l1.306-5.226h11.6Zm16.412-18.29a7.848,7.848,0,0,1-7.839,7.839H13.064a7.848,7.848,0,0,1-7.839-7.839v-20.9a7.848,7.848,0,0,1,7.839-7.839H44.419a7.848,7.848,0,0,1,7.839,7.839ZM13.064,18.29a2.614,2.614,0,0,1,2.613-2.613H28.742a2.613,2.613,0,1,1,0,5.226H15.677a2.614,2.614,0,0,1-2.613-2.613M44.419,28.742a2.614,2.614,0,0,1-2.613,2.613H15.677a2.613,2.613,0,0,1,0-5.226H41.806a2.614,2.614,0,0,1,2.613,2.613" fill="#fff"/></g></g></svg>