<svg xmlns="http://www.w3.org/2000/svg" xmlns:xlink="http://www.w3.org/1999/xlink" width="50" height="55" viewBox="0 0 50 55"><defs><clipPath id="a"><rect width="50" height="55" fill="#fff"/></clipPath></defs><g clip-path="url(#a)"><path d="M38.589,49.093a12.6,12.6,0,0,1-10.894,6.3H12.589A12.6,12.6,0,0,1,0,42.8V12.589A12.6,12.6,0,0,1,12.589,0H27.695A12.6,12.6,0,0,1,38.589,6.3a2.519,2.519,0,1,1-4.366,2.513,7.547,7.547,0,0,0-6.528-3.774,2.517,2.517,0,0,1-2.518,2.518H15.106a2.517,2.517,0,0,1-2.518-2.518,7.562,7.562,0,0,0-7.553,7.553V42.8a7.562,7.562,0,0,0,7.553,7.553H27.695a7.547,7.547,0,0,0,6.528-3.774,2.519,2.519,0,1,1,4.366,2.513m3.17-28.951h-19.1a2.518,2.518,0,0,0,0,5.035H47.837a2.517,2.517,0,0,0,1.78-4.3l-5.035-5.035a2.517,2.517,0,0,0-3.56,3.56Zm6.078,10.071H22.659a2.517,2.517,0,0,0-1.78,4.3l5.035,5.035a2.517,2.517,0,0,0,3.56-3.56l-.738-.738h19.1a2.518,2.518,0,1,0,0-5.035" fill="#fff"/></g></svg>