<svg xmlns="http://www.w3.org/2000/svg" xmlns:xlink="http://www.w3.org/1999/xlink" width="56" height="46" viewBox="0 0 56 46"><defs><clipPath id="a"><rect width="56" height="46" transform="translate(0 -0.182)" fill="#fff"/></clipPath></defs><g transform="translate(0 0.258)"><g transform="translate(0 -0.076)" clip-path="url(#a)"><path d="M43.211,0h-30.5A12.724,12.724,0,0,0,0,12.709V33.044A12.724,12.724,0,0,0,12.709,45.753h30.5A12.724,12.724,0,0,0,55.921,33.044V12.709A12.724,12.724,0,0,0,43.211,0M38.392,22.089,50.679,11.166a7.71,7.71,0,0,1,.158,1.543V33.044A7.645,7.645,0,0,1,50.7,34.4Zm4.819-17a7.541,7.541,0,0,1,4.743,1.7l-18.3,16.27a2.544,2.544,0,0,1-3.378,0L7.966,6.787a7.541,7.541,0,0,1,4.743-1.7ZM5.221,34.4a7.645,7.645,0,0,1-.137-1.352V12.709a7.71,7.71,0,0,1,.158-1.543L17.529,22.089Zm7.488,6.273A7.543,7.543,0,0,1,7.9,38.911L21.334,25.472l1.561,1.388a7.635,7.635,0,0,0,10.132,0l1.561-1.385L48.023,38.911a7.543,7.543,0,0,1-4.812,1.759Z" transform="translate(0 0.065)" fill="#fff"/></g></g></svg>