<svg xmlns="http://www.w3.org/2000/svg" xmlns:xlink="http://www.w3.org/1999/xlink" width="54" height="54" viewBox="0 0 54 54"><defs><clipPath id="a"><rect width="54" height="54" transform="translate(0.164 0.164)" fill="#fff"/></clipPath></defs><g transform="translate(-0.164 -0.164)"><g clip-path="url(#a)"><path d="M51.859,49.39V24.695a4.944,4.944,0,0,0-4.939-4.939H41.981a4.944,4.944,0,0,0-4.939,4.939V49.39H34.573V34.573a4.944,4.944,0,0,0-4.939-4.939H24.695a4.944,4.944,0,0,0-4.939,4.939V49.39H17.286V39.512a4.944,4.944,0,0,0-4.939-4.939H7.408a4.944,4.944,0,0,0-4.939,4.939V49.39a2.469,2.469,0,0,0,0,4.939h49.39a2.469,2.469,0,0,0,0-4.939M7.408,39.512h4.939V49.39H7.408Zm17.286-4.939h4.939V49.39H24.695Zm17.286-9.878H46.92V49.39H41.981ZM5.008,27.742a2.47,2.47,0,0,1,1.822-2.978,73.212,73.212,0,0,0,34.6-19.825H37.042a2.469,2.469,0,1,1,0-4.939H46.92A2.47,2.47,0,0,1,49.39,2.469v9.878a2.469,2.469,0,1,1-4.939,0v-3.4A77.509,77.509,0,0,1,7.986,29.565a2.466,2.466,0,0,1-2.978-1.822" fill="#fff"/></g></g></svg>