<svg xmlns="http://www.w3.org/2000/svg" xmlns:xlink="http://www.w3.org/1999/xlink" width="50" height="58" viewBox="0 0 50 58"><defs><clipPath id="a"><rect width="50" height="58" fill="#fff"/></clipPath></defs><g clip-path="url(#a)"><path d="M41.345,43.359a24.844,24.844,0,1,0-33,0L4.106,53.95a2.644,2.644,0,0,0,1.464,3.4,2.539,2.539,0,0,0,.968.183A2.628,2.628,0,0,0,8.97,55.885l3.74-9.388a24.67,24.67,0,0,0,24.268,0l3.74,9.388a2.628,2.628,0,0,0,2.432,1.648,2.539,2.539,0,0,0,.968-.183,2.644,2.644,0,0,0,1.464-3.4Zm-16.5,1.1A19.613,19.613,0,1,1,44.457,24.844,19.621,19.621,0,0,1,24.844,44.457m0-34A14.383,14.383,0,1,0,39.227,24.844,14.409,14.409,0,0,0,24.844,10.46m0,23.536A9.153,9.153,0,1,1,34,24.844,9.163,9.163,0,0,1,24.844,34m3.923-9.153a3.923,3.923,0,1,1-3.923-3.923,3.917,3.917,0,0,1,3.923,3.923" fill="#fff"/></g></svg>