<svg xmlns="http://www.w3.org/2000/svg" width="129.004" height="128.992" viewBox="0 0 129.004 128.992"><g transform="translate(-6.996 -7)"><path d="M130.84,84.656H119.953l-1.6-6.4a5.133,5.133,0,0,0-5-3.921H96.734a5.133,5.133,0,0,0-5,3.921l-1.6,6.4H79.243a5.247,5.247,0,0,0-3.483,1.367,20.812,20.812,0,0,0-3.173-1.058l-11.274-2.58V75.472A23.2,23.2,0,0,0,71.348,58.857h2.735a7.711,7.711,0,0,0,5.16-13.467V36.722A13.994,13.994,0,0,0,65.26,22.74a3.075,3.075,0,0,1-2.915-2.115A8.245,8.245,0,0,0,54.528,15H40.545A23.254,23.254,0,0,0,17.326,38.219v7.172a7.711,7.711,0,0,0,5.16,13.467h2.735A23.2,23.2,0,0,0,35.256,75.472v6.914l-11.274,2.58A18.136,18.136,0,0,0,10.051,99.593L7.059,117.368a5.164,5.164,0,0,0,1.161,4.154,5.261,5.261,0,0,0,3.973,1.832H128.26a5.175,5.175,0,0,0,5.16-5.16V99.851A5.172,5.172,0,0,0,136,95.414v-5.6A5.175,5.175,0,0,0,130.84,84.656ZM96.734,79.5h16.614l1.29,5.16H95.444ZM64.306,88.371,61.958,98.922l-9.339-4.67,6.837-6.991,4.85,1.109ZM48.285,91.286l-7.869-8.023V78.1a22.916,22.916,0,0,0,15.737,0v5.16Zm3.663,8.41-.619,3.019H45.24L44.621,99.7l3.663-1.832L51.948,99.7ZM76.663,51.118a2.587,2.587,0,0,1-2.58,2.58H71.5v-5.16h2.58A2.587,2.587,0,0,1,76.663,51.118Zm-51.6,2.58h-2.58a2.58,2.58,0,1,1,0-5.16h2.58Zm-2.58-10.319v-5.16A18.079,18.079,0,0,1,40.545,20.16H54.528a3.075,3.075,0,0,1,2.915,2.115A8.245,8.245,0,0,0,65.26,27.9a8.819,8.819,0,0,1,8.823,8.823v6.656h-5.16a5.175,5.175,0,0,1-5.16-5.16,2.587,2.587,0,0,0-2.58-2.58h-25.8a2.587,2.587,0,0,0-2.58,2.58,5.175,5.175,0,0,1-5.16,5.16h-5.16Zm7.74,12.9V48.2a10.343,10.343,0,0,0,7.4-7.4h21.31a10.343,10.343,0,0,0,7.4,7.4v8.075a18.059,18.059,0,1,1-36.118,0Zm6.888,30.984,6.837,6.991-9.339,4.67L32.264,88.371l4.85-1.109Zm-1.006,30.932-23.941.026,2.993-17.749A12.982,12.982,0,0,1,25.118,90l2.116-.464,2.348,10.526a5.125,5.125,0,0,0,2.812,3.534,4.8,4.8,0,0,0,2.219.49,5.175,5.175,0,0,0,2.3-.542l2.941-1.471.619,3.07-4.36,13.054Zm5.443,0,3.431-10.319h6.6l3.431,10.319H41.551Zm35.112,0h-16.2L56.1,105.14l.619-3.07,2.941,1.471a5.137,5.137,0,0,0,7.327-3.483l2.348-10.526,2.09.464a15.481,15.481,0,0,1,2.657.955v4.463a5.117,5.117,0,0,0,2.58,4.437Zm10.319,0h-5.16V101.115l5.16.955Zm30.958,0h-25.8V103l5.16.929v3.947a2.587,2.587,0,0,0,2.58,2.58h2.58v2.58a2.58,2.58,0,1,0,5.16,0v-2.58h2.58a2.587,2.587,0,0,0,2.58-2.58v-3.947l5.16-.929Zm-15.479-12.9v-5.16h5.16v5.16Zm25.8,12.9H123.1V102.07l5.16-.955Zm2.58-22.78L112.781,98.69V97.555a2.587,2.587,0,0,0-2.58-2.58H99.882a2.587,2.587,0,0,0-2.58,2.58V98.69L79.243,95.414v-5.6h51.6Z" transform="translate(0 12.639)" fill="#fff"/><path d="M39.74,27.639a2.582,2.582,0,0,1-2.58-2.58,2.58,2.58,0,1,0-5.16,0,7.74,7.74,0,1,0,7.74-7.74,2.58,2.58,0,1,1,2.58-2.58,2.58,2.58,0,1,0,5.16,0,7.74,7.74,0,1,0-7.74,7.74,2.58,2.58,0,1,1,0,5.16Z" transform="translate(39.503 0)" fill="#fff"/><path d="M41.58,32.8a2.579,2.579,0,0,0,2.58-2.58v-5.16h5.16v5.16a2.58,2.58,0,1,0,5.16,0V14.74A7.74,7.74,0,0,0,39,14.74V30.219A2.579,2.579,0,0,0,41.58,32.8ZM46.74,12.16a2.582,2.582,0,0,1,2.58,2.58V19.9H44.16V14.74A2.582,2.582,0,0,1,46.74,12.16Z" transform="translate(50.562 0)" fill="#fff"/><path d="M48.58,32.8h7.74a2.58,2.58,0,0,0,0-5.16H51.16V9.58a2.58,2.58,0,0,0-5.16,0V30.219A2.579,2.579,0,0,0,48.58,32.8Z" transform="translate(61.621 0)" fill="#fff"/><path d="M62.319,22.479a2.58,2.58,0,1,0,0-5.16H57.16V12.16h5.16a2.58,2.58,0,1,0,0-5.16H54.58A2.579,2.579,0,0,0,52,9.58V30.219a2.579,2.579,0,0,0,2.58,2.58h7.74a2.58,2.58,0,0,0,0-5.16H57.16v-5.16Z" transform="translate(71.1 0)" fill="#fff"/><path d="M51.74,45.219a2.582,2.582,0,0,1-2.58-2.58,2.58,2.58,0,0,0-5.16,0A7.727,7.727,0,0,0,49.16,49.9v.476a2.58,2.58,0,1,0,5.16,0V49.9a7.72,7.72,0,0,0-2.58-15,2.58,2.58,0,1,1,2.58-2.58,2.58,2.58,0,1,0,5.16,0,7.727,7.727,0,0,0-5.16-7.264V24.58a2.58,2.58,0,0,0-5.16,0v.475a7.72,7.72,0,0,0,2.58,15,2.58,2.58,0,1,1,0,5.16Z" transform="translate(58.461 23.698)" fill="#fff"/><path d="M43.838,50.956a2.579,2.579,0,1,0-4.515,2.494,23.219,23.219,0,1,0,0-22.463,2.579,2.579,0,1,0,4.515,2.494,18.059,18.059,0,1,1,0,17.474Z" transform="translate(50.562 18.958)" fill="#fff"/><circle cx="2.5" cy="2.5" r="2.5" transform="translate(86.995 58.992)" fill="#fff"/></g></svg>