<svg xmlns="http://www.w3.org/2000/svg" width="122.001" height="122.001" viewBox="0 0 122.001 122.001"><path d="M129,33.84V24.08c0-.024-.024-.049-.024-.073a2.184,2.184,0,0,0-.244-1.025l-7.32-14.64A2.384,2.384,0,0,0,119.241,7H16.76a2.384,2.384,0,0,0-2.172,1.342s-7.32,14.616-7.32,14.64A2.512,2.512,0,0,0,7,24.08v9.76a12.082,12.082,0,0,0,4.88,9.687V97.281A4.894,4.894,0,0,0,7,102.161v4.88a4.894,4.894,0,0,0,4.88,4.88H31.4v12.2H28.96a2.44,2.44,0,0,0,0,4.88H116.8a2.44,2.44,0,0,0,0-4.88h-2.44v-12.2h9.76a4.894,4.894,0,0,0,4.88-4.88v-4.88a4.894,4.894,0,0,0-4.88-4.88V43.527A12.082,12.082,0,0,0,129,33.84ZM18.273,11.88h99.455l4.88,9.76H13.393ZM104.6,26.52v7.32a7.32,7.32,0,0,1-14.64,0V26.52Zm-19.52,0v7.32a7.32,7.32,0,0,1-14.64,0V26.52Zm-19.52,0v7.32a7.32,7.32,0,0,1-14.64,0V26.52Zm-19.52,0v7.32a7.32,7.32,0,0,1-14.64,0V26.52Zm-34.16,0H26.52v7.32a7.32,7.32,0,0,1-14.64,0Zm19.52,80.52H11.88v-4.88H31.4Zm12.2,17.08H36.28V92.4H43.6Zm21.96,0H58.24V72.88h7.32Zm21.96,0H80.2V85.08h7.32Zm21.96-70.76h-7.32a4.894,4.894,0,0,0-4.88,4.88V72.88a2.44,2.44,0,1,0,4.88,0V58.24h7.32v65.88h-7.32V92.4a2.44,2.44,0,1,0-4.88,0v31.72H92.4V85.08a4.894,4.894,0,0,0-4.88-4.88H80.2a4.894,4.894,0,0,0-4.88,4.88v39.04H70.44V72.88A4.894,4.894,0,0,0,65.56,68H58.24a4.894,4.894,0,0,0-4.88,4.88v51.24H48.48V92.4a4.894,4.894,0,0,0-4.88-4.88H36.28A4.894,4.894,0,0,0,31.4,92.4v4.88H16.76V45.8a13.342,13.342,0,0,0,2.44.244,12.184,12.184,0,0,0,9.76-4.953,12.092,12.092,0,0,0,19.52,0,12.092,12.092,0,0,0,19.52,0,12.092,12.092,0,0,0,19.52,0,12.092,12.092,0,0,0,19.52,0,12.184,12.184,0,0,0,9.76,4.953,13.342,13.342,0,0,0,2.44-.244V97.281h-4.88V58.24A4.894,4.894,0,0,0,109.481,53.36Zm14.64,53.68h-9.76v-4.88h9.76ZM116.8,41.16a7.342,7.342,0,0,1-7.32-7.32V26.52h14.64v7.32A7.342,7.342,0,0,1,116.8,41.16Z" transform="translate(-7 -7)" fill="#fff"/></svg>