<svg xmlns="http://www.w3.org/2000/svg" width="131.196" height="131.197" viewBox="0 0 131.196 131.197"><g transform="translate(-7 -7)"><path d="M136.208,77.557l-26.875-6.719v-9.1a2.624,2.624,0,1,0-5.248,0v13.12H93.59V30.248h10.5v10.5a2.624,2.624,0,1,0,5.248,0v-10.5A5.254,5.254,0,0,0,104.085,25H93.59a5.254,5.254,0,0,0-5.248,5.248V65.59l-5.248-1.312V38.12a5.254,5.254,0,0,0-5.248-5.248H67.35A5.254,5.254,0,0,0,62.1,38.12V64.278L56.855,65.59V48.615a5.254,5.254,0,0,0-5.248-5.248h-10.5a5.254,5.254,0,0,0-5.248,5.248V70.838L8.988,77.557A2.624,2.624,0,0,0,7,80.1V88.55a5.241,5.241,0,0,0,3.977,5.092l60.986,15.246a2.622,2.622,0,0,0,1.271,0L134.22,93.641A5.241,5.241,0,0,0,138.2,88.55V80.1A2.624,2.624,0,0,0,136.208,77.557ZM67.35,38.12h10.5l0,36.735H67.35Zm-26.239,10.5h10.5l0,26.239h-10.5ZM36.059,76.2a5.242,5.242,0,0,0,5.052,3.9h10.5a5.254,5.254,0,0,0,5.248-5.248V71L62.1,69.688v5.167A5.254,5.254,0,0,0,67.35,80.1h10.5a5.254,5.254,0,0,0,5.248-5.248V69.688L88.342,71v3.855A5.254,5.254,0,0,0,93.59,80.1h10.5a5.242,5.242,0,0,0,5.052-3.9l15.617,3.9L72.6,93.141,20.443,80.1l15.617-3.9ZM132.949,88.55,72.6,103.637,12.248,88.55V83.463L71.963,98.392a2.622,2.622,0,0,0,1.271,0l59.715-14.929Z" transform="translate(0 29.231)" fill="#fff"/><path d="M21.872,34.615a2.627,2.627,0,0,1-2.624-2.624,2.624,2.624,0,0,0-5.248,0,7.859,7.859,0,0,0,5.248,7.388v.484a2.624,2.624,0,1,0,5.248,0V39.38a7.852,7.852,0,0,0-2.624-15.26A2.624,2.624,0,1,1,24.5,21.5a2.624,2.624,0,1,0,5.248,0A7.859,7.859,0,0,0,24.5,14.107v-.484a2.624,2.624,0,1,0-5.248,0v.484a7.852,7.852,0,0,0,2.624,15.26,2.624,2.624,0,0,1,0,5.248Z" transform="translate(11.368 6.496)" fill="#fff"/><path d="M33.239,59.479A26.239,26.239,0,1,0,7,33.239,26.269,26.269,0,0,0,33.239,59.479Zm0-47.231A20.991,20.991,0,1,1,12.248,33.239,21.016,21.016,0,0,1,33.239,12.248Z" transform="translate(0 0)" fill="#fff"/><path d="M30.088,43.349a35.357,35.357,0,0,0,44.5-4.406l1.486-1.487,3.713,3.709a2.623,2.623,0,0,0,4.4-1.218L91.6,10.26a2.623,2.623,0,0,0-3.18-3.183L58.739,14.5a2.623,2.623,0,0,0-1.22,4.4l3.708,3.709a59.686,59.686,0,0,1-30.2,15.983,2.623,2.623,0,0,0-.94,4.756ZM65.332,25.931l1.463-1.464a2.623,2.623,0,0,0,0-3.71l-2.288-2.288L85.454,13.23,80.217,34.178l-2.291-2.29a2.623,2.623,0,0,0-3.71,0l-3.341,3.344A30.13,30.13,0,0,1,38.834,42a64.89,64.89,0,0,0,26.5-16.073Z" transform="translate(35.594 0)" fill="#fff"/><circle cx="2.412" cy="2.412" r="2.412" transform="translate(104.432 77.903)" fill="#fff"/></g></svg>