<svg xmlns="http://www.w3.org/2000/svg" width="117.394" height="117.312" viewBox="0 0 117.394 117.312"><g transform="translate(-7 -7.035)"><path d="M117.35,58.606H115v-4.7a4.71,4.71,0,0,0-4.7-4.7h-2.348V39.823h4.7a2.366,2.366,0,0,0,2-3.592L102.911,17.448a2.46,2.46,0,0,0-3.991,0L87.18,36.231a2.366,2.366,0,0,0,2,3.592h4.7v9.392H91.524a4.71,4.71,0,0,0-4.7,4.7v4.7H79.784v-4.7a4.71,4.71,0,0,0-4.7-4.7H72.741V30.432h4.7a2.366,2.366,0,0,0,2-3.592L67.693,8.056a2.46,2.46,0,0,0-3.991,0L51.962,26.839a2.366,2.366,0,0,0,2,3.592h4.7V49.215H56.306a4.71,4.71,0,0,0-4.7,4.7v4.7H44.566v-4.7a4.71,4.71,0,0,0-4.7-4.7H37.522V39.823h4.7a2.366,2.366,0,0,0,2-3.592L32.474,17.448a2.46,2.46,0,0,0-3.991,0L16.744,36.231a2.366,2.366,0,0,0,2,3.592h4.7v9.392H21.087a4.71,4.71,0,0,0-4.7,4.7v4.7H14.044A7.064,7.064,0,0,0,7,65.65V117.3a7.064,7.064,0,0,0,7.044,7.044H70.393a2.348,2.348,0,0,0,0-4.7H14.044A2.355,2.355,0,0,1,11.7,117.3V65.65A2.355,2.355,0,0,1,14.044,63.3H117.35A2.355,2.355,0,0,1,119.7,65.65V117.3a2.355,2.355,0,0,1-2.348,2.348H89.176a2.348,2.348,0,1,0,0,4.7H117.35a7.064,7.064,0,0,0,7.044-7.044V65.65A7.064,7.064,0,0,0,117.35,58.606ZM22.966,35.127l7.513-12,7.513,12H35.175a2.355,2.355,0,0,0-2.348,2.348V49.215h-4.7V37.475a2.355,2.355,0,0,0-2.348-2.348Zm16.9,23.479H21.087v-4.7H39.87Zm18.313-32.87,7.513-12,7.513,12H70.393a2.355,2.355,0,0,0-2.348,2.348V49.215h-4.7V28.084A2.355,2.355,0,0,0,61,25.736Zm16.9,32.87H56.306v-4.7H75.089ZM93.4,35.127l7.513-12,7.513,12h-2.817a2.355,2.355,0,0,0-2.348,2.348V49.215h-4.7V37.475a2.355,2.355,0,0,0-2.348-2.348Zm16.9,23.479H91.524v-4.7h18.783Z" transform="translate(0 0)" fill="#fff"/><path d="M102.567,77.61a4.7,4.7,0,0,1,4.7-4.7,2.347,2.347,0,0,0,2.348-2.348V42.392a2.347,2.347,0,0,0-2.348-2.348,4.7,4.7,0,0,1-4.7-4.7A2.347,2.347,0,0,0,100.22,33H20.392a2.347,2.347,0,0,0-2.348,2.348,4.7,4.7,0,0,1-4.7,4.7A2.347,2.347,0,0,0,11,42.392V70.566a2.347,2.347,0,0,0,2.348,2.348,4.7,4.7,0,0,1,4.7,4.7,2.347,2.347,0,0,0,2.348,2.348H100.22A2.347,2.347,0,0,0,102.567,77.61ZM72.045,56.479c0,10.183-5.376,18.783-11.739,18.783s-11.739-8.6-11.739-18.783S53.942,37.7,60.306,37.7,72.045,46.3,72.045,56.479ZM15.7,68.516V44.441A9.426,9.426,0,0,0,22.443,37.7H50.36C46.4,41.945,43.87,48.7,43.87,56.479s2.53,14.534,6.49,18.783H22.443A9.426,9.426,0,0,0,15.7,68.516Zm54.555,6.746c3.96-4.249,6.49-11.008,6.49-18.783s-2.53-14.534-6.49-18.783H98.169a9.426,9.426,0,0,0,6.747,6.746V68.516a9.426,9.426,0,0,0-6.747,6.746H70.251Z" transform="translate(5.391 34.998)" fill="#fff"/><path d="M23.044,40a7.044,7.044,0,1,0,7.044,7.044A7.051,7.051,0,0,0,23.044,40Zm0,9.392a2.348,2.348,0,1,1,2.348-2.348A2.35,2.35,0,0,1,23.044,49.392Z" transform="translate(12.131 44.433)" fill="#fff"/><path d="M49.044,40a7.044,7.044,0,1,0,7.044,7.044A7.051,7.051,0,0,0,49.044,40Zm0,9.392a2.348,2.348,0,1,1,2.348-2.348A2.35,2.35,0,0,1,49.044,49.392Z" transform="translate(47.176 44.433)" fill="#fff"/><circle cx="2.348" cy="2.348" r="2.348" transform="translate(77.436 119.651)" fill="#fff"/></g></svg>