<svg xmlns="http://www.w3.org/2000/svg" xmlns:xlink="http://www.w3.org/1999/xlink" width="137.257" height="146" viewBox="0 0 137.257 146"><defs><clipPath id="a"><rect width="137.257" height="146" fill="#fff"/></clipPath></defs><g clip-path="url(#a)"><path d="M104.448,107.965a16.791,16.791,0,0,0,5.421-18.42l-3.112-9.59a12.072,12.072,0,0,1,4.4-13.559l8.152-5.92c13.325-9.692,6.49-30.75-9.986-30.75H99.255A12.117,12.117,0,0,1,87.7,21.336l-3.112-9.592c-5.081-15.658-27.239-15.658-32.32,0l-3.112,9.592A12.117,12.117,0,0,1,37.6,29.726H27.526c-16.474,0-23.309,21.058-9.984,30.75L25.7,66.4a12.065,12.065,0,0,1,4.4,13.554l-3.112,9.587a16.791,16.791,0,0,0,5.431,18.428c-5.684,6.254-6.1,11.994-9.234,24.509A11.579,11.579,0,0,0,34.592,146h67.671a11.565,11.565,0,0,0,11.371-13.707c-3.112-12.405-3.545-18.136-9.186-24.328M31.614,91.046l3.112-9.59a16.915,16.915,0,0,0-6.173-18.995L20.4,56.539c-9.517-6.923-4.645-21.946,7.122-21.946H37.6A16.968,16.968,0,0,0,53.784,22.837l3.115-9.59c3.628-11.179,19.43-11.179,23.058,0l3.112,9.59A16.973,16.973,0,0,0,99.255,34.593h10.072c11.768,0,16.639,15.023,7.125,21.946l-8.144,5.918a16.924,16.924,0,0,0-6.181,19l3.115,9.592a11.789,11.789,0,0,1-4.492,13.59A25.276,25.276,0,0,0,88.3,99.847a9.973,9.973,0,0,1-8.991-9.952c0-5.207.019-4.755-.061-5.39A26.587,26.587,0,0,0,92.987,60.89c0-14.527-11.018-26.348-24.56-26.348S43.87,46.363,43.87,60.89A26.583,26.583,0,0,0,57.6,84.5c-.088.681-.061.019-.061,5.392a9.975,9.975,0,0,1-8.991,9.952,25.221,25.221,0,0,0-12.444,4.8,11.8,11.8,0,0,1-4.494-13.6m30.8-1.151V86.4a22.126,22.126,0,0,0,12.035,0v3.492a14.826,14.826,0,0,0,10.6,14.25c-5.334,15.912-27.893,15.912-33.23,0a14.826,14.826,0,0,0,10.6-14.25M48.737,60.89c0-11.845,8.833-21.481,19.691-21.481S88.121,49.044,88.121,60.89,79.285,82.371,68.428,82.371,48.737,72.735,48.737,60.89m53.526,80.244H34.592a6.731,6.731,0,0,1-6.653-7.655c4.4-17.539,3.684-17.768,10.055-24.139a20.375,20.375,0,0,1,9-4.285c6.4,21.165,36.478,21.168,42.868,0a20.281,20.281,0,0,1,15.457,14.074l3.56,14.167a6.709,6.709,0,0,1-6.614,7.838M20.126,6.709c-2.078-2.46,1.645-5.606,3.718-3.141L35.449,17.3a2.437,2.437,0,0,1-1.857,4.005c-1.565,0-1.1.041-13.466-14.6M20.5,77.731C2.3,86.415,3.222,86.094,2.433,86.094a2.435,2.435,0,0,1-1.051-4.628L18.4,73.341c2.888-1.392,5.013,3,2.1,4.39M101.81,17.3l11.6-13.734c2.068-2.467,5.8.681,3.718,3.141L105.526,20.445c-2.012,2.39-5.825-.647-3.716-3.144m33.015,68.793c-.784,0,.455.479-18.067-8.363-2.905-1.382-.805-5.784,2.1-4.39l17.021,8.125a2.435,2.435,0,0,1-1.051,4.628" transform="translate(0 0)" fill="#fff"/></g></svg>