<svg xmlns="http://www.w3.org/2000/svg" xmlns:xlink="http://www.w3.org/1999/xlink" width="133.47" height="156.023" viewBox="0 0 133.47 156.023"><defs><clipPath id="a"><rect width="133.47" height="156.023" fill="#fff"/></clipPath></defs><g transform="translate(0 0)"><g transform="translate(0 0)" clip-path="url(#a)"><path d="M72.96,109.2c20.29,7.835,20.462,8.266,24.253,8.264a15.339,15.339,0,0,0,15.319-15.345V90.308a25.948,25.948,0,0,0,0-50.92V27.58A15.323,15.323,0,0,0,91.623,13.293c-3.633-3.18-9-1.4-10.212-4.194C79.576,4.876,78.374.281,72.755.011,64.293-.366,65.23,9.141,61.293,9.52c-4.584.445-9.333.169-11.319,5.43-2.463,6.493,4.527,10.2,5.372,12.38L31.763,36.439H14.723A14.74,14.74,0,0,0,0,51.165V78.541A14.74,14.74,0,0,0,14.723,93.267h4.426l4.369,50.865a13.391,13.391,0,0,0,26.617-2.967l-.913-10.828c16.7-4.249,22.1-15.511,23.739-21.141m39.572-64.468c20.92,5.146,20.92,35.092,0,40.238Zm-18.361-26.8a10.094,10.094,0,0,1,13.16,9.655v74.536a10.115,10.115,0,0,1-13.779,9.455l-9.821-3.791V42.88a7.636,7.636,0,0,0,4.054-7.754c-.621-5.071-1.009-5.913.247-7.021,3.526-3.12,6.907-5.25,6.139-10.18M56.96,15.166l4.834-.468c7.575-.731,6.7-9.79,10.711-9.491a2.48,2.48,0,0,1,2.2,1.519c3.836,8.815,3.729,8.209,12.315,9.884A2.533,2.533,0,0,1,88.217,21C81.7,26.76,81.45,26.16,82.623,35.76a2.532,2.532,0,0,1-3.8,2.491h0c-8.287-4.878-7.848-4.449-15.766-.757a2.532,2.532,0,0,1-3.547-2.845c2.106-9.522,1.573-9.083-4.155-15.235a2.532,2.532,0,0,1,1.61-4.249m-42.237,72.9A9.533,9.533,0,0,1,5.2,78.541V51.165a9.533,9.533,0,0,1,9.522-9.525H29.618V54.028H18.629c-3.44,0-3.44,5.2,0,5.2H29.618V72.24H18.629c-3.44,0-3.44,5.2,0,5.2H29.618V88.066Zm23.39,62.65a8.187,8.187,0,0,1-9.421-7.1l-4.324-50.35H31.7l9.483,3.661,3.776,44.754a8.17,8.17,0,0,1-6.849,9.034M34.826,88.9V40.831l19.664-7.6a7.74,7.74,0,0,0,10.76,8.974c6.553-3.055,4.7-3.144,10.932.525a7.676,7.676,0,0,0,2.348.866v62.172ZM48.78,125.092l-2.2-26.081,21.549,8.318c-1.027,4.111-4.982,13.792-19.349,17.763" transform="translate(0 0.001)" fill="#fff"/></g></g></svg>