<svg xmlns="http://www.w3.org/2000/svg" xmlns:xlink="http://www.w3.org/1999/xlink" width="177.054" height="175.198" viewBox="0 0 177.054 175.198"><defs><clipPath id="a"><rect width="177.054" height="175.198" fill="#fff"/></clipPath></defs><g transform="translate(0 0)"><g transform="translate(0 0)" clip-path="url(#a)"><path d="M52.021,112.147A52.019,52.019,0,1,1,88.8,96.908a51.673,51.673,0,0,1-36.779,15.239m0-98.274A46.255,46.255,0,1,0,84.742,27.4,46.132,46.132,0,0,0,52.018,13.873" transform="translate(0 15.208)" fill="#fff"/><path d="M42.415,61.72a2.861,2.861,0,0,1-2.029-.841L28.547,49.041A2.869,2.869,0,1,1,32.6,44.984l9.81,9.81,4.255-4.255-9.81-9.81a2.87,2.87,0,0,1,4.06-4.057L52.756,48.51a2.866,2.866,0,0,1,0,4.057L44.443,60.88a2.861,2.861,0,0,1-2.029.841" transform="translate(51.791 66.978)" fill="#fff"/><path d="M75,102.36a8.3,8.3,0,0,1-5.905-2.445L33.257,64.074a8.34,8.34,0,0,1,0-11.8L44.2,41.332a8.545,8.545,0,0,1,11.807,0L91.839,77.167a8.347,8.347,0,0,1,0,11.8L80.9,99.915A8.3,8.3,0,0,1,75,102.36M50.1,44.623a2.585,2.585,0,0,0-1.842.766L37.314,56.327a2.6,2.6,0,0,0,0,3.687L73.152,95.855a2.666,2.666,0,0,0,3.69,0L87.782,84.914v0a2.608,2.608,0,0,0,0-3.687L51.947,45.389a2.6,2.6,0,0,0-1.848-.766" transform="translate(57.592 72.839)" fill="#fff"/><path d="M23.981,55.147H8.966A2.869,2.869,0,0,1,6.1,52.278V24.336a2.867,2.867,0,0,1,2.869-2.869H23.981a2.867,2.867,0,0,1,2.869,2.869V52.278a2.869,2.869,0,0,1-2.869,2.869M11.836,49.408h9.276v-22.2H11.836Z" transform="translate(11.397 40.13)" fill="#fff"/><path d="M32.83,65.611H17.812a2.87,2.87,0,0,1-2.869-2.869v-44a2.869,2.869,0,0,1,2.869-2.869H32.83A2.869,2.869,0,0,1,35.7,18.738v44a2.87,2.87,0,0,1-2.869,2.869M20.682,59.873h9.276V21.608H20.682Z" transform="translate(27.933 29.665)" fill="#fff"/><path d="M41.676,50.367H26.658A2.869,2.869,0,0,1,23.789,47.5v-20.6a2.867,2.867,0,0,1,2.869-2.869H41.676a2.867,2.867,0,0,1,2.869,2.869V47.5a2.869,2.869,0,0,1-2.869,2.869M29.528,44.629h9.279V29.763H29.528Z" transform="translate(44.469 44.91)" fill="#fff"/><path d="M72.8,73.271a36.635,36.635,0,1,1,36.635-36.633A36.673,36.673,0,0,1,72.8,73.271m0-67.532a30.9,30.9,0,1,0,30.9,30.9,30.932,30.932,0,0,0-30.9-30.9" transform="translate(67.615 0.001)" fill="#fff"/><path d="M56.821,41.193c-.384,0-.766-.014-1.139-.037-6.226-.4-10.516-3.879-10.929-8.869a2.87,2.87,0,1,1,5.721-.473c.25,3.039,4.33,3.538,5.572,3.615,3.9.241,7.056-1.331,7.308-2.516.479-2.244.8-3.727-10.6-6.789-6.663-1.793-8.519-6.373-8.031-10.063.68-5.125,5.618-9.294,11.015-9.294,9.408,0,12.163,6.031,12.278,6.284a2.871,2.871,0,0,1-5.228,2.373c-.112-.215-1.653-2.918-7.05-2.918a5.5,5.5,0,0,0-5.325,4.307c-.29,2.186,1.925,3.257,3.833,3.767,11.282,3.033,16.367,5.833,14.72,13.532-1.007,4.723-6.8,7.081-12.143,7.081" transform="translate(83.46 12.651)" fill="#fff"/><path d="M50.736,28.281a2.867,2.867,0,0,1-2.869-2.869V19.63a2.869,2.869,0,0,1,5.739,0v5.782a2.867,2.867,0,0,1-2.869,2.869" transform="translate(89.479 31.333)" fill="#fff"/><path d="M50.736,16.28a2.867,2.867,0,0,1-2.869-2.869V7.629a2.869,2.869,0,0,1,5.739,0v5.782a2.867,2.867,0,0,1-2.869,2.869" transform="translate(89.479 8.899)" fill="#fff"/></g></g></svg>