<svg xmlns="http://www.w3.org/2000/svg" xmlns:xlink="http://www.w3.org/1999/xlink" width="187.142" height="173.563" viewBox="0 0 187.142 173.563"><defs><clipPath id="a"><rect width="187.142" height="173.562" fill="#fff"/></clipPath></defs><g transform="translate(0 0)"><g transform="translate(0 0)" clip-path="url(#a)"><path d="M65.288,141.733a18.191,18.191,0,0,1-18.169-18.169V17.666a3.2,3.2,0,0,1,3.2-3.2H80.257a3.2,3.2,0,0,1,3.2,3.2v105.9a18.191,18.191,0,0,1-18.169,18.169M53.52,20.867v102.7a11.768,11.768,0,0,0,23.536,0V20.867Z" transform="translate(103.685 31.831)" fill="#fff"/><path d="M143.745,90.736H29.651A18.2,18.2,0,0,1,11.469,72.557V40.84a3.2,3.2,0,0,1,6.4,0V72.557A11.792,11.792,0,0,0,29.651,84.335H143.745a3.2,3.2,0,1,1,0,6.4" transform="translate(25.237 82.825)" fill="#fff"/><path d="M128.767,158.584a3.2,3.2,0,0,1-3.2-3.2V6.4H17.87v81a3.2,3.2,0,1,1-6.4,0V3.2a3.2,3.2,0,0,1,3.2-3.2h114.1a3.2,3.2,0,0,1,3.2,3.2V155.384a3.2,3.2,0,0,1-3.2,3.2" transform="translate(25.237 -0.002)" fill="#fff"/><path d="M95.686,40.281H20.378a3.2,3.2,0,0,1-3.2-3.2V8.842a3.2,3.2,0,0,1,3.2-3.2H95.686a3.2,3.2,0,0,1,3.2,3.2V37.08a3.2,3.2,0,0,1-3.2,3.2m-72.107-6.4H92.485V12.046H23.579Z" transform="translate(37.8 12.414)" fill="#fff"/><path d="M37.742,64.984H23.378a7.81,7.81,0,0,1-7.8-7.8V34.839a7.81,7.81,0,0,1,7.8-7.8H37.742a7.807,7.807,0,0,1,7.8,7.8V57.184a7.807,7.807,0,0,1-7.8,7.8M23.378,33.44a1.4,1.4,0,0,0-1.4,1.4V57.184a1.4,1.4,0,0,0,1.4,1.4H37.742a1.4,1.4,0,0,0,1.4-1.4V34.839a1.4,1.4,0,0,0-1.4-1.4Z" transform="translate(34.273 59.497)" fill="#fff"/><path d="M44.029,44.771a3.136,3.136,0,0,1-1.216-.243L6.2,29.486a3.2,3.2,0,1,1,2.429-5.918L45.245,38.61a3.2,3.2,0,0,1-1.216,6.161" transform="translate(9.279 51.325)" fill="#fff"/><path d="M7.419,57.382A3.2,3.2,0,0,1,6.2,51.221L42.813,36.147a3.2,3.2,0,0,1,2.436,5.918L8.638,57.139a3.164,3.164,0,0,1-1.219.243" transform="translate(9.278 79.008)" fill="#fff"/><path d="M30.84,66.955A9.139,9.139,0,0,1,21.991,60.1L17.052,40.89a3.2,3.2,0,0,1,3.1-3.994H34.713a3.2,3.2,0,0,1,3.178,2.823l2.016,17.027a9.13,9.13,0,0,1-9.067,10.21M24.282,43.294,28.193,58.5a2.827,2.827,0,0,0,4.689,1.136,2.7,2.7,0,0,0,.669-2.138l-1.683-14.2Z" transform="translate(37.302 81.188)" fill="#fff"/><path d="M9.954,99.051A9.964,9.964,0,0,1,0,89.1V30.686a9.952,9.952,0,1,1,19.9,0V89.1a9.961,9.961,0,0,1-9.95,9.954m0-71.918A3.557,3.557,0,0,0,6.4,30.686V89.1a3.551,3.551,0,1,0,7.1,0V30.686a3.556,3.556,0,0,0-3.549-3.553" transform="translate(0 45.619)" fill="#fff"/><path d="M95.686,27.153H20.378a3.2,3.2,0,1,1,0-6.4H95.686a3.2,3.2,0,0,1,0,6.4" transform="translate(37.8 45.663)" fill="#fff"/><path d="M74.207,32.87H30.139a3.2,3.2,0,1,1,0-6.4H74.207a3.2,3.2,0,0,1,0,6.4" transform="translate(59.279 58.243)" fill="#fff"/><path d="M74.207,38.586H30.139a3.2,3.2,0,0,1,0-6.4H74.207a3.2,3.2,0,0,1,0,6.4" transform="translate(59.279 70.821)" fill="#fff"/><path d="M74.207,44.3H30.139a3.2,3.2,0,1,1,0-6.4H74.207a3.2,3.2,0,0,1,0,6.4" transform="translate(59.279 83.399)" fill="#fff"/></g></g></svg>