<svg xmlns="http://www.w3.org/2000/svg" xmlns:xlink="http://www.w3.org/1999/xlink" width="145" height="187" viewBox="0 0 145 187"><defs><clipPath id="a"><rect width="145" height="187" transform="translate(-0.413 0.053)" fill="#fff"/></clipPath></defs><g transform="translate(0.413 -0.053)"><g transform="translate(0 0)" clip-path="url(#a)"><path d="M53.274,117.884a3.067,3.067,0,0,1-3.067-3.067V96.435a15.9,15.9,0,0,0-8.726-14.216L26.133,74.465A36.028,36.028,0,0,1,7.668,51.623L3.88,37.346a3.069,3.069,0,0,1,5.932-1.573L13.6,50.05A29.87,29.87,0,0,0,28.905,68.993L44.26,76.75A22.011,22.011,0,0,1,56.341,96.435v14.339l15.9-4.454V96.435A21.96,21.96,0,0,1,84.32,76.753l15.33-7.76a29.7,29.7,0,0,0,15.305-18.937l3.785-14.284a3.067,3.067,0,1,1,5.929,1.573L120.887,51.62a35.834,35.834,0,0,1-18.467,22.844l-15.327,7.76a15.859,15.859,0,0,0-8.714,14.21v12.214a3.064,3.064,0,0,1-2.242,2.954L54.1,117.77a3.063,3.063,0,0,1-.828.113" transform="translate(7.809 69.227)" fill="#fff"/><path d="M133.632,49.712H10.549a10.55,10.55,0,0,1,0-21.1H133.632a10.55,10.55,0,0,1,0,21.1M10.549,34.747a4.415,4.415,0,0,0,0,8.83H133.632a4.415,4.415,0,0,0,0-8.83Z" transform="translate(0.002 59.149)" fill="#fff"/><path d="M51.71,47.018a3.068,3.068,0,0,1-3.067-3.067V35.163A12.1,12.1,0,0,0,36.556,23.075H23.845A12.1,12.1,0,0,0,11.757,35.163v8.787a3.067,3.067,0,1,1-6.134,0V35.163A18.242,18.242,0,0,1,23.845,16.941h12.71A18.244,18.244,0,0,1,54.778,35.163v8.787a3.068,3.068,0,0,1-3.067,3.067" transform="translate(11.624 35.02)" fill="#fff"/><path d="M23.329,38.329A14.384,14.384,0,1,1,37.711,23.947,14.4,14.4,0,0,1,23.329,38.329m0-22.633a8.249,8.249,0,1,0,8.248,8.251A8.259,8.259,0,0,0,23.329,15.7" transform="translate(18.495 19.767)" fill="#fff"/><path d="M71.446,47.018a3.068,3.068,0,0,1-3.067-3.067V35.163A12.1,12.1,0,0,0,56.292,23.075H43.581A12.1,12.1,0,0,0,31.493,35.163v8.787a3.067,3.067,0,1,1-6.134,0V35.163A18.242,18.242,0,0,1,43.581,16.941h12.71A18.244,18.244,0,0,1,74.514,35.163v8.787a3.068,3.068,0,0,1-3.067,3.067" transform="translate(52.422 35.02)" fill="#fff"/><path d="M43.065,38.329A14.384,14.384,0,1,1,57.447,23.947,14.4,14.4,0,0,1,43.065,38.329m0-22.633a8.249,8.249,0,1,0,8.248,8.251A8.259,8.259,0,0,0,43.065,15.7" transform="translate(59.293 19.767)" fill="#fff"/><path d="M60.754,24.995a3.068,3.068,0,0,1-2.975-2.337A11.989,11.989,0,0,0,46.1,13.514H33.377A11.989,11.989,0,0,0,21.7,22.658,3.066,3.066,0,0,1,15.74,21.2,18.111,18.111,0,0,1,33.377,7.38H46.1A18.111,18.111,0,0,1,63.736,21.2a3.065,3.065,0,0,1-2.248,3.708,3.014,3.014,0,0,1-.733.089" transform="translate(32.353 15.256)" fill="#fff"/><path d="M33.2,28.767A14.384,14.384,0,1,1,47.579,14.385,14.4,14.4,0,0,1,33.2,28.767m0-22.633a8.249,8.249,0,1,0,8.248,8.251A8.259,8.259,0,0,0,33.2,6.134" transform="translate(38.894 0)" fill="#fff"/></g></g></svg>