<svg xmlns="http://www.w3.org/2000/svg" xmlns:xlink="http://www.w3.org/1999/xlink" width="163.511" height="163.548" viewBox="0 0 163.511 163.548"><defs><clipPath id="a"><rect width="163.511" height="163.548" fill="#fff"/></clipPath></defs><g transform="translate(0 0)"><g transform="translate(0 0.001)" clip-path="url(#a)"><path d="M72.206,149.415a2.854,2.854,0,0,1-2.024-.837L5.787,84.184a2.862,2.862,0,0,1-.292-3.7C38.777,34.617,76.622,15.241,102.509,7.063c28.168-8.9,48.227-6.9,49.067-6.811a2.859,2.859,0,0,1,2.538,2.538c.089.817,7.663,82.3-80.231,146.081a2.857,2.857,0,0,1-1.678.543M11.563,81.875,72.492,142.8c43.076-31.921,61.441-67.766,69.269-92.381C148.638,28.8,148.8,11.86,148.576,5.8c-13.534-.454-81.6,1.289-137.012,76.072" transform="translate(9.199 -0.002)" fill="#fff"/><path d="M52.765,98.1a9.26,9.26,0,0,1-6.588-2.73L5.893,55.087a9.316,9.316,0,0,1,0-13.176L16.6,31.2a2.855,2.855,0,0,1,4.042,0L70.06,80.62a2.864,2.864,0,0,1,0,4.044L59.353,95.371a9.27,9.27,0,0,1-6.588,2.73M18.62,37.266,9.934,45.952a3.6,3.6,0,0,0,0,5.091L50.218,91.33a3.688,3.688,0,0,0,5.093,0l8.683-8.689Z" transform="translate(5.878 56.425)" fill="#fff"/><path d="M31.933,46.9a2.858,2.858,0,0,1-2.021-4.879l10.83-10.827A5.477,5.477,0,1,0,33,23.446L22.166,34.273a2.858,2.858,0,1,1-4.042-4.042L28.954,19.4A11.193,11.193,0,1,1,44.783,35.233L33.953,46.06a2.85,2.85,0,0,1-2.021.837" transform="translate(32.126 29.973)" fill="#fff"/><path d="M34.379,35.83a2.85,2.85,0,0,1-2.021-.837L20.571,23.205a2.858,2.858,0,0,1,4.042-4.042L36.4,30.951a2.858,2.858,0,0,1-2.021,4.879" transform="translate(36.668 34.052)" fill="#fff"/><path d="M38.711,51a14.633,14.633,0,0,1-10.378-4.293l-3.427-3.427a2.855,2.855,0,0,1,0-4.042L41.627,22.517a2.942,2.942,0,0,1,4.042,0L49.1,25.944A14.676,14.676,0,0,1,38.711,51m-7.743-9.741,1.406,1.406A8.967,8.967,0,1,0,45.054,29.985l-1.406-1.406Z" transform="translate(44.724 40.346)" fill="#fff"/><path d="M44.977,58.094a8.7,8.7,0,0,1-6.2-2.57l-7.609-7.609a2.858,2.858,0,1,1,4.042-4.042l7.609,7.609a3.057,3.057,0,0,0,4.316,0,3.053,3.053,0,0,0,0-4.319l-3.424-3.427a8.776,8.776,0,0,1,0-12.4,8.981,8.981,0,0,1,12.4,0l7.606,7.606a2.858,2.858,0,1,1-4.042,4.042l-7.606-7.606a3.125,3.125,0,0,0-4.319,0,3.053,3.053,0,0,0,0,4.319l3.424,3.427a8.769,8.769,0,0,1-6.2,14.971" transform="translate(56.362 53.61)" fill="#fff"/><path d="M72.631,37.494a29.3,29.3,0,0,1-20.694-8.549,29.118,29.118,0,0,1-8.1-25.5,2.857,2.857,0,1,1,5.631.972A23.4,23.4,0,0,0,55.979,24.9a23.593,23.593,0,0,0,20.5,6.557,2.858,2.858,0,1,1,.938,5.639,29.05,29.05,0,0,1-4.785.394" transform="translate(80.679 1.988)" fill="#fff"/><path d="M3.072,93.637A2.861,2.861,0,0,1,.337,89.945L1.789,85.18a32.446,32.446,0,0,0,.12-18.556A23.256,23.256,0,0,1,5.347,46.494L11.067,38.5a2.86,2.86,0,0,1,4.65,3.33L10,49.821A17.566,17.566,0,0,0,7.4,65.032a38.15,38.15,0,0,1-.034,21.454,38.185,38.185,0,0,1,21.457-.034,17.55,17.55,0,0,0,15.209-2.6l7.989-5.716a2.859,2.859,0,1,1,3.33,4.647L47.358,88.5a23.264,23.264,0,0,1-20.131,3.438,32.495,32.495,0,0,0-18.556.12L3.907,93.514a2.908,2.908,0,0,1-.835.123" transform="translate(0.398 69.323)" fill="#fff"/><path d="M55.281,99.414a2.851,2.851,0,0,1-2.021-.837L31.707,77.025a2.86,2.86,0,1,1,4.044-4.044l19.53,19.533L78.044,69.751,67.62,38.27a2.858,2.858,0,0,1,5.425-1.8L84.024,69.625a2.855,2.855,0,0,1-.692,2.921L57.3,98.576a2.851,2.851,0,0,1-2.021.837" transform="translate(57.365 64.136)" fill="#fff"/><path d="M24.437,61.029a2.85,2.85,0,0,1-2.021-.837L.837,38.612a2.86,2.86,0,0,1,0-4.042L26.866,8.54a2.854,2.854,0,0,1,2.924-.689l33.153,11.03a2.859,2.859,0,1,1-1.806,5.425L29.662,13.831,6.9,36.591,26.458,56.15a2.858,2.858,0,0,1-2.021,4.879" transform="translate(0.001 14.313)" fill="#fff"/></g></g></svg>