<svg xmlns="http://www.w3.org/2000/svg" xmlns:xlink="http://www.w3.org/1999/xlink" width="121" height="156" viewBox="0 0 121 156"><defs><clipPath id="a"><rect width="121" height="156" transform="translate(0 0.362)" fill="#fff"/></clipPath></defs><g transform="translate(0.39 -0.123)"><g transform="translate(-0.391 -0.238)" clip-path="url(#a)"><path d="M45.164,104.056a2.565,2.565,0,0,1-2.565-2.565V86.121a13.293,13.293,0,0,0-7.3-11.887L22.47,67.751a30.125,30.125,0,0,1-15.439-19.1L3.863,36.714A2.566,2.566,0,0,1,8.823,35.4l3.165,11.938a24.976,24.976,0,0,0,12.8,15.839l12.839,6.486a18.4,18.4,0,0,1,10.1,16.46v11.99l13.3-3.724V86.121a18.362,18.362,0,0,1,10.1-16.457l12.818-6.489a24.836,24.836,0,0,0,12.8-15.834L99.9,35.4a2.565,2.565,0,0,1,4.957,1.316L101.7,48.649a29.963,29.963,0,0,1-15.442,19.1L73.442,74.239a13.261,13.261,0,0,0-7.286,11.882V96.334a2.562,2.562,0,0,1-1.875,2.47l-18.424,5.157a2.562,2.562,0,0,1-.692.095" transform="translate(6.361 52.672)" fill="#fff"/><path d="M111.738,46.255H8.821a8.821,8.821,0,0,1,0-17.642H111.738a8.821,8.821,0,0,1,0,17.642M8.821,33.742a3.692,3.692,0,0,0,0,7.384H111.738a3.692,3.692,0,0,0,0-7.384Z" transform="translate(0.452 45.044)" fill="#fff"/><path d="M44.159,42.09a2.566,2.566,0,0,1-2.565-2.565V32.178A10.119,10.119,0,0,0,31.487,22.07H20.86A10.119,10.119,0,0,0,10.752,32.178v7.348a2.565,2.565,0,1,1-5.129,0V32.178A15.253,15.253,0,0,1,20.86,16.941H31.487A15.255,15.255,0,0,1,46.724,32.178v7.348a2.566,2.566,0,0,1-2.565,2.565" transform="translate(9.248 26.781)" fill="#fff"/><path d="M20.973,33.616A12.027,12.027,0,1,1,33,21.59,12.038,12.038,0,0,1,20.973,33.616m0-18.925a6.9,6.9,0,1,0,6.9,6.9,6.905,6.905,0,0,0-6.9-6.9" transform="translate(14.449 15.236)" fill="#fff"/><path d="M63.9,42.09a2.566,2.566,0,0,1-2.565-2.565V32.178A10.119,10.119,0,0,0,51.223,22.07H40.6A10.119,10.119,0,0,0,30.488,32.178v7.348a2.565,2.565,0,1,1-5.129,0V32.178A15.253,15.253,0,0,1,40.6,16.941H51.223A15.255,15.255,0,0,1,66.46,32.178v7.348A2.566,2.566,0,0,1,63.9,42.09" transform="translate(40.128 26.781)" fill="#fff"/><path d="M40.709,33.616A12.027,12.027,0,1,1,52.734,21.59,12.038,12.038,0,0,1,40.709,33.616m0-18.925a6.9,6.9,0,1,0,6.9,6.9,6.905,6.905,0,0,0-6.9-6.9" transform="translate(45.329 15.236)" fill="#fff"/><path d="M53.364,22.109a2.565,2.565,0,0,1-2.488-1.954,10.024,10.024,0,0,0-9.766-7.645H30.472a10.024,10.024,0,0,0-9.766,7.645,2.564,2.564,0,1,1-4.981-1.221A15.144,15.144,0,0,1,30.472,7.38H41.11A15.144,15.144,0,0,1,55.857,18.934a2.563,2.563,0,0,1-1.88,3.1,2.52,2.52,0,0,1-.613.074" transform="translate(24.938 11.822)" fill="#fff"/><path d="M30.841,24.054A12.027,12.027,0,1,1,42.866,12.028,12.038,12.038,0,0,1,30.841,24.054m0-18.925a6.9,6.9,0,1,0,6.9,6.9,6.905,6.905,0,0,0-6.9-6.9" transform="translate(29.889 0.275)" fill="#fff"/></g></g></svg>