<svg xmlns="http://www.w3.org/2000/svg" xmlns:xlink="http://www.w3.org/1999/xlink" width="141.014" height="143.674" viewBox="0 0 141.014 143.674"><defs><clipPath id="a"><rect width="141.014" height="143.674" fill="#fff"/></clipPath></defs><g transform="translate(0 0)"><g transform="translate(0 0)" clip-path="url(#a)"><path d="M58.653,107.373A48.674,48.674,0,1,1,104.16,76.11a2.341,2.341,0,0,1-4.555-.749v-.023a2.347,2.347,0,0,1,.157-.841,44.028,44.028,0,1,0-37.311,28.031,2.341,2.341,0,1,1,.4,4.665q-2.1.183-4.2.18" transform="translate(13.467 13.453)" fill="#fff"/><path d="M48.541,79.655a31.038,31.038,0,0,1-21.881-53,30.79,30.79,0,0,1,21.926-9.1H48.6A31.058,31.058,0,0,1,70.568,70.562c-.646.651-1.3,1.243-1.974,1.815a2.342,2.342,0,0,1-3.019-3.583c.576-.482,1.126-.986,1.677-1.539A26.374,26.374,0,0,0,48.6,22.238h-.014a26.365,26.365,0,1,0,3.494,52.5,2.342,2.342,0,1,1,.611,4.644,31.86,31.86,0,0,1-4.152.274" transform="translate(23.555 23.554)" fill="#fff"/><path d="M39.308,54.139A14.827,14.827,0,1,1,49.794,49.8a14.734,14.734,0,0,1-10.486,4.342m0-24.973a10.15,10.15,0,1,0,7.173,2.972,10.069,10.069,0,0,0-7.173-2.972" transform="translate(32.856 32.851)" fill="#fff"/><path d="M62.822,65.162a2.335,2.335,0,0,1-1.656-.686L7.647,10.96a2.343,2.343,0,0,1,3.314-3.314L64.477,61.165a2.342,2.342,0,0,1-1.656,4" transform="translate(9.342 9.342)" fill="#fff"/><path d="M22.5,34.183a2.336,2.336,0,0,1-1.656-.686L7.649,20.3a2.337,2.337,0,0,1-.595-2.3l4.7-16.3A2.339,2.339,0,0,1,15.657.684l13.2,13.2a2.347,2.347,0,0,1,.595,2.3l-4.7,16.3a2.348,2.348,0,0,1-1.665,1.623,2.5,2.5,0,0,1-.585.073M11.936,17.964l9.416,9.414,3.215-11.161L15.152,6.8Z" transform="translate(9.341 0.001)" fill="#fff"/><path d="M15.538,29.542a2.348,2.348,0,0,1-1.656-.686l-13.2-13.2a2.34,2.34,0,0,1,1.007-3.906l16.3-4.7a2.334,2.334,0,0,1,2.307.595l13.2,13.2a2.34,2.34,0,0,1-1.007,3.906l-16.3,4.7a2.3,2.3,0,0,1-.651.094M6.806,15.152l9.414,9.416L27.378,21.35l-9.412-9.414Z" transform="translate(-0.001 9.339)" fill="#fff"/><path d="M49.974,70.849H37.7a6.281,6.281,0,0,1-6.274-6.274v-19.1A6.281,6.281,0,0,1,37.7,39.205H49.974a6.281,6.281,0,0,1,6.274,6.274v19.1a6.281,6.281,0,0,1-6.274,6.274M37.7,43.889a1.593,1.593,0,0,0-1.59,1.59v19.1a1.593,1.593,0,0,0,1.59,1.59H49.974a1.593,1.593,0,0,0,1.59-1.59v-19.1a1.593,1.593,0,0,0-1.59-1.59Z" transform="translate(42.165 52.605)" fill="#fff"/><path d="M42.272,52.406a2.342,2.342,0,0,1-.89-4.508L72.673,35.044a2.341,2.341,0,1,1,1.78,4.33L43.162,52.228a2.3,2.3,0,0,1-.89.178" transform="translate(53.576 46.785)" fill="#fff"/><path d="M73.563,67.128a2.356,2.356,0,0,1-.892-.176L41.38,54.068a2.343,2.343,0,0,1,1.784-4.332L74.455,62.62a2.342,2.342,0,0,1-.892,4.508" transform="translate(53.576 66.501)" fill="#fff"/><path d="M39.763,75.623A7.412,7.412,0,0,1,32.4,67.34l1.726-14.556a2.342,2.342,0,0,1,2.325-2.065H48.893a2.346,2.346,0,0,1,2.269,2.925l-4.22,16.413a7.413,7.413,0,0,1-7.18,5.566M38.536,55.4,37.053,67.89a2.731,2.731,0,0,0,2.709,3.049A2.722,2.722,0,0,0,42.4,68.89L45.872,55.4Z" transform="translate(43.407 68.052)" fill="#fff"/><path d="M61.4,97.986a8.123,8.123,0,0,1-8.112-8.114V39.952a8.113,8.113,0,1,1,16.226,0V89.871A8.125,8.125,0,0,1,61.4,97.986m0-61.464a3.432,3.432,0,0,0-3.428,3.431V89.871a3.43,3.43,0,1,0,6.859,0V39.952A3.434,3.434,0,0,0,61.4,36.522" transform="translate(71.5 42.72)" fill="#fff"/></g></g></svg>