<svg xmlns="http://www.w3.org/2000/svg" xmlns:xlink="http://www.w3.org/1999/xlink" width="120.565" height="131.854" viewBox="0 0 120.565 131.854"><defs><clipPath id="a"><rect width="120.565" height="131.854" fill="#fff"/></clipPath></defs><g transform="translate(0 0)"><g transform="translate(0 0)" clip-path="url(#a)"><path d="M118.369,109.786H2.193A2.188,2.188,0,0,1,0,107.6V30.344a2.192,2.192,0,0,1,.981-1.826l14.492-9.6A2.19,2.19,0,0,1,17.9,22.57L4.382,31.519v73.889h111.8V31.519L102.647,22.57a2.189,2.189,0,0,1,2.417-3.651l14.514,9.6a2.189,2.189,0,0,1,.981,1.826V107.6a2.188,2.188,0,0,1-2.189,2.189" transform="translate(0.005 22.062)" fill="#fff"/><path d="M31.676,61.643a2.189,2.189,0,0,1-1.215-4.013L82.1,23.305a2.19,2.19,0,0,1,2.426,3.647L32.886,61.278a2.188,2.188,0,0,1-1.211.366" transform="translate(35.059 27.277)" fill="#fff"/><path d="M53.811,61.644a2.176,2.176,0,0,1-1.208-.366L.983,26.954a2.19,2.19,0,1,1,2.426-3.647L55.028,57.632a2.19,2.19,0,0,1-1.217,4.013" transform="translate(0.004 27.276)" fill="#fff"/><path d="M118.367,88.842a2.183,2.183,0,0,1-1.4-.506L60.279,41.209,3.588,88.336a2.189,2.189,0,1,1-2.8-3.367L58.88,36.68a2.182,2.182,0,0,1,2.8,0l58.09,48.29a2.188,2.188,0,0,1-1.4,3.873" transform="translate(0 43.012)" fill="#fff"/><path d="M95.983,64.252a2.189,2.189,0,0,1-2.189-2.189V4.378H11V62.039a2.189,2.189,0,0,1-4.378,0V2.189A2.19,2.19,0,0,1,8.813,0h87.17a2.19,2.19,0,0,1,2.189,2.189V62.063a2.189,2.189,0,0,1-2.189,2.189" transform="translate(7.877 -0.001)" fill="#fff"/><path d="M30.231,37.086H20.406a5.34,5.34,0,0,1-5.335-5.335V16.467a5.342,5.342,0,0,1,5.335-5.335h9.825a5.342,5.342,0,0,1,5.337,5.335V31.751a5.341,5.341,0,0,1-5.337,5.335M20.406,15.51a.958.958,0,0,0-.957.957V31.751a.958.958,0,0,0,.957.957h9.825a.959.959,0,0,0,.959-.957V16.467a.959.959,0,0,0-.959-.957Z" transform="translate(17.921 13.236)" fill="#fff"/><path d="M24.543,22.084a2.189,2.189,0,0,1-.832-4.214L48.754,7.582a2.189,2.189,0,0,1,1.662,4.05L25.372,21.92a2.181,2.181,0,0,1-.83.164" transform="translate(26.58 8.82)" fill="#fff"/><path d="M49.585,34.686a2.194,2.194,0,0,1-.834-.164L23.71,24.211a2.19,2.19,0,1,1,1.666-4.05L50.419,30.472a2.19,2.19,0,0,1-.834,4.214" transform="translate(26.578 23.78)" fill="#fff"/><path d="M22.109,41.55a6.245,6.245,0,0,1-6.2-6.985l1.379-11.644a2.189,2.189,0,0,1,2.174-1.933h9.958a2.191,2.191,0,0,1,2.119,2.734L28.16,36.859a6.244,6.244,0,0,1-6.051,4.691m-.7-16.184-1.151,9.713a1.838,1.838,0,0,0,.46,1.462,1.936,1.936,0,0,0,3.207-.773l2.673-10.4Z" transform="translate(18.864 24.956)" fill="#fff"/><path d="M40.6,58.395a6.817,6.817,0,0,1-6.808-6.81V11.631a6.808,6.808,0,0,1,13.616,0V51.584a6.817,6.817,0,0,1-6.808,6.81M40.6,9.2a2.432,2.432,0,0,0-2.43,2.428V51.584a2.43,2.43,0,1,0,4.86,0V11.631A2.432,2.432,0,0,0,40.6,9.2" transform="translate(40.178 5.737)" fill="#fff"/></g></g></svg>