<svg xmlns="http://www.w3.org/2000/svg" xmlns:xlink="http://www.w3.org/1999/xlink" width="149.115" height="147.551" viewBox="0 0 149.115 147.551"><defs><clipPath id="a"><rect width="149.115" height="147.551" fill="#fff"/></clipPath></defs><g transform="translate(0 0)"><g transform="translate(0 0)" clip-path="url(#a)"><path d="M43.812,95.734A43.811,43.811,0,1,1,74.787,82.9,43.519,43.519,0,0,1,43.812,95.734m0-82.766a38.956,38.956,0,1,0,27.561,11.4,38.852,38.852,0,0,0-27.561-11.4" transform="translate(0 11.525)" fill="#fff"/><path d="M40.094,57.635a2.41,2.41,0,0,1-1.708-.708l-9.971-9.971a2.416,2.416,0,1,1,3.417-3.417L40.094,51.8l3.584-3.584-8.262-8.262a2.417,2.417,0,1,1,3.419-3.417L48.8,46.509a2.414,2.414,0,0,1,0,3.417l-7,7a2.41,2.41,0,0,1-1.708.708" transform="translate(39.246 50.755)" fill="#fff"/><path d="M68.024,92.356A6.992,6.992,0,0,1,63.05,90.3L32.87,60.112a7.024,7.024,0,0,1,0-9.942l9.214-9.212a7.2,7.2,0,0,1,9.944,0l30.18,30.18a7.03,7.03,0,0,1,0,9.942L72.995,90.3a6.986,6.986,0,0,1-4.971,2.059M47.055,43.73a2.177,2.177,0,0,0-1.551.645l-9.217,9.212a2.191,2.191,0,0,0,0,3.105L66.47,86.878a2.246,2.246,0,0,0,3.108,0l9.214-9.214v0a2.2,2.2,0,0,0,0-3.105l-30.18-30.18a2.188,2.188,0,0,0-1.556-.645" transform="translate(43.642 55.196)" fill="#fff"/><path d="M21.159,49.832H8.514A2.416,2.416,0,0,1,6.1,47.416V23.884a2.414,2.414,0,0,1,2.417-2.417H21.159a2.414,2.414,0,0,1,2.417,2.417V47.416a2.416,2.416,0,0,1-2.417,2.417M10.93,45h7.813V26.3H10.93Z" transform="translate(8.637 30.41)" fill="#fff"/><path d="M30.008,57.762H17.36a2.417,2.417,0,0,1-2.417-2.417V18.286a2.416,2.416,0,0,1,2.417-2.417H30.008a2.416,2.416,0,0,1,2.417,2.417v37.06a2.417,2.417,0,0,1-2.417,2.417M19.776,52.929h7.813V20.7H19.776Z" transform="translate(21.167 22.48)" fill="#fff"/><path d="M38.854,46.21H26.206a2.416,2.416,0,0,1-2.417-2.417V26.441a2.414,2.414,0,0,1,2.417-2.417H38.854a2.414,2.414,0,0,1,2.417,2.417V43.794a2.416,2.416,0,0,1-2.417,2.417M28.622,41.377h7.815V28.857H28.622Z" transform="translate(33.698 34.032)" fill="#fff"/><path d="M67.023,61.709A30.854,30.854,0,1,1,97.877,30.857,30.886,30.886,0,0,1,67.023,61.709m0-56.876A26.021,26.021,0,1,0,93.044,30.857,26.051,26.051,0,0,0,67.023,4.833" transform="translate(51.238 0.001)" fill="#fff"/><path d="M54.9,35.761c-.324,0-.645-.012-.959-.031-5.244-.336-8.857-3.267-9.2-7.47a2.418,2.418,0,1,1,4.819-.4c.21,2.559,3.647,2.98,4.693,3.045,3.286.2,5.942-1.121,6.155-2.119.4-1.89.672-3.139-8.929-5.718-5.611-1.51-7.175-5.367-6.764-8.475a9.477,9.477,0,0,1,9.277-7.827c7.924,0,10.244,5.08,10.34,5.292a2.418,2.418,0,0,1-4.4,2c-.094-.181-1.392-2.458-5.937-2.458A4.628,4.628,0,0,0,49.5,15.227c-.244,1.841,1.621,2.743,3.229,3.173,9.5,2.554,13.784,4.913,12.4,11.4-.848,3.978-5.725,5.964-10.227,5.964" transform="translate(63.245 9.587)" fill="#fff"/><path d="M50.284,26.463a2.414,2.414,0,0,1-2.417-2.417V19.178a2.417,2.417,0,1,1,4.833,0v4.869a2.414,2.414,0,0,1-2.417,2.417" transform="translate(67.806 23.744)" fill="#fff"/><path d="M50.284,14.462a2.414,2.414,0,0,1-2.417-2.417V7.177a2.417,2.417,0,1,1,4.833,0v4.869a2.414,2.414,0,0,1-2.417,2.417" transform="translate(67.806 6.744)" fill="#fff"/></g></g></svg>